<svg width="231" height="295" viewBox="0 0 231 296" fill="none" xmlns="http://www.w3.org/2000/svg">
<g clip-path="url(#clip0_1022_10570)">
<g opacity="0.3" filter="url(#filter0_di_1022_10570)">
<circle cx="338.5" cy="147.5" r="213.5" fill="#30628C" fill-opacity="0.08" shape-rendering="crispEdges"/>
</g>
<path d="M175.075 243.885C178.935 243.811 182.576 243.803 185.997 243.861C186.341 243.868 186.647 243.921 186.914 244.021C187.528 244.255 188.086 245.235 187.594 245.841C186.792 246.835 185.478 246.497 184.397 246.49C169.507 246.392 155.813 246.385 140.128 246.514C139.354 246.521 138.917 246.1 138.817 245.252C138.803 245.129 138.813 245.014 138.848 244.907C139.081 244.221 139.626 243.874 140.483 243.865C143.709 243.827 147.133 243.816 150.754 243.83C151.063 243.832 151.116 243.718 150.911 243.488C150.827 243.395 150.724 243.333 150.601 243.303C149.453 243.013 148.089 242.456 146.511 241.633C138.092 237.237 132.085 230.331 128.811 221.496C128.765 221.373 128.674 221.308 128.539 221.301C126.787 221.231 125.11 221.127 123.508 220.987C122.829 220.928 122.225 220.715 121.528 220.639C118.772 220.329 115.918 219.988 112.966 219.614C111.708 219.453 110.793 219.166 110.219 218.753C108.864 217.776 108.551 216.419 109.281 214.68C109.35 214.515 109.357 214.347 109.302 214.175C108.809 212.627 108.872 211.277 109.49 210.124C110.308 208.604 111.613 207.532 113.405 206.909C115.36 206.228 117.402 205.685 119.531 205.278C119.551 205.273 119.57 205.263 119.586 205.249C119.601 205.235 119.613 205.216 119.619 205.196C119.625 205.176 119.625 205.154 119.62 205.134C119.615 205.113 119.605 205.094 119.59 205.079L87.1495 171.973C86.9171 171.736 86.7707 171.78 86.7102 172.105C86.4081 173.77 86.0304 175.442 85.5772 177.122C85.4342 177.659 85.762 178.193 86.3407 178.227C86.4523 178.234 86.5487 178.282 86.6301 178.37C86.6951 178.442 86.7707 178.507 86.8567 178.566C94.1175 183.509 99.0937 190.201 101.785 198.64C102.062 199.511 102.337 200.457 102.611 201.478C102.767 202.052 102.851 202.62 102.862 203.183C102.88 204.012 103.204 204.636 103.256 205.466C103.452 208.704 103.373 211.838 103.019 214.869C102.894 215.936 102.695 216.918 102.423 217.815C102.047 219.056 101.719 220.36 101.266 221.587C98.1535 230.003 92.7276 236.45 84.988 240.929C83.0008 242.08 80.9276 242.985 78.7684 243.645C78.35 243.773 78.3593 243.837 78.7963 243.837L89.1088 243.854C89.7782 243.854 90.1559 244.185 90.2419 244.848L90.3151 245.423C90.3988 246.071 90.1152 246.421 89.4645 246.472C88.4116 246.552 87.3726 246.476 86.3198 246.472C72.4093 246.393 58.6906 246.404 45.1637 246.504C44.3316 246.508 43.8958 246.095 43.8563 245.263C43.8517 245.144 43.8703 245.034 43.9121 244.931C44.1887 244.269 44.6152 243.926 45.1916 243.903C48.0178 243.789 50.3293 243.761 52.1259 243.819C53.4437 243.861 54.7592 243.852 56.0724 243.791C56.1863 243.787 56.2421 243.727 56.2397 243.614C56.2397 243.579 56.2293 243.546 56.2084 243.516C56.1805 243.474 56.141 243.447 56.0898 243.436C55.3507 243.296 54.6418 243.091 53.9632 242.819C44.1875 238.886 36.5594 230.983 33.0696 220.984C32.6373 219.75 32.3933 218.564 32.0342 217.337C31.7274 216.288 31.6995 215.196 31.4729 214.126C31.3404 213.496 31.2776 212.889 31.2846 212.303C31.3032 210.648 31.2997 208.976 31.2741 207.286C31.2532 205.846 31.6995 204.64 31.7727 203.242C31.7983 202.744 31.8912 202.23 32.0516 201.697C32.5815 199.944 32.9929 198.225 33.6797 196.489C35.8598 190.997 39.223 186.241 43.7691 182.223C44.2665 181.783 44.7813 181.386 45.3136 181.03C46.0701 180.528 46.7011 179.908 47.4786 179.402C55.5064 174.203 64.2118 172.343 73.5947 173.821C73.8457 173.86 73.9747 173.753 73.9817 173.5C74.027 171.956 75.1984 171.46 76.6104 171.272C76.7359 171.256 76.8451 171.292 76.9381 171.38C77.2123 171.645 77.5261 171.859 77.8794 172.022C77.9092 172.035 77.9359 172.054 77.9578 172.078C77.9796 172.103 77.9962 172.131 78.0064 172.162C78.0165 172.194 78.0201 172.227 78.0168 172.259C78.0136 172.292 78.0036 172.324 77.9875 172.353L77.7748 172.736C77.6749 172.92 77.726 173.036 77.9282 173.085L78.8346 173.315C78.8887 173.328 78.9452 173.328 78.999 173.313C79.0527 173.299 79.1021 173.272 79.1426 173.234C79.1831 173.197 79.2134 173.15 79.2309 173.097C79.2483 173.045 79.2523 172.989 79.2425 172.935L79.1484 172.426C79.1252 172.294 79.1519 172.171 79.2286 172.057C79.5168 171.638 79.6888 171.3 79.7446 171.042C80.0165 169.794 80.2815 168.57 80.5394 167.371C80.8184 166.06 81.303 164.843 81.4668 163.512C81.4731 163.461 81.4693 163.409 81.4555 163.359C81.4418 163.31 81.4183 163.263 81.3866 163.223C81.3548 163.182 81.3154 163.148 81.2705 163.123C81.2257 163.098 81.1763 163.082 81.1251 163.076C79.7446 162.922 78.4418 162.595 77.217 162.093C77.0729 162.032 76.995 162.08 76.9834 162.236C76.9113 163.077 76.543 163.885 75.8782 164.659C74.9125 165.781 72.5836 165.847 71.3425 165.527C69.2786 164.992 67.2031 164.37 65.1159 163.662C60.7394 162.176 57.8586 159.342 56.4733 155.158C55.5088 152.246 55.4379 149.291 56.2607 146.293C57.2194 142.806 58.8963 140.774 61.4623 138.595C61.5808 138.495 61.6145 138.371 61.5634 138.222C61.0334 136.719 61.7098 136.137 62.0515 134.864C62.421 133.494 64.2409 132.149 65.3704 131.699C67.6993 130.774 70.1502 130.705 72.7231 131.493C73.4901 131.728 74.2617 131.956 75.038 132.177C75.1682 132.214 75.2704 132.177 75.3448 132.065C75.805 131.375 76.3082 130.742 76.8544 130.168C77.2344 129.767 77.5377 129.063 77.6284 128.512C77.9166 126.762 78.7998 125.055 80.278 123.391C81.6748 121.817 83.0322 120.365 84.35 119.033C87.6574 115.698 91.1704 112.235 94.8892 108.644C95.9118 107.658 96.9612 106.615 98.0373 105.513C99.404 104.112 100.861 102.703 102.141 101.242C104.907 98.0791 107.57 94.7694 110.131 91.3133C110.224 91.1878 110.273 91.0471 110.278 90.8914L110.337 89.1831C110.339 89.1263 110.32 89.0707 110.284 89.0265C110.248 88.9824 110.198 88.9526 110.142 88.9426C108.8 88.7125 107.402 88.7578 106.136 88.2C103.479 87.0216 101.625 84.8426 100.75 82.2767C100.596 81.8258 100.446 81.3552 100.3 80.8647C99.8014 79.1843 99.9688 76.9775 100.185 75.3145C100.262 74.7218 100.523 73.7294 100.969 72.3372C101.572 70.4615 101.642 68.4953 102.186 66.6266C102.23 66.4778 102.193 66.3523 102.074 66.2501C101.089 65.3971 100.731 64.178 101.001 62.5929C101.799 57.9038 105.669 53.9154 109.839 51.8585C111.233 51.1728 112.804 50.708 114.552 50.464C117.62 50.034 120.647 50.2757 123.634 51.1891C123.764 51.231 123.847 51.1856 123.881 51.0531C124.488 48.7034 126.07 47.5575 128.626 47.6156C129.728 47.64 131.252 48.3234 132.053 49.1705C133.995 51.2275 134.204 54.6127 131.795 56.4186C131.695 56.493 131.687 56.5778 131.771 56.6731C132.876 57.9212 134.905 60.522 134.919 62.2408C134.922 62.3696 134.967 62.4946 135.048 62.5964C135.341 62.9659 135.51 63.3785 135.554 63.834C135.665 64.9892 135.733 66.1408 135.756 67.289C135.757 67.3286 135.767 67.3674 135.786 67.4022C135.805 67.437 135.832 67.4669 135.865 67.4893C135.897 67.5117 135.935 67.5261 135.974 67.5313C136.013 67.5365 136.053 67.5323 136.091 67.5191C136.858 67.2541 137.544 67.2599 138.151 67.5365C138.58 67.7352 138.998 67.6132 139.406 67.8154C141.135 68.68 142.272 69.9107 143.377 71.4377C143.68 71.8561 144.221 72.0827 144.702 72.2082C147.526 72.9543 150.196 73.1332 152.713 72.7451C155.026 72.3872 157.303 71.9165 159.543 71.3331C160.461 71.0914 161.372 70.9403 162.276 70.8799C162.897 70.8415 163.382 70.5208 163.995 70.472C166.126 70.2954 168.056 70.2977 169.782 70.479C171.602 70.6696 173.12 71.3145 174.336 72.4139C175.498 73.4621 176 74.7857 175.842 76.3848C175.779 77.0216 175.548 77.5783 175.148 78.0548C174.179 79.2157 173.108 79.7282 171.588 79.6062C170.459 79.5155 170.044 78.4487 170.63 77.5353C170.697 77.4261 170.792 77.354 170.916 77.3191L172.704 76.7892C172.763 76.7711 172.815 76.7359 172.854 76.6881C173.945 75.3703 172.655 74.1536 171.498 73.7003C170.735 73.4028 169.85 73.1553 168.841 72.9578C168.107 72.8137 167.29 72.8055 166.39 72.9333C165.272 73.0937 164.116 73.2634 162.921 73.4423C161.773 73.612 160.691 73.8177 159.676 74.0594C154.812 75.2204 150.127 75.8828 145.141 74.945C144.967 74.9124 144.905 74.981 144.956 75.1506C145.128 75.7154 145.19 76.3314 145.141 76.9984C145.134 77.0778 145.146 77.1576 145.174 77.2319C145.203 77.3061 145.247 77.3729 145.305 77.4272C146.403 78.4661 147.676 79.1425 148.826 80.1361C150.548 81.6248 152.061 83.3993 153.934 84.637C157.167 86.7729 160.496 88.4789 163.922 89.7549C165.451 90.3243 166.94 90.7427 168.388 91.01C169.471 91.2098 170.649 91.0704 171.923 90.5916C172.025 90.5532 172.111 90.4821 172.167 90.3894C172.502 89.842 173.094 88.8728 172.498 88.3185C172.033 87.8816 171.487 87.5085 170.86 87.1994C169.737 86.6451 170.253 85.39 171.16 85.0623C171.294 85.0129 171.442 85.0154 171.574 85.0693C172.058 85.2622 172.558 85.4237 173.074 85.5538C173.879 85.7561 175.207 87.677 175.13 88.4859C175.092 88.9077 175.308 89.2145 175.225 89.6677C174.576 93.175 171.055 94.3394 167.91 93.8095C165.946 93.4794 164.295 93.0076 162.956 92.394C161.857 91.8897 160.853 91.4783 159.944 91.1599C159.398 90.967 159.334 91.0715 159.752 91.4736C160.51 92.2011 161.211 92.9681 161.855 93.7746C167.628 100.991 172.85 108.463 177.079 116.607C179.583 121.425 182.148 128.408 177.083 132.738C176.218 133.473 175.064 133.867 174.039 134.359C173.921 134.415 173.881 134.505 173.921 134.631C174.109 135.238 174.202 135.848 174.2 136.461C174.186 138.328 174.023 140.303 173.712 142.388C173.619 143.02 173.456 143.613 173.223 144.166C172.906 144.926 172.749 145.721 172.387 146.453C171.266 148.696 169.957 150.541 168.458 151.989C163.239 157.024 156.078 159.112 148.844 159.673C148.388 159.708 147.975 159.831 147.606 160.043C147.494 160.108 147.418 160.201 147.376 160.322C147.213 160.789 146.997 161.222 146.727 161.622C146.187 162.424 146.344 163.519 146.717 164.334C148.163 167.493 149.673 170.814 151.249 174.298C151.354 174.531 151.526 174.604 151.765 174.518C152.954 174.089 154.533 173.427 155.792 173.388C156.461 173.367 156.977 173.075 157.615 172.998C167.709 171.829 176.581 174.061 184.23 179.695C191.298 184.901 196.036 191.836 198.444 200.498C198.82 201.858 198.928 203.27 199.249 204.654C199.458 205.56 199.252 206.449 199.409 207.363C199.651 208.776 199.66 210.158 199.437 211.508C199.214 212.847 199.465 214.199 199.085 215.507C198.782 216.553 198.74 217.588 198.447 218.665C196.878 224.392 194.159 229.417 190.289 233.74C186.147 238.365 181.071 241.716 175.061 243.791C174.868 243.856 174.873 243.888 175.075 243.885ZM123.606 75.0635C120.35 75.9246 118.711 72.4243 117.7 70.099C117.526 69.6945 117.177 69.3843 116.721 69.3738C115.893 69.3506 115.121 69.2309 114.406 69.0147C113.231 68.6591 112.105 68.8892 110.954 68.4011C110.368 68.1571 109.73 68.2233 109.113 68.185C108.637 68.1594 108.174 68.0746 107.726 67.9305C106.717 67.6051 105.606 67.418 104.393 67.3692C104.371 67.3687 104.35 67.3725 104.33 67.3805C104.31 67.3884 104.292 67.4003 104.277 67.4153C104.262 67.4303 104.25 67.4482 104.243 67.4679C104.235 67.4875 104.232 67.5085 104.233 67.5295C104.242 67.8433 104.224 68.1536 104.18 68.4604C103.82 70.9287 103.356 73.1204 102.789 75.0356C102.068 77.4795 102.332 79.655 103.375 81.9211C104.302 83.9432 105.592 85.5678 107.823 86.0907C108.909 86.3464 109.941 86.4359 110.919 86.3592C111.382 86.322 111.801 86.1558 112.178 85.8606C116.313 82.6184 120.317 79.4121 124.192 76.2419C124.558 75.942 125.011 75.7817 125.377 75.4644C126.937 74.1048 128.633 72.8102 130.467 71.5807C131.004 71.2181 131.443 70.7683 131.687 70.1547C131.7 70.1232 131.705 70.089 131.701 70.0552C131.697 70.0214 131.685 69.989 131.666 69.961C131.646 69.933 131.62 69.9103 131.59 69.8948C131.56 69.8793 131.526 69.8716 131.492 69.8724C129.974 69.9235 128.596 69.8445 127.357 69.6353C127.218 69.612 127.166 69.6701 127.2 69.8096C127.758 72.0722 125.6 74.5371 123.606 75.0635ZM120.217 69.2065C120.695 70.5452 121.18 72.1419 122.529 72.7416C123.557 73.1983 124.784 71.7445 124.729 70.8102C124.628 69.0531 121.594 68.931 120.343 69.0112C120.321 69.0124 120.299 69.0189 120.28 69.0302C120.26 69.0415 120.244 69.0572 120.232 69.0762C120.22 69.0951 120.212 69.1168 120.209 69.1394C120.207 69.162 120.21 69.185 120.217 69.2065ZM115.051 95.0611C118.021 91.1773 120.81 87.1889 123.916 83.4516C126.186 80.7253 128.717 78.4836 131.865 77.0158C133.313 76.3395 134.894 75.9595 136.607 75.8758C138.743 75.7735 140.645 75.9851 142.314 76.5103C142.351 76.5218 142.391 76.5239 142.429 76.5166C142.467 76.5093 142.504 76.4927 142.534 76.4683C142.565 76.444 142.589 76.4125 142.604 76.3767C142.62 76.3409 142.627 76.3018 142.624 76.2628C142.526 74.931 141.728 73.8607 141.006 72.7974C140.302 71.7631 139.368 70.9392 138.203 70.3256C137.68 70.0501 137.182 70.1234 136.697 70.4197C131.206 73.7701 126.207 77.8212 121.141 81.9943C118.824 83.9025 116.507 85.7317 114.189 87.4818C112.617 88.6706 112.502 90.9751 113.402 92.6102C113.862 93.4423 114.331 94.2546 114.81 95.0471C114.822 95.0674 114.839 95.0843 114.86 95.0965C114.88 95.1087 114.903 95.1158 114.927 95.1172C114.95 95.1186 114.974 95.1142 114.996 95.1044C115.017 95.0946 115.036 95.0798 115.051 95.0611ZM142.631 96.2255C143.129 96.5114 142.994 97.24 143.049 97.7177C143.082 98.0059 143.05 98.2371 142.955 98.4114C141.091 101.751 139.002 104.823 136.687 107.626C132.915 112.203 129.474 115.847 123.749 121.568C123.661 121.658 123.63 121.764 123.658 121.885C124.582 125.8 125.761 129.356 128.776 132.131C131.569 134.708 135.456 135.032 139.117 134.756C141.274 134.596 143.466 134.302 145.695 133.874C149.324 133.175 152.403 132.719 154.934 132.508C156.677 132.359 158.422 132.222 160.167 132.096C163.412 131.864 166.761 131.726 170.215 131.681C171.435 131.664 172.694 131.385 173.9 131.176C174.209 131.122 174.503 130.983 174.782 130.758C176.644 129.251 177.339 127.265 176.867 124.799C176.632 123.577 176.358 122.589 176.044 121.836C175.336 120.142 174.66 118.503 173.799 116.865C169.762 109.199 164.995 102.05 159.498 95.4167C155.719 90.86 151.87 86.6346 147.275 82.3883C145.541 80.7869 143.658 79.6724 141.627 79.0449C140.675 78.7485 139.741 78.7799 138.81 78.5498C138.175 78.3918 137.514 78.3627 136.826 78.4627C133.589 78.9368 130.879 80.2163 128.696 82.3011C126.786 84.1256 125.49 85.5027 124.809 86.4324C120.883 91.8118 116.975 96.8496 113.067 101.8C111.47 103.822 109.772 105.701 108.127 107.685C107.206 108.794 106.223 109.801 105.327 110.934C103.978 112.639 102.27 114.417 101.001 115.958C99.0507 118.324 97.0472 120.737 94.9903 123.196C92.6405 125.999 90.859 128.589 89.5446 131.776C89.4888 131.913 89.5202 132.027 89.6388 132.117C92.8288 134.554 95.4784 137.165 97.3226 140.697C97.3489 140.749 97.3926 140.79 97.4462 140.813C97.4997 140.836 97.5597 140.84 97.6155 140.823C100.345 140.003 102.835 137.995 104.909 136.057C110.266 131.057 116.185 125.298 122.665 118.779C128.856 112.552 134.536 106.719 138.974 99.5898C139.479 98.774 139.817 97.8955 140.222 97.0239C140.759 95.8734 141.562 95.6073 142.631 96.2255ZM80.1559 128.104C80.0514 128.258 80.0746 128.39 80.2257 128.502C81.2297 129.231 82.2756 129.876 83.1751 130.73C84.1304 131.638 84.9659 132.597 85.6818 133.606C85.6975 133.628 85.7181 133.647 85.7419 133.661C85.7658 133.674 85.7924 133.682 85.8197 133.684C85.8471 133.686 85.8746 133.682 85.9002 133.672C85.9258 133.662 85.9488 133.647 85.9677 133.627C86.5569 133.02 87.3029 132.177 87.3622 131.274C87.5261 128.711 89.6806 125.605 91.2285 123.625C93.6992 120.461 96.8345 116.676 100.635 112.27C105.088 107.107 109.219 102.196 113.029 97.5364C113.067 97.4887 113.089 97.4293 113.089 97.3679C113.09 97.3065 113.07 97.2467 113.032 97.1982C112.321 96.2848 111.758 95.2946 111.345 94.2278C111.336 94.2074 111.323 94.1895 111.305 94.1758C111.288 94.1622 111.267 94.1533 111.246 94.1501C111.224 94.1469 111.202 94.1496 111.182 94.1577C111.162 94.1658 111.145 94.1792 111.132 94.1965C109.607 96.2394 108.014 98.279 106.352 100.315C104.672 102.375 102.758 104.279 100.98 106.207C99.5574 107.748 98.1547 109.176 96.7718 110.492C91.9467 115.094 87.5783 119.378 82.9311 124.276C81.7736 125.497 81.0729 126.776 80.1559 128.104ZM91.0438 152.976L90.9461 153.07C90.9165 153.098 90.8931 153.131 90.8775 153.169C90.8618 153.207 90.8543 153.248 90.8555 153.29C90.8741 153.992 90.7288 154.649 90.4197 155.263C90.4072 155.288 90.4013 155.316 90.4026 155.344C90.4039 155.371 90.4122 155.399 90.4269 155.422C90.4415 155.446 90.462 155.466 90.4864 155.479C90.5108 155.493 90.5382 155.5 90.5661 155.5L102.817 155.504C102.984 155.504 103.074 155.42 103.086 155.253C103.469 149.72 107.593 146.049 112.387 143.66C117.32 141.199 122.738 139.306 128.11 137.5C128.923 137.225 129.784 137.134 130.628 136.949C131.16 136.835 131.171 136.681 130.662 136.486C125.492 134.519 122.327 129.245 121.413 124.025C121.41 124.008 121.402 123.992 121.39 123.979C121.379 123.966 121.364 123.956 121.347 123.95C121.33 123.945 121.312 123.944 121.295 123.948C121.278 123.952 121.262 123.961 121.249 123.973C116.661 128.715 111.78 133.208 106.753 137.901C103.793 140.666 100.697 143.019 96.6707 143.643C96.4476 143.678 96.25 143.766 96.078 143.908C95.3273 144.524 94.5359 145.154 93.7038 145.798C93.0728 146.286 92.6021 146.92 92.0757 147.516C91.8991 147.714 91.8317 147.944 91.8735 148.207C91.999 148.974 91.755 149.619 91.6225 150.361C91.4761 151.184 91.3215 151.988 91.1588 152.774C91.1425 152.853 91.1042 152.92 91.0438 152.976ZM79.2077 131.152L77.5795 132.992C77.5585 133.016 77.5436 133.044 77.5362 133.074C77.5288 133.105 77.529 133.137 77.5369 133.167C77.5448 133.198 77.5602 133.226 77.5816 133.25C77.603 133.273 77.6298 133.292 77.6597 133.303C79.0241 133.807 80.4488 134.444 81.934 135.213C82.4778 135.497 83.0322 135.571 83.597 135.436C83.6412 135.426 83.6821 135.404 83.7158 135.373C83.7495 135.343 83.775 135.304 83.79 135.261C83.8049 135.218 83.8088 135.172 83.8012 135.127C83.7937 135.082 83.775 135.04 83.7469 135.004C82.5266 133.465 81.1798 132.164 79.7062 131.099C79.6319 131.045 79.5398 131.02 79.4478 131.03C79.3558 131.039 79.2702 131.083 79.2077 131.152ZM86.644 136.416L92.7451 143.336C92.7663 143.36 92.7921 143.38 92.821 143.394C92.8499 143.408 92.8812 143.416 92.9133 143.418C92.9454 143.42 92.9775 143.416 93.0079 143.405C93.0382 143.395 93.0662 143.379 93.0902 143.357L94.5684 142.053C94.6687 141.965 94.7064 141.807 94.6792 141.59C94.652 141.372 94.5605 141.099 94.41 140.785C94.2594 140.471 94.0528 140.123 93.8018 139.761C93.5508 139.399 93.2605 139.03 92.9473 138.675L91.2948 136.799C90.6627 136.082 89.9759 135.465 89.3856 135.084C88.7952 134.703 88.3495 134.589 88.1466 134.767L86.6649 136.074C86.6173 136.117 86.5884 136.177 86.5845 136.241C86.5806 136.305 86.602 136.368 86.644 136.416ZM63.7876 142.744C63.4076 142.402 63.1043 141.91 62.9195 141.44C62.9015 141.393 62.8734 141.351 62.8373 141.317C62.8012 141.283 62.7579 141.257 62.7106 141.241C62.6633 141.226 62.6131 141.22 62.5637 141.226C62.5142 141.232 62.4667 141.249 62.4245 141.276C60.9916 142.179 60.2874 143.493 59.4785 144.909C59.1624 145.466 58.9416 146.042 58.8161 146.634C58.5616 147.834 58.1433 148.918 58.1886 150.176C58.3931 155.903 61.1717 159.662 66.5244 161.451C69.267 162.367 71.3088 162.929 72.6499 163.139C73.1972 163.226 73.9294 163.201 74.2989 162.685C75.4145 161.134 72.3675 159.928 71.4122 159.746C68.5221 159.203 65.6075 158.397 63.5924 156.295C62.2699 154.917 61.5029 153.378 61.2914 151.679C60.8638 148.286 61.7017 145.459 63.8051 143.2C63.9538 143.042 63.948 142.89 63.7876 142.744ZM67.6017 146.725C67.9015 145.723 68.2153 144.755 68.543 143.821C68.5514 143.798 68.5541 143.773 68.5509 143.749C68.5477 143.724 68.5388 143.701 68.5248 143.681C68.5108 143.661 68.4921 143.644 68.4704 143.633C68.4487 143.621 68.4246 143.615 68.4001 143.615C67.6261 143.605 66.5802 143.545 66.0294 144.243C64.3036 146.425 63.3763 148.329 63.8016 151.236C64.2339 154.175 66.5209 155.758 69.2472 156.619C69.4564 156.684 69.5064 156.621 69.3971 156.431C68.7278 155.256 67.905 154.022 67.5912 152.732C67.131 150.867 67.0369 148.625 67.6017 146.725ZM72.1862 148.587C72.1653 148.384 72.2025 148.159 72.2978 147.91C72.3721 147.717 72.3094 147.598 72.1095 147.551L70.1328 147.088C69.9956 147.055 69.9178 147.108 69.8992 147.248C69.6168 149.399 69.4006 150.773 70.3559 152.983C72.8242 158.683 78.9009 160.709 84.6742 161.036C85.3413 161.074 85.9955 161.026 86.637 160.893C86.783 160.863 86.9144 160.784 87.0099 160.669C87.1055 160.555 87.1596 160.411 87.1635 160.262C87.1948 159.244 86.5534 158.666 85.619 158.477C84.4651 158.251 83.4226 157.808 82.2443 157.696C76.6836 157.16 72.7928 154.329 72.1862 148.587ZM83.9839 150.902C83.9861 150.892 83.986 150.883 83.9838 150.873C83.9817 150.864 83.9774 150.855 83.9713 150.848C83.9653 150.84 83.9576 150.835 83.9489 150.831C83.9402 150.827 83.9307 150.825 83.9212 150.825C82.8799 150.862 81.7794 150.799 80.6196 150.637C79.4203 150.466 78.3012 149.957 77.1124 149.653C76.3245 149.455 75.6377 149.061 74.9474 148.66C74.7382 148.539 74.6661 148.595 74.7312 148.827C75.0066 149.817 75.1984 151.02 75.8085 151.857C77.0043 153.492 78.6917 154.423 80.6475 154.712C81.3122 154.81 81.9549 154.981 82.5755 155.225C82.6161 155.24 82.6597 155.247 82.7032 155.245C82.7467 155.243 82.7892 155.232 82.8278 155.212C82.8664 155.192 82.9003 155.164 82.9271 155.13C82.9539 155.097 82.9731 155.057 82.9834 155.015L83.9839 150.902ZM89.2413 150.037C89.2456 150.018 89.2446 149.997 89.2384 149.978C89.2322 149.959 89.221 149.943 89.2061 149.929C89.1912 149.916 89.173 149.907 89.1534 149.904C89.1339 149.9 89.1137 149.901 89.0949 149.908L86.4453 150.821C86.4273 150.827 86.4111 150.838 86.3983 150.852C86.3854 150.866 86.3764 150.883 86.3721 150.902L85.239 155.653C85.236 155.668 85.2358 155.683 85.2385 155.697C85.2413 155.712 85.2469 155.726 85.255 155.738C85.2631 155.75 85.2735 155.761 85.2858 155.769C85.298 155.777 85.3117 155.783 85.3262 155.786L87.7387 156.267C87.7531 156.27 87.768 156.27 87.7825 156.268C87.797 156.265 87.8108 156.259 87.8231 156.251C87.8355 156.243 87.8461 156.233 87.8543 156.22C87.8625 156.208 87.8683 156.194 87.8712 156.18L89.2413 150.037ZM89.6178 158.083C89.5973 158.083 89.5769 158.087 89.5582 158.096C89.5394 158.104 89.5228 158.117 89.5095 158.132C89.4962 158.148 89.4865 158.167 89.4811 158.186C89.4757 158.206 89.4748 158.227 89.4784 158.247L89.6701 159.422C89.6758 159.454 89.6925 159.483 89.7174 159.504C89.7422 159.525 89.7736 159.537 89.8061 159.537L103.274 159.631C103.294 159.632 103.315 159.627 103.333 159.619C103.352 159.61 103.369 159.598 103.382 159.582C103.395 159.567 103.405 159.548 103.411 159.528C103.416 159.509 103.417 159.488 103.413 159.468L103.221 158.293C103.216 158.261 103.199 158.232 103.174 158.211C103.149 158.19 103.118 158.178 103.086 158.178L89.6178 158.083ZM141.595 165.816C142.309 165.614 142.824 165.834 143.14 166.475C145.42 171.11 147.64 175.657 149.799 180.117C150.531 181.627 151.392 183.119 152.068 184.67C152.543 185.756 153.064 186.889 153.634 188.069C155.693 192.344 157.717 196.546 159.707 200.676C159.709 200.683 159.714 200.684 159.721 200.679L159.801 200.645C159.855 200.619 159.869 200.579 159.843 200.526C156.863 193.828 153.932 187.03 151.05 180.134C148.899 174.989 146.567 169.933 144.266 164.857C143.747 163.717 143.422 162.194 144.21 161.092C144.331 160.925 144.29 160.86 144.088 160.897L140.41 161.552C140.308 161.571 140.243 161.631 140.215 161.734C140.107 162.145 140.086 162.532 139.957 162.961C138.479 167.795 137.126 172.13 135.899 175.965C135.634 176.798 135.379 177.67 135.718 178.534C135.989 179.231 136.209 179.931 136.376 180.633C136.382 180.655 136.393 180.675 136.408 180.691C136.423 180.707 136.442 180.719 136.464 180.726C136.485 180.733 136.507 180.735 136.529 180.731C136.551 180.727 136.572 180.717 136.589 180.703C136.712 180.603 136.801 180.471 136.854 180.309C138.012 176.66 139.231 172.924 140.511 169.1C140.846 168.1 141.052 167.071 141.348 166.057C141.385 165.931 141.468 165.851 141.595 165.816ZM128.508 201.875C127.849 200.052 126.775 198.26 125.489 196.733C124.431 195.482 123.757 194.638 123.467 194.198C120.21 189.283 117.181 184.398 114.099 179.503C111.168 174.85 108.298 170.036 105.488 165.06C105.052 164.286 104.783 163.501 104.459 162.675C104.418 162.569 104.346 162.478 104.252 162.413C104.158 162.349 104.047 162.313 103.933 162.312L89.3912 162.26C89.0589 162.258 88.9496 162.412 89.0635 162.724C89.3738 163.564 90.5557 164.575 91.2634 165.304C96.365 170.561 101.348 175.658 106.213 180.595C107.807 182.212 109.36 183.802 110.87 185.364C115.789 190.442 120.812 195.566 125.942 200.735C126.514 201.307 126.977 201.948 127.424 202.614C127.446 202.647 127.476 202.675 127.51 202.696C127.544 202.716 127.583 202.729 127.623 202.733C127.663 202.737 127.704 202.733 127.742 202.72C127.78 202.708 127.816 202.687 127.845 202.66L128.456 202.091C128.484 202.064 128.505 202.03 128.514 201.991C128.523 201.953 128.521 201.912 128.508 201.875ZM130.195 165.558C131.711 168.057 132.939 170.667 133.88 173.388C134.008 173.763 134.125 173.759 134.232 173.378C135.248 169.771 136.328 166.356 137.471 163.135C137.482 163.105 137.484 163.073 137.477 163.041C137.47 163.01 137.455 162.982 137.434 162.959C137.412 162.936 137.384 162.92 137.354 162.912C137.324 162.904 137.292 162.906 137.262 162.915L130.143 165.067C130.117 165.075 130.093 165.089 130.073 165.108C130.054 165.126 130.038 165.149 130.029 165.175C130.02 165.2 130.017 165.227 130.021 165.254C130.024 165.281 130.034 165.306 130.049 165.328C130.1 165.405 130.149 165.481 130.195 165.558ZM81.1007 183.732C81.3332 183.807 81.5435 183.903 81.7318 184.022C83.6353 185.207 85.4377 186.593 87.1391 188.181C91.5225 192.267 94.3546 197.263 95.6352 203.169C95.7793 203.836 95.9339 204.532 96.0989 205.257C96.2523 205.931 96.3988 207.8 96.5382 210.863C96.5835 211.905 96.1338 212.798 96.0571 213.837C96.006 214.518 95.9002 215.226 95.7398 215.96C93.01 228.375 82.0665 237.621 69.3344 238.077C62.5732 238.321 56.5128 236.569 51.1532 232.82C45.3496 228.759 41.4961 223.201 39.5925 216.145C39.2055 214.715 39.0731 213.192 38.7732 211.686C38.5919 210.772 38.6129 208.691 38.8848 207.425C39.1428 206.223 39.0765 205.023 39.3415 203.786C40.8034 196.955 44.1701 191.313 49.4414 186.86C52.8673 183.961 56.93 181.982 61.6296 180.922C62.4559 180.734 63.2682 180.724 64.1154 180.521C64.6569 180.391 65.2565 180.325 65.9143 180.323C67.6435 180.316 69.3251 180.359 70.959 180.452C71.1264 180.461 71.2019 180.382 71.1856 180.215C71.0183 178.447 71.468 177.764 73.2949 177.781C73.4947 177.781 73.6098 177.682 73.64 177.485L73.7411 176.798C73.7597 176.67 73.7074 176.592 73.5842 176.564C71.095 176.003 67.4378 175.853 64.4082 176.177C63.9829 176.224 63.1066 176.355 61.7795 176.571C55.1938 177.649 48.8139 181.055 44.0934 185.65C39.3543 190.259 36.2654 195.696 34.8267 201.962C34.7175 202.441 34.5943 202.899 34.4572 203.336C34.2991 203.838 34.2189 204.357 34.2166 204.894C34.2166 205.459 33.9307 205.933 33.9063 206.449C33.8273 207.923 33.7994 209.872 33.8227 212.296C33.8296 212.751 33.8935 213.17 34.0144 213.551C34.2933 214.422 34.2968 215.242 34.4816 216.099C34.7907 217.543 35.187 218.921 35.6704 220.234C39.2962 230.094 46.6314 237.22 56.5919 240.793C57.5855 241.149 58.6139 241.372 59.604 241.71C59.9596 241.831 60.3153 241.908 60.6709 241.94C61.5843 242.027 62.3827 242.324 63.2821 242.362C65.8806 242.469 68.486 242.503 71.0985 242.463C72.1409 242.449 73.0926 242.198 74.1072 242.069C75.002 241.958 75.8689 241.77 76.708 241.508C88.8892 237.694 97.0507 228.57 100.052 216.11C100.307 215.05 100.234 213.948 100.464 212.934C100.851 211.208 100.697 209.413 100.676 207.656C100.652 205.494 100.108 203.162 99.6166 201.042C98.9263 198.058 97.6457 194.986 95.7747 191.828C92.8043 186.812 88.7556 182.819 83.6283 179.849C82.9764 179.469 82.572 178.82 82.8474 178.036C83.3843 176.502 83.4993 174.912 83.9595 173.34C84.2965 172.184 84.5906 170.944 84.8416 169.62C84.9369 169.104 85.1216 168.625 85.3959 168.183C85.4674 168.069 85.5797 167.987 85.7097 167.953C86.6928 167.685 87.3866 168.257 88.0281 168.996C88.6277 169.686 89.2669 170.377 89.9456 171.07C100.725 182.047 111.524 193.057 122.341 204.099C122.377 204.136 122.422 204.163 122.472 204.177C122.522 204.192 122.575 204.194 122.626 204.183L124.777 203.712C124.809 203.706 124.837 203.69 124.861 203.669C124.884 203.647 124.901 203.619 124.91 203.588C124.919 203.558 124.919 203.525 124.911 203.494C124.903 203.463 124.887 203.435 124.865 203.413C124.463 203.022 124.073 202.635 123.697 202.252C110.602 188.948 98.293 176.346 86.7695 164.446C86.5813 164.251 86.4592 163.994 86.4035 163.675C86.3959 163.63 86.3719 163.59 86.336 163.561C86.3001 163.532 86.2547 163.517 86.2082 163.519L83.8863 163.644C83.8546 163.645 83.8238 163.654 83.7968 163.671C83.7698 163.688 83.7476 163.711 83.7322 163.739C83.7168 163.767 83.7088 163.799 83.7089 163.831C83.709 163.863 83.7173 163.895 83.7329 163.923C84.1164 164.599 83.6039 165.007 83.4575 165.624C83.0229 167.484 82.5743 169.374 82.1118 171.297C81.9479 171.98 81.9932 172.677 81.7039 173.336C81.3239 174.201 81.167 175.156 81.0659 176.094C80.9125 177.534 80.0165 178.566 78.4128 178.067C77.8434 177.89 77.2786 177.731 76.7184 177.589C76.6725 177.578 76.6243 177.579 76.5793 177.594C76.5344 177.609 76.4944 177.636 76.4642 177.673C76.4339 177.71 76.4146 177.754 76.4084 177.802C76.4022 177.85 76.4093 177.898 76.4291 177.942C76.8962 178.953 76.9729 179.996 76.6592 181.072C76.6399 181.137 76.635 181.205 76.6446 181.272C76.6543 181.339 76.6784 181.403 76.7152 181.46C76.7519 181.516 76.8006 181.564 76.8577 181.6C76.9149 181.636 76.9792 181.66 77.0461 181.668C77.6225 181.747 78.0886 181.994 78.4442 182.408C78.529 182.506 78.5717 182.632 78.5627 182.76C78.5395 183.139 78.4686 183.529 78.35 183.931C75.9398 192.187 73.5389 200.183 71.1473 207.92C71.0543 208.223 71.0183 208.545 71.0392 208.886C71.0485 209.002 71.1426 209.052 71.3216 209.036C71.3745 209.031 71.4247 209.011 71.4662 208.978C71.5076 208.945 71.5385 208.901 71.5552 208.851C73.8957 201.993 76.3454 194.898 78.9044 187.567C79.2739 186.507 79.8422 184.52 80.7242 183.806C80.8358 183.713 80.9613 183.688 81.1007 183.732ZM138.841 181.508C138.834 181.526 138.833 181.545 138.839 181.563C138.845 181.581 138.857 181.597 138.873 181.607C138.889 181.618 138.908 181.623 138.928 181.621C138.948 181.62 138.966 181.612 138.981 181.599C139.929 180.727 140.867 179.824 141.979 179.102C143.109 178.368 144.231 177.635 145.347 176.903C145.433 176.845 145.454 176.768 145.41 176.673C144.584 174.888 143.707 173.109 142.777 171.338C142.705 171.204 142.612 171.086 142.498 170.986C142.487 170.977 142.473 170.97 142.458 170.967C142.443 170.964 142.428 170.965 142.414 170.969C142.4 170.973 142.387 170.981 142.377 170.991C142.367 171.001 142.359 171.014 142.356 171.028C141.491 174.119 140.32 177.613 138.841 181.508ZM78.7253 174.889C78.7129 174.814 78.6644 174.749 78.5905 174.707C78.5166 174.665 78.4234 174.65 78.3312 174.665C78.2856 174.672 78.2416 174.687 78.2018 174.708C78.162 174.729 78.1272 174.756 78.0993 174.788C78.0713 174.82 78.0509 174.855 78.0391 174.892C78.0273 174.929 78.0244 174.967 78.0305 175.004C78.0429 175.079 78.0914 175.145 78.1653 175.187C78.2392 175.229 78.3325 175.244 78.4246 175.229C78.4702 175.221 78.5142 175.206 78.554 175.185C78.5938 175.164 78.6287 175.137 78.6566 175.106C78.6845 175.074 78.7049 175.039 78.7167 175.002C78.7285 174.964 78.7314 174.926 78.7253 174.889ZM191.907 207.206C192.165 208.45 192.067 211.166 191.732 212.815C191.598 213.48 191.472 214.156 191.356 214.844C191.158 216.002 190.879 217.117 190.519 218.191C187.019 228.647 177.592 236.379 166.641 237.509C164.959 237.683 162.773 237.705 160.084 237.575C159.198 237.53 158.483 237.289 157.64 237.188C157.047 237.118 156.464 237.003 155.889 236.843C147.406 234.472 141.161 229.601 137.154 222.228C137.104 222.135 137.03 222.056 136.94 221.999C136.849 221.942 136.745 221.91 136.638 221.904C135.006 221.825 133.348 221.554 131.663 221.092C131.643 221.087 131.622 221.087 131.603 221.093C131.583 221.1 131.566 221.111 131.553 221.127C131.54 221.143 131.531 221.162 131.528 221.182C131.526 221.202 131.529 221.223 131.537 221.242C132.569 223.428 133.591 225.614 134.926 227.646C138.306 232.794 142.736 236.697 148.216 239.353C151.563 240.976 154.491 241.973 157.002 242.344C159.014 242.644 162.29 242.742 166.83 242.637C167.29 242.628 167.746 242.593 168.2 242.533C169.273 242.39 170.271 242.358 171.344 242.052C173.155 241.538 174.712 241.015 176.016 240.483C185.262 236.711 191.642 229.93 195.156 220.14C195.613 218.864 195.836 217.497 196.191 216.166C196.488 215.053 196.456 213.941 196.673 212.826C196.819 212.066 196.887 211.258 196.878 210.403C196.857 208.541 196.797 207.183 196.697 206.327C195.069 192.591 186.492 181.867 173.576 177.171C172.042 176.613 170.504 176.369 168.97 175.93C168.384 175.766 167.795 175.822 167.196 175.675C166.782 175.578 166.364 175.51 165.941 175.473C161.322 175.083 156.932 175.615 152.769 177.07C152.583 177.133 152.531 177.254 152.612 177.433L154.303 181.194C154.323 181.236 154.357 181.269 154.399 181.286C154.441 181.304 154.488 181.305 154.53 181.288C155.104 181.072 155.686 180.903 156.276 180.779C156.96 180.636 157.629 180.696 158.302 180.501C158.746 180.37 159.229 180.29 159.752 180.26C162.797 180.093 164.741 180.065 165.585 180.176C174.554 181.355 181.612 185.57 186.757 192.821C188.775 195.668 190.248 198.964 191.178 202.708C191.537 204.155 191.596 205.714 191.907 207.206ZM138.388 186.452C139.009 187.94 139.403 189.673 139.633 191.137C139.651 191.26 139.651 191.384 139.633 191.507C139.616 191.63 139.623 191.753 139.654 191.876C139.707 192.093 139.799 192.111 139.929 191.932C142.356 188.617 145.092 185.911 148.645 183.788C148.754 183.721 148.781 183.63 148.725 183.516L146.86 179.559C146.85 179.538 146.835 179.519 146.818 179.503C146.8 179.487 146.78 179.475 146.758 179.467C146.736 179.459 146.713 179.456 146.689 179.458C146.666 179.459 146.644 179.465 146.623 179.476C143.841 180.856 141.257 183.129 139.096 185.294C138.847 185.545 138.622 185.82 138.419 186.117C138.35 186.222 138.339 186.333 138.388 186.452ZM163.43 224.174C163.458 224.478 163.451 224.779 163.409 225.077C163.349 225.502 163.104 225.704 162.674 225.683C161.255 225.614 159.885 225.223 158.49 225.07C157.468 224.958 156.404 224.833 155.3 224.693C153.982 224.529 152.773 224.174 151.434 224.212C150.869 224.228 150.324 224.157 149.799 223.999C149.169 223.811 148.489 223.725 147.759 223.741C146.717 223.762 145.863 223.243 144.803 223.292C143.461 223.358 142.024 222.859 140.71 222.643C140.522 222.613 140.48 222.678 140.584 222.838C144.468 228.682 149.879 232.363 156.52 234.249C157.267 234.462 157.992 234.521 158.741 234.709C159.264 234.842 159.828 234.922 160.432 234.95C163.526 235.094 165.739 235.058 167.074 234.842C173.114 233.854 178.143 231.254 182.159 227.043C185.171 223.884 187.299 220.074 188.542 215.611C188.797 214.698 188.821 213.76 189.034 212.847C189.192 212.173 189.284 211.488 189.309 210.793C189.599 202.443 186.137 194.54 179.823 189.129C174.566 184.627 168.39 182.512 161.297 182.784C159.284 182.861 157.334 183.18 155.447 183.743C155.324 183.78 155.287 183.857 155.339 183.973C158.5 191.327 161.726 198.738 165.017 206.205C165.17 206.549 165.215 206.907 165.153 207.279C165.129 207.416 165.062 207.541 164.961 207.636C164.861 207.731 164.732 207.791 164.595 207.805L147.369 209.688C147.236 209.702 147.189 209.773 147.226 209.901C147.508 210.863 148.077 211.693 148.185 212.707C148.457 215.257 147.52 217.105 145.375 218.25C144.708 218.608 143.9 218.821 142.952 218.888C141.515 218.988 140.265 218.97 139.2 218.833C138.06 218.686 137.06 218.937 135.92 218.819C134.432 218.668 132.79 218.547 130.994 218.456C130.972 218.455 130.951 218.459 130.931 218.468C130.911 218.476 130.894 218.489 130.88 218.505C130.865 218.521 130.855 218.54 130.848 218.56C130.842 218.581 130.841 218.602 130.844 218.624L130.861 218.725C130.891 218.922 131.006 219.023 131.206 219.028C132.81 219.063 134.243 219.526 135.843 219.642C136.578 219.693 137.299 219.82 138.008 220.025C138.615 220.203 139.274 220.112 139.901 220.29C141.47 220.733 143.011 220.74 144.587 221.005C145.542 221.167 146.532 221.296 147.557 221.392C148.471 221.479 149.269 221.834 150.175 221.852C150.854 221.863 151.513 221.943 152.152 222.089C153.362 222.368 154.617 222.207 155.837 222.5C157.106 222.807 158.372 222.737 159.644 223.037C160.667 223.281 161.708 223.444 162.768 223.525C163.172 223.556 163.393 223.772 163.43 224.174ZM68.529 208.36C68.8219 207.293 69.1252 206.27 69.439 205.292C69.7899 204.199 70.1084 203.185 70.3942 202.248C71.8771 197.395 73.3774 192.414 74.8951 187.306C75.1554 186.425 75.3983 185.486 75.6237 184.489C75.6374 184.428 75.6279 184.363 75.5971 184.308C75.5663 184.253 75.5163 184.211 75.4564 184.189C74.6847 183.919 73.8817 183.77 73.0473 183.739C72.5697 183.722 72.235 183.471 71.7992 183.38C62.7069 181.491 53.0637 185.629 47.3705 192.765C43.847 197.184 41.854 202.396 41.3915 208.402C41.2706 209.95 41.3403 211.3 41.6007 212.453C41.8586 213.603 41.9876 214.75 42.3014 215.883C43.5449 220.334 45.7564 224.174 48.9359 227.402C54.3304 232.878 61.0822 235.603 69.1914 235.578C70.0944 235.574 70.9346 235.225 71.855 235.184C73.2565 235.117 74.6998 234.57 76.0595 234.2C76.8033 233.996 77.5377 233.733 78.2629 233.413C86.8183 229.626 92.4243 221.939 93.6167 212.725C93.7468 211.728 93.8049 210.671 93.791 209.556C93.7747 208.11 93.7131 207.038 93.6062 206.341C92.3674 198.253 88.4918 191.908 81.9793 187.306C81.7539 187.145 81.5946 187.195 81.5017 187.456C78.8311 194.935 76.3059 202.228 73.9259 209.336C73.0508 211.944 69.8992 212.425 68.5779 209.862C68.378 209.477 68.3617 208.976 68.529 208.36ZM149.726 206.902C150.565 206.963 151.372 206.89 152.149 206.683C153.766 206.251 155.398 206.613 157.04 206.174C157.751 205.986 158.518 205.947 159.341 206.059C159.384 206.065 159.429 206.059 159.469 206.041C159.509 206.024 159.544 205.995 159.569 205.958C159.593 205.922 159.608 205.879 159.61 205.835C159.612 205.79 159.603 205.746 159.581 205.707C159.299 205.191 158.971 204.755 158.71 204.225C156.056 198.814 153.401 193.278 150.747 187.616C150.531 187.156 150.296 186.688 150.043 186.211C150.032 186.189 150.015 186.169 149.996 186.153C149.976 186.137 149.953 186.125 149.929 186.119C149.904 186.112 149.878 186.111 149.853 186.115C149.828 186.119 149.803 186.128 149.781 186.141C146.258 188.356 143.397 191.199 141.198 194.669C140.958 195.052 140.738 195.575 140.867 196.039C141.027 196.609 141.181 197.165 141.327 197.709C141.387 197.937 141.519 198.112 141.721 198.235C145.131 200.348 145.87 203.416 146.689 207.056C146.705 207.122 146.744 207.181 146.8 207.22C146.856 207.259 146.925 207.276 146.992 207.269C147.909 207.16 148.795 206.836 149.726 206.902ZM129.31 198.002C129.298 198.007 129.288 198.015 129.28 198.025C129.271 198.035 129.265 198.046 129.262 198.058C129.259 198.071 129.258 198.083 129.26 198.096C129.263 198.109 129.268 198.12 129.275 198.131C129.761 198.835 130.172 199.615 130.509 200.47C130.574 200.633 130.684 200.677 130.84 200.603C133.58 199.313 135.93 198.228 138.876 198.263C139.02 198.266 139.067 198.198 139.016 198.061C138.583 196.901 138.27 195.743 138.074 194.585C138.071 194.566 138.063 194.547 138.052 194.53C138.04 194.514 138.026 194.5 138.008 194.49C137.991 194.48 137.972 194.473 137.952 194.471C137.932 194.469 137.912 194.471 137.893 194.477C135.057 195.479 132.196 196.654 129.31 198.002ZM128.079 215.552C129.822 216.012 131.897 215.632 133.577 215.918C135.948 216.323 138.339 216.333 140.755 216.347C142.763 216.357 145.427 216.305 145.556 213.75C145.6 212.859 145.469 212.034 145.162 211.274C144.078 208.572 143.991 205.63 142.68 202.935C141.093 199.668 136.561 200.746 133.852 201.91C132.622 202.44 131.53 203.224 130.397 203.911C129.61 204.39 128.714 204.822 127.709 205.208C124.53 206.431 121.383 207.422 118.268 208.182C116.724 208.558 115.148 208.959 113.701 209.531C112.404 210.044 110.117 212.268 112.174 213.596C113.276 214.307 114.496 214.307 115.734 214.562C116.354 214.69 116.961 214.769 117.554 214.799C119.363 214.89 121.113 215.252 122.958 215.256C124.652 215.263 126.465 215.123 128.079 215.552Z" fill="#181C20"/>
<path d="M123.606 75.0635C125.601 74.5371 127.759 72.0722 127.201 69.8096C127.166 69.6702 127.218 69.6121 127.358 69.6353C128.597 69.8445 129.975 69.9235 131.493 69.8724C131.527 69.8716 131.56 69.8794 131.59 69.8948C131.621 69.9103 131.647 69.933 131.666 69.961C131.685 69.989 131.698 70.0214 131.701 70.0552C131.705 70.089 131.7 70.1232 131.688 70.1548C131.444 70.7683 131.004 71.2181 130.468 71.5807C128.634 72.8102 126.937 74.1048 125.378 75.4644C125.011 75.7817 124.558 75.9421 124.192 76.2419C120.318 79.4121 116.313 82.6184 112.178 85.8607C111.802 86.1558 111.382 86.322 110.92 86.3592C109.941 86.4359 108.909 86.3464 107.824 86.0908C105.593 85.5678 104.303 83.9432 103.375 81.9211C102.333 79.655 102.068 77.4795 102.79 75.0356C103.357 73.1205 103.82 70.9287 104.181 68.4604C104.225 68.1536 104.242 67.8433 104.233 67.5295C104.232 67.5085 104.235 67.4876 104.243 67.4679C104.251 67.4483 104.262 67.4304 104.278 67.4153C104.293 67.4003 104.311 67.3884 104.33 67.3805C104.35 67.3725 104.372 67.3687 104.393 67.3692C105.607 67.418 106.718 67.6051 107.726 67.9305C108.175 68.0746 108.637 68.1594 109.114 68.185C109.731 68.2233 110.369 68.1571 110.955 68.4011C112.105 68.8892 113.231 68.6591 114.406 69.0147C115.122 69.2309 115.894 69.3506 116.721 69.3738C117.178 69.3843 117.526 69.6946 117.701 70.099C118.712 72.4244 120.35 75.9246 123.606 75.0635ZM109.257 72.902C109.257 72.4554 109.079 72.0271 108.764 71.7113C108.448 71.3955 108.019 71.2181 107.573 71.2181C107.126 71.2181 106.698 71.3955 106.382 71.7113C106.066 72.0271 105.889 72.4554 105.889 72.902C105.889 73.3486 106.066 73.7769 106.382 74.0927C106.698 74.4085 107.126 74.5859 107.573 74.5859C108.019 74.5859 108.448 74.4085 108.764 74.0927C109.079 73.7769 109.257 73.3486 109.257 72.902ZM107.54 81.1607C107.544 81.0472 107.5 80.933 107.408 80.8245C107.317 80.716 107.181 80.6154 107.008 80.5284C106.836 80.4414 106.629 80.3698 106.401 80.3175C106.173 80.2653 105.927 80.2335 105.678 80.2239C105.429 80.2143 105.182 80.2272 104.95 80.2618C104.719 80.2964 104.507 80.352 104.328 80.4255C104.149 80.4989 104.006 80.5888 103.907 80.69C103.807 80.7912 103.754 80.9016 103.75 81.0151C103.745 81.1285 103.79 81.2428 103.881 81.3513C103.972 81.4597 104.108 81.5603 104.281 81.6473C104.454 81.7343 104.661 81.806 104.889 81.8582C105.117 81.9105 105.363 81.9423 105.612 81.9519C105.861 81.9614 106.108 81.9485 106.339 81.9139C106.571 81.8794 106.782 81.8238 106.962 81.7503C107.141 81.6768 107.284 81.5869 107.383 81.4858C107.482 81.3846 107.536 81.2741 107.54 81.1607Z" fill="#F7F9FF"/>
<path d="M122.531 72.7415C121.182 72.1419 120.697 70.5452 120.22 69.2064C120.212 69.1849 120.209 69.162 120.212 69.1394C120.214 69.1167 120.222 69.0951 120.234 69.0761C120.246 69.0571 120.263 69.0414 120.282 69.0301C120.301 69.0189 120.323 69.0124 120.345 69.0112C121.597 68.931 124.63 69.053 124.731 70.8101C124.787 71.7445 123.56 73.1983 122.531 72.7415Z" fill="#F7F9FF"/>
<path d="M123.923 83.4516C120.816 87.1889 118.027 91.1773 115.057 95.0611C115.042 95.0798 115.024 95.0946 115.002 95.1044C114.98 95.1142 114.957 95.1186 114.933 95.1172C114.909 95.1158 114.886 95.1087 114.866 95.0965C114.846 95.0843 114.829 95.0674 114.816 95.0471C114.338 94.2546 113.868 93.4423 113.408 92.6102C112.509 90.9751 112.624 88.6706 114.196 87.4818C116.513 85.7317 118.83 83.9025 121.148 81.9943C126.213 77.8212 131.213 73.7701 136.704 70.4197C137.188 70.1234 137.687 70.0502 138.21 70.3256C139.374 70.9392 140.308 71.7631 141.013 72.7974C141.734 73.8607 142.533 74.931 142.63 76.2628C142.633 76.3018 142.627 76.3409 142.611 76.3767C142.595 76.4125 142.571 76.444 142.54 76.4683C142.51 76.4927 142.474 76.5093 142.436 76.5166C142.397 76.5239 142.357 76.5218 142.32 76.5103C140.651 75.9851 138.749 75.7735 136.613 75.8758C134.9 75.9595 133.32 76.3395 131.872 77.0158C128.723 78.4836 126.192 80.7253 123.923 83.4516Z" fill="#FCFCFF"/>
<path d="M107.575 74.5858C108.505 74.5858 109.258 73.8319 109.258 72.9019C109.258 71.9719 108.505 71.218 107.575 71.218C106.645 71.218 105.891 71.9719 105.891 72.9019C105.891 73.8319 106.645 74.5858 107.575 74.5858Z" fill="#181C20"/>
<path d="M142.629 96.2253C141.56 95.6071 140.757 95.8732 140.22 97.0237C139.815 97.8953 139.477 98.7738 138.972 99.5896C134.533 106.719 128.854 112.552 122.663 118.778C116.183 125.298 110.264 131.057 104.907 136.057C102.832 137.995 100.343 140.003 97.6132 140.822C97.5575 140.839 97.4975 140.836 97.444 140.813C97.3904 140.79 97.3466 140.749 97.3204 140.697C95.4761 137.165 92.8265 134.554 89.6365 132.117C89.518 132.026 89.4866 131.913 89.5424 131.775C90.8567 128.589 92.6383 125.999 94.988 123.196C97.045 120.737 99.0485 118.324 100.998 115.958C102.267 114.417 103.976 112.639 105.325 110.934C106.221 109.801 107.204 108.794 108.125 107.685C109.77 105.701 111.468 103.822 113.065 101.8C116.973 96.8494 120.881 91.8116 124.807 86.4322C125.488 85.5026 126.783 84.1255 128.694 82.3009C130.876 80.2161 133.586 78.9366 136.824 78.4625C137.512 78.3626 138.173 78.3916 138.808 78.5497C139.739 78.7797 140.673 78.7484 141.625 79.0447C143.656 79.6723 145.539 80.7867 147.273 82.3881C151.867 86.6344 155.716 90.8599 159.496 95.4165C164.992 102.05 169.759 109.199 173.796 116.864C174.658 118.503 175.334 120.142 176.042 121.836C176.355 122.589 176.63 123.577 176.864 124.799C177.336 127.265 176.641 129.251 174.78 130.757C174.501 130.983 174.207 131.122 173.898 131.176C172.691 131.385 171.433 131.664 170.213 131.681C166.759 131.725 163.41 131.864 160.165 132.096C158.419 132.222 156.675 132.359 154.932 132.508C152.401 132.719 149.321 133.175 145.693 133.874C143.464 134.302 141.271 134.596 139.114 134.756C135.454 135.032 131.567 134.707 128.774 132.131C125.758 129.356 124.58 125.8 123.656 121.885C123.628 121.764 123.658 121.658 123.747 121.567C129.471 115.846 132.912 112.203 136.685 107.626C138.999 104.823 141.089 101.751 142.953 98.4113C143.048 98.2369 143.08 98.0057 143.047 97.7175C142.991 97.2399 143.127 96.5112 142.629 96.2253ZM109.77 128.15C115.174 123.148 119.955 118.423 124.113 113.974C126.456 111.471 128.872 108.627 131.361 105.443C132.955 103.405 134.315 101.441 135.44 99.5513C135.77 98.9958 135.692 98.4043 135.206 97.7768C135.139 97.6884 135.049 97.6327 134.938 97.6094C134.285 97.4676 133.819 97.6187 133.54 98.0626C132.633 99.5013 131.703 100.869 130.747 102.166C127.726 106.268 124.128 110.46 119.954 114.741C115.927 118.869 111.834 122.927 107.378 127.038C106.686 127.677 104.981 129.165 102.264 131.503C101.955 131.768 101.903 132.217 102.107 132.849C102.151 132.982 102.228 133.093 102.337 133.184C102.923 133.663 103.509 133.663 104.094 133.184C105.496 132.033 107.388 130.355 109.77 128.15ZM170.337 125.846C170.324 125.703 170.283 125.564 170.216 125.438C170.15 125.311 170.059 125.198 169.949 125.106C169.838 125.015 169.711 124.946 169.575 124.903C169.438 124.86 169.294 124.845 169.151 124.858L166.221 125.125C166.078 125.138 165.939 125.179 165.812 125.245C165.686 125.312 165.573 125.403 165.481 125.513C165.39 125.623 165.32 125.75 165.278 125.887C165.235 126.024 165.22 126.168 165.233 126.31L165.514 129.4C165.527 129.543 165.568 129.682 165.635 129.809C165.701 129.936 165.792 130.048 165.902 130.14C166.013 130.232 166.14 130.301 166.276 130.343C166.413 130.386 166.557 130.401 166.7 130.388L169.63 130.122C169.773 130.109 169.912 130.068 170.039 130.001C170.165 129.934 170.278 129.843 170.37 129.733C170.461 129.623 170.531 129.496 170.573 129.359C170.616 129.223 170.631 129.079 170.618 128.936L170.337 125.846Z" fill="#FCFCFF"/>
<path d="M105.618 81.9518C106.665 81.992 107.528 81.6377 107.546 81.1606C107.565 80.6834 106.731 80.264 105.684 80.2238C104.638 80.1836 103.774 80.5378 103.756 81.015C103.738 81.4921 104.571 81.9115 105.618 81.9518Z" fill="#181C20"/>
<path d="M80.1579 128.104C81.0748 126.776 81.7756 125.497 82.933 124.276C87.5803 119.378 91.9487 115.093 96.7738 110.491C98.1567 109.176 99.5593 107.748 100.982 106.207C102.76 104.279 104.674 102.375 106.354 100.315C108.016 98.2788 109.609 96.2393 111.134 94.1963C111.147 94.1791 111.164 94.1657 111.184 94.1576C111.204 94.1494 111.226 94.1468 111.248 94.15C111.269 94.1532 111.29 94.1621 111.307 94.1757C111.325 94.1894 111.338 94.2073 111.347 94.2277C111.76 95.2945 112.323 96.2847 113.034 97.1981C113.072 97.2466 113.092 97.3064 113.091 97.3678C113.091 97.4292 113.069 97.4885 113.031 97.5362C109.221 102.196 105.09 107.107 100.637 112.269C96.8365 116.676 93.7012 120.461 91.2305 123.624C89.6826 125.605 87.528 128.711 87.3642 131.273C87.3049 132.176 86.5588 133.02 85.9696 133.627C85.9508 133.647 85.9278 133.662 85.9022 133.672C85.8766 133.682 85.8491 133.686 85.8217 133.684C85.7943 133.682 85.7678 133.674 85.7439 133.661C85.72 133.647 85.6995 133.628 85.6838 133.606C84.9679 132.597 84.1323 131.638 83.1771 130.73C82.2776 129.875 81.2317 129.23 80.2277 128.502C80.0766 128.39 80.0533 128.258 80.1579 128.104Z" fill="#FCFCFF"/>
<path d="M109.769 128.15C107.387 130.356 105.495 132.034 104.094 133.184C103.508 133.663 102.922 133.663 102.337 133.184C102.227 133.093 102.151 132.982 102.107 132.849C101.902 132.217 101.954 131.769 102.263 131.504C104.98 129.166 106.685 127.677 107.378 127.038C111.833 122.927 115.926 118.869 119.953 114.741C124.127 110.46 127.725 106.268 130.747 102.166C131.702 100.869 132.633 99.5015 133.539 98.0628C133.818 97.6189 134.284 97.4678 134.937 97.6096C135.049 97.6328 135.138 97.6886 135.206 97.7769C135.691 98.4045 135.769 98.996 135.439 99.5515C134.314 101.441 132.955 103.405 131.36 105.443C128.871 108.628 126.455 111.471 124.112 113.974C119.954 118.423 115.173 123.148 109.769 128.15Z" fill="#181C20"/>
<path d="M170.624 128.936C170.637 129.079 170.622 129.223 170.579 129.36C170.536 129.496 170.467 129.623 170.376 129.734C170.284 129.844 170.171 129.935 170.044 130.001C169.918 130.068 169.779 130.109 169.636 130.122L166.706 130.388C166.563 130.401 166.419 130.386 166.282 130.344C166.145 130.301 166.018 130.232 165.908 130.14C165.798 130.048 165.707 129.936 165.641 129.809C165.574 129.682 165.533 129.543 165.52 129.401L165.239 126.311C165.226 126.168 165.241 126.024 165.284 125.887C165.326 125.75 165.396 125.623 165.487 125.513C165.579 125.403 165.691 125.312 165.818 125.246C165.945 125.179 166.084 125.138 166.227 125.125L169.157 124.858C169.3 124.845 169.444 124.861 169.58 124.903C169.717 124.946 169.844 125.015 169.954 125.107C170.065 125.198 170.155 125.311 170.222 125.438C170.289 125.565 170.33 125.703 170.343 125.846L170.624 128.936ZM169.133 126.935C169.139 126.859 169.111 126.781 169.049 126.706C168.988 126.63 168.895 126.559 168.775 126.495C168.655 126.431 168.511 126.377 168.351 126.334C168.191 126.292 168.018 126.263 167.843 126.248C167.488 126.219 167.143 126.252 166.883 126.339C166.623 126.427 166.47 126.562 166.458 126.715C166.451 126.791 166.48 126.869 166.541 126.944C166.603 127.02 166.696 127.091 166.816 127.155C166.936 127.219 167.08 127.273 167.24 127.316C167.4 127.358 167.572 127.387 167.748 127.402C168.103 127.431 168.448 127.398 168.708 127.311C168.968 127.223 169.121 127.088 169.133 126.935ZM169.152 128.515C169.147 128.439 169.112 128.367 169.054 128.316C168.997 128.266 168.922 128.24 168.845 128.245L166.855 128.37C166.778 128.375 166.707 128.41 166.656 128.467C166.605 128.525 166.579 128.6 166.584 128.677L166.585 128.698C166.59 128.774 166.625 128.846 166.683 128.897C166.74 128.947 166.816 128.973 166.892 128.968L168.883 128.843C168.959 128.838 169.031 128.803 169.081 128.746C169.132 128.688 169.158 128.613 169.153 128.536L169.152 128.515Z" fill="#181C20"/>
<path d="M167.751 127.402C168.489 127.462 169.11 127.253 169.136 126.935C169.162 126.616 168.584 126.309 167.846 126.248C167.107 126.187 166.487 126.396 166.46 126.715C166.434 127.034 167.012 127.341 167.751 127.402Z" fill="#F7F9FF"/>
<path d="M168.842 128.245L166.851 128.37C166.692 128.38 166.571 128.517 166.581 128.677L166.582 128.698C166.592 128.857 166.729 128.978 166.889 128.968L168.879 128.843C169.039 128.833 169.16 128.696 169.15 128.536L169.149 128.515C169.138 128.356 169.001 128.235 168.842 128.245Z" fill="#F7F9FF"/>
<path d="M79.2159 131.151C79.2785 131.083 79.364 131.039 79.4561 131.03C79.5481 131.02 79.6402 131.045 79.7145 131.099C81.188 132.164 82.5349 133.465 83.7551 135.004C83.7833 135.04 83.802 135.082 83.8095 135.127C83.817 135.172 83.8131 135.218 83.7982 135.261C83.7833 135.304 83.7578 135.343 83.7241 135.373C83.6904 135.404 83.6495 135.425 83.6052 135.436C83.0404 135.571 82.4861 135.497 81.9423 135.213C80.4571 134.444 79.0323 133.807 77.668 133.303C77.6381 133.292 77.6113 133.273 77.5899 133.25C77.5684 133.226 77.5531 133.198 77.5452 133.167C77.5373 133.137 77.537 133.105 77.5445 133.074C77.5519 133.044 77.5668 133.016 77.5878 132.992L79.2159 131.151Z" fill="#FCFCFF"/>
<path d="M86.6537 136.416C86.6117 136.368 86.5903 136.305 86.5942 136.241C86.5981 136.177 86.627 136.117 86.6746 136.074L88.1563 134.767C88.3592 134.589 88.8049 134.703 89.3952 135.084C89.9856 135.465 90.6724 136.082 91.3045 136.799L92.957 138.675C93.2702 139.03 93.5605 139.399 93.8115 139.761C94.0625 140.123 94.2691 140.471 94.4197 140.785C94.5702 141.098 94.6617 141.372 94.6889 141.59C94.7161 141.807 94.6784 141.965 94.5781 142.053L93.0999 143.357C93.0759 143.378 93.0479 143.395 93.0176 143.405C92.9872 143.416 92.9551 143.42 92.923 143.418C92.8909 143.416 92.8596 143.408 92.8307 143.394C92.8018 143.38 92.776 143.36 92.7548 143.336L86.6537 136.416Z" fill="#FCFCFF"/>
<path d="M62.9218 141.44C63.1066 141.91 63.4099 142.402 63.7899 142.744C63.9503 142.89 63.9561 143.042 63.8074 143.2C61.704 145.459 60.8661 148.286 61.2937 151.679C61.5052 153.378 62.2722 154.917 63.5947 156.295C65.6098 158.397 68.5244 159.203 71.4146 159.746C72.3698 159.928 75.4169 161.134 74.3012 162.685C73.9317 163.201 73.1995 163.226 72.6522 163.139C71.3111 162.929 69.2693 162.367 66.5267 161.451C61.174 159.662 58.3954 155.903 58.1909 150.176C58.1456 148.918 58.5639 147.834 58.8184 146.634C58.944 146.042 59.1648 145.466 59.4808 144.909C60.2897 143.493 60.9939 142.179 62.4268 141.276C62.469 141.249 62.5165 141.232 62.566 141.226C62.6154 141.22 62.6656 141.225 62.7129 141.241C62.7602 141.257 62.8035 141.283 62.8396 141.317C62.8757 141.351 62.9038 141.393 62.9218 141.44Z" fill="#E4EAF1"/>
<path d="M67.6058 146.725C67.041 148.625 67.1351 150.867 67.5953 152.732C67.9091 154.022 68.7319 155.256 69.4013 156.431C69.5105 156.621 69.4605 156.684 69.2513 156.619C66.525 155.758 64.238 154.175 63.8057 151.236C63.3804 148.328 64.3077 146.425 66.0335 144.243C66.5843 143.545 67.6302 143.605 68.4042 143.615C68.4287 143.615 68.4528 143.621 68.4745 143.633C68.4962 143.644 68.5149 143.661 68.5289 143.681C68.5429 143.701 68.5518 143.724 68.555 143.749C68.5582 143.773 68.5555 143.798 68.5471 143.821C68.2194 144.755 67.9056 145.723 67.6058 146.725Z" fill="#F7F9FF"/>
<path d="M72.1914 148.586C72.798 154.328 76.6887 157.159 82.2494 157.696C83.4278 157.808 84.4702 158.251 85.6242 158.477C86.5585 158.665 87.2 159.244 87.1686 160.262C87.1647 160.411 87.1106 160.555 87.0151 160.669C86.9196 160.784 86.7882 160.863 86.6422 160.893C86.0007 161.026 85.3465 161.073 84.6794 161.036C78.906 160.708 72.8294 158.683 70.3611 152.983C69.4058 150.772 69.6219 149.399 69.9043 147.248C69.9229 147.108 70.0008 147.055 70.1379 147.087L72.1147 147.551C72.3146 147.598 72.3773 147.717 72.3029 147.91C72.2076 148.159 72.1705 148.384 72.1914 148.586Z" fill="#E4EAF1"/>
<path d="M83.9868 150.901L82.9862 155.015C82.976 155.057 82.9568 155.096 82.93 155.13C82.9031 155.164 82.8693 155.192 82.8307 155.212C82.7921 155.231 82.7496 155.243 82.7061 155.245C82.6626 155.247 82.619 155.24 82.5783 155.224C81.9578 154.98 81.3151 154.81 80.6504 154.712C78.6946 154.423 77.0072 153.492 75.8114 151.857C75.2013 151.02 75.0095 149.817 74.7341 148.827C74.669 148.595 74.7411 148.539 74.9503 148.66C75.6405 149.061 76.3273 149.455 77.1153 149.653C78.3041 149.957 79.4232 150.466 80.6225 150.636C81.7823 150.799 82.8828 150.862 83.9241 150.825C83.9336 150.824 83.9431 150.826 83.9518 150.83C83.9605 150.834 83.9681 150.84 83.9742 150.848C83.9803 150.855 83.9845 150.864 83.9867 150.873C83.9889 150.882 83.9889 150.892 83.9868 150.901Z" fill="#F7F9FF"/>
<path d="M89.2469 150.037L87.8768 156.18C87.8739 156.194 87.8681 156.208 87.8599 156.22C87.8516 156.233 87.8411 156.243 87.8287 156.251C87.8164 156.259 87.8026 156.265 87.7881 156.268C87.7736 156.27 87.7587 156.27 87.7443 156.267L85.3318 155.786C85.3173 155.783 85.3036 155.777 85.2913 155.769C85.2791 155.761 85.2687 155.75 85.2606 155.738C85.2524 155.726 85.2469 155.712 85.2441 155.697C85.2414 155.683 85.2416 155.668 85.2446 155.653L86.3777 150.902C86.382 150.883 86.391 150.866 86.4039 150.852C86.4167 150.838 86.4329 150.827 86.4509 150.821L89.1005 149.908C89.1192 149.901 89.1394 149.9 89.159 149.903C89.1786 149.907 89.1967 149.916 89.2117 149.929C89.2266 149.943 89.2378 149.959 89.244 149.978C89.2502 149.997 89.2512 150.018 89.2469 150.037Z" fill="#E4EAF1"/>
<path d="M89.626 158.083L103.094 158.178C103.126 158.178 103.158 158.19 103.182 158.211C103.207 158.232 103.224 158.261 103.23 158.293L103.421 159.467C103.425 159.488 103.424 159.509 103.419 159.528C103.413 159.548 103.404 159.567 103.39 159.582C103.377 159.598 103.36 159.61 103.342 159.619C103.323 159.627 103.302 159.632 103.282 159.631L89.8142 159.537C89.7817 159.537 89.7503 159.525 89.7255 159.504C89.7007 159.483 89.684 159.454 89.6783 159.422L89.4865 158.247C89.4829 158.227 89.4839 158.206 89.4892 158.186C89.4946 158.167 89.5043 158.148 89.5176 158.132C89.531 158.117 89.5476 158.104 89.5663 158.096C89.585 158.087 89.6054 158.083 89.626 158.083Z" fill="#E4EAF1"/>
<path d="M141.347 166.056C141.051 167.071 140.845 168.099 140.511 169.1C139.23 172.923 138.011 176.66 136.854 180.309C136.8 180.471 136.712 180.603 136.589 180.703C136.571 180.717 136.551 180.726 136.529 180.731C136.507 180.735 136.484 180.733 136.463 180.726C136.442 180.719 136.423 180.707 136.407 180.691C136.392 180.674 136.381 180.654 136.376 180.633C136.209 179.931 135.989 179.231 135.717 178.534C135.379 177.669 135.633 176.798 135.898 175.965C137.125 172.13 138.478 167.795 139.956 162.961C140.085 162.532 140.106 162.145 140.214 161.733C140.242 161.631 140.307 161.571 140.41 161.552L144.088 160.897C144.29 160.86 144.331 160.925 144.21 161.092C143.422 162.194 143.746 163.717 144.265 164.857C146.566 169.933 148.899 174.988 151.05 180.134C153.932 187.03 156.863 193.827 159.842 200.526C159.868 200.579 159.854 200.619 159.801 200.644L159.72 200.679C159.713 200.684 159.709 200.683 159.706 200.676C157.717 196.546 155.692 192.343 153.633 188.069C153.064 186.888 152.542 185.755 152.068 184.67C151.392 183.119 150.53 181.626 149.798 180.117C147.639 175.657 145.419 171.109 143.139 166.475C142.823 165.833 142.308 165.614 141.595 165.816C141.467 165.851 141.385 165.931 141.347 166.056Z" fill="#E4EAF1"/>
<path d="M80.7298 183.806C79.8478 184.52 79.2795 186.508 78.9099 187.567C76.351 194.898 73.9012 201.993 71.5608 208.851C71.5441 208.901 71.5132 208.945 71.4717 208.978C71.4303 209.011 71.3801 209.031 71.3272 209.036C71.1482 209.052 71.0541 209.002 71.0448 208.886C71.0239 208.545 71.0599 208.223 71.1529 207.921C73.5445 200.183 75.9454 192.187 78.3556 183.931C78.4742 183.529 78.545 183.139 78.5683 182.76C78.5772 182.632 78.5346 182.506 78.4497 182.408C78.0941 181.994 77.6281 181.748 77.0517 181.668C76.9847 181.66 76.9205 181.636 76.8633 181.6C76.8062 181.564 76.7575 181.516 76.7207 181.46C76.684 181.403 76.6599 181.339 76.6502 181.272C76.6406 181.205 76.6455 181.137 76.6647 181.072C76.9785 179.996 76.9018 178.953 76.4347 177.942C76.4149 177.898 76.4078 177.85 76.414 177.802C76.4202 177.755 76.4395 177.71 76.4698 177.673C76.5 177.636 76.5399 177.609 76.5849 177.594C76.6299 177.579 76.6781 177.578 76.724 177.589C77.2842 177.731 77.8489 177.89 78.4184 178.067C80.0221 178.566 80.9181 177.534 81.0715 176.094C81.1726 175.156 81.3295 174.201 81.7095 173.336C81.9988 172.677 81.9535 171.98 82.1174 171.297C82.5799 169.375 83.0285 167.484 83.4631 165.624C83.6095 165.007 84.122 164.599 83.7385 163.923C83.7229 163.895 83.7146 163.863 83.7145 163.831C83.7144 163.799 83.7224 163.767 83.7378 163.739C83.7532 163.711 83.7754 163.688 83.8024 163.671C83.8294 163.654 83.8602 163.645 83.8919 163.644L86.2138 163.519C86.2603 163.517 86.3057 163.532 86.3416 163.561C86.3775 163.59 86.4015 163.631 86.409 163.676C86.4648 163.994 86.5868 164.251 86.7751 164.446C98.2986 176.346 110.608 188.948 123.702 202.252C124.079 202.635 124.468 203.022 124.87 203.413C124.893 203.435 124.909 203.463 124.917 203.494C124.925 203.525 124.925 203.558 124.916 203.589C124.907 203.619 124.89 203.647 124.866 203.669C124.843 203.691 124.814 203.706 124.783 203.713L122.632 204.183C122.581 204.194 122.528 204.192 122.478 204.177C122.428 204.163 122.383 204.136 122.346 204.1C111.529 193.057 100.731 182.047 89.9511 171.07C89.2725 170.377 88.6333 169.686 88.0337 168.996C87.3922 168.257 86.6984 167.685 85.7153 167.953C85.5853 167.987 85.473 168.069 85.4015 168.183C85.1272 168.625 84.9425 169.104 84.8472 169.62C84.5961 170.945 84.3021 172.185 83.9651 173.34C83.5049 174.912 83.3899 176.502 82.853 178.036C82.5776 178.82 82.982 179.469 83.6339 179.849C88.7611 182.819 92.8099 186.812 95.7803 191.828C97.6513 194.986 98.9319 198.058 99.6222 201.042C100.114 203.162 100.658 205.494 100.682 207.656C100.703 209.413 100.856 211.208 100.469 212.934C100.239 213.948 100.313 215.05 100.058 216.11C97.0563 228.57 88.8948 237.694 76.7136 241.508C75.8745 241.77 75.0076 241.958 74.1128 242.069C73.0982 242.198 72.1465 242.449 71.104 242.463C68.4916 242.503 65.8862 242.469 63.2877 242.362C62.3882 242.324 61.5899 242.027 60.6764 241.94C60.3208 241.908 59.9652 241.831 59.6096 241.71C58.6195 241.372 57.591 241.149 56.5974 240.793C46.637 237.22 39.3018 230.094 35.676 220.234C35.1925 218.921 34.7963 217.543 34.4871 216.099C34.3024 215.242 34.2989 214.423 34.02 213.551C33.8991 213.17 33.8352 212.751 33.8282 212.296C33.805 209.872 33.8329 207.923 33.9119 206.449C33.9363 205.933 34.2222 205.459 34.2222 204.894C34.2245 204.358 34.3047 203.838 34.4628 203.336C34.5999 202.899 34.7231 202.441 34.8323 201.962C36.271 195.696 39.3599 190.259 44.099 185.65C48.8194 181.055 55.1994 177.649 61.7851 176.571C63.1122 176.355 63.9885 176.224 64.4138 176.178C67.4434 175.853 71.1006 176.003 73.5898 176.565C73.713 176.592 73.7653 176.67 73.7467 176.798L73.6456 177.485C73.6154 177.682 73.5003 177.781 73.3004 177.781C71.4736 177.764 71.0239 178.447 71.1912 180.215C71.2075 180.382 71.1319 180.461 70.9646 180.452C69.3307 180.359 67.6491 180.316 65.9199 180.323C65.2621 180.325 64.6625 180.391 64.1209 180.521C63.2738 180.724 62.4614 180.734 61.6352 180.922C56.9356 181.982 52.8729 183.961 49.447 186.86C44.1757 191.313 40.809 196.955 39.3471 203.786C39.0821 205.023 39.1484 206.223 38.8904 207.425C38.6184 208.691 38.5975 210.772 38.7788 211.686C39.0786 213.192 39.2111 214.715 39.5981 216.145C41.5016 223.201 45.3552 228.759 51.1588 232.82C56.5184 236.569 62.5788 238.321 69.34 238.077C82.072 237.621 93.0156 228.375 95.7454 215.96C95.9058 215.226 96.0115 214.518 96.0627 213.837C96.1394 212.798 96.5891 211.905 96.5438 210.863C96.4043 207.8 96.2579 205.931 96.1045 205.257C95.9395 204.532 95.7849 203.836 95.6408 203.169C94.3602 197.263 91.5281 192.267 87.1447 188.181C85.4433 186.594 83.6409 185.207 81.7374 184.022C81.5491 183.903 81.3388 183.807 81.1063 183.732C80.9669 183.688 80.8414 183.713 80.7298 183.806Z" fill="#E4EAF1"/>
<path d="M78.433 175.229C78.6248 175.197 78.7594 175.045 78.7337 174.889C78.7079 174.733 78.5314 174.633 78.3396 174.665C78.1477 174.696 78.0131 174.848 78.0389 175.004C78.0647 175.16 78.2411 175.261 78.433 175.229Z" fill="#F7F9FF"/>
<path d="M191.91 207.206C191.6 205.713 191.541 204.155 191.182 202.708C190.252 198.964 188.779 195.668 186.761 192.821C181.615 185.569 174.558 181.354 165.589 180.176C164.745 180.065 162.801 180.092 159.756 180.26C159.233 180.29 158.75 180.37 158.306 180.5C157.633 180.696 156.964 180.636 156.28 180.779C155.69 180.902 155.108 181.072 154.534 181.288C154.491 181.304 154.445 181.304 154.403 181.286C154.36 181.269 154.326 181.236 154.307 181.194L152.616 177.432C152.535 177.253 152.587 177.133 152.773 177.07C156.936 175.615 161.326 175.083 165.944 175.473C166.367 175.51 166.786 175.578 167.199 175.675C167.799 175.822 168.388 175.766 168.974 175.93C170.508 176.369 172.045 176.613 173.579 177.171C186.496 181.867 195.073 192.591 196.701 206.327C196.801 207.182 196.861 208.541 196.882 210.403C196.891 211.258 196.823 212.066 196.676 212.826C196.46 213.941 196.492 215.053 196.195 216.165C195.84 217.497 195.616 218.864 195.16 220.14C191.646 229.929 185.266 236.71 176.02 240.483C174.716 241.015 173.159 241.538 171.348 242.051C170.274 242.358 169.277 242.39 168.203 242.533C167.75 242.593 167.294 242.628 166.833 242.637C162.294 242.742 159.018 242.644 157.005 242.344C154.495 241.972 151.567 240.975 148.22 239.353C142.739 236.696 138.309 232.794 134.93 227.646C133.595 225.613 132.573 223.428 131.541 221.242C131.533 221.223 131.529 221.202 131.532 221.182C131.535 221.162 131.543 221.143 131.556 221.127C131.57 221.111 131.587 221.099 131.606 221.093C131.626 221.087 131.647 221.086 131.667 221.092C133.352 221.554 135.01 221.825 136.642 221.904C136.749 221.909 136.853 221.942 136.944 221.999C137.034 222.056 137.108 222.135 137.158 222.228C141.165 229.601 147.41 234.472 155.893 236.843C156.467 237.003 157.051 237.118 157.643 237.188C158.487 237.289 159.202 237.53 160.087 237.575C162.776 237.705 164.962 237.683 166.645 237.509C177.596 236.379 187.023 228.647 190.523 218.191C190.883 217.117 191.162 216.002 191.36 214.844C191.476 214.156 191.601 213.48 191.736 212.815C192.071 211.166 192.168 208.45 191.91 207.206Z" fill="#E4EAF1"/>
<path d="M139.642 191.137C139.412 189.673 139.018 187.94 138.397 186.452C138.349 186.333 138.359 186.221 138.429 186.117C138.631 185.819 138.856 185.545 139.105 185.294C141.267 183.129 143.85 180.856 146.632 179.475C146.653 179.465 146.675 179.459 146.699 179.457C146.722 179.456 146.745 179.459 146.767 179.467C146.789 179.475 146.81 179.487 146.827 179.503C146.845 179.519 146.859 179.538 146.869 179.559L148.734 183.516C148.79 183.63 148.763 183.721 148.654 183.788C145.102 185.911 142.365 188.617 139.938 191.932C139.808 192.111 139.716 192.092 139.663 191.876C139.633 191.753 139.626 191.63 139.642 191.507C139.661 191.384 139.661 191.26 139.642 191.137Z" fill="#E4EAF1"/>
<path d="M163.432 224.174C163.395 223.772 163.174 223.555 162.77 223.525C161.71 223.444 160.668 223.281 159.646 223.037C158.373 222.737 157.108 222.807 155.839 222.5C154.619 222.207 153.363 222.368 152.154 222.089C151.515 221.942 150.856 221.863 150.177 221.852C149.271 221.834 148.472 221.479 147.559 221.392C146.534 221.296 145.544 221.167 144.588 221.005C143.013 220.74 141.472 220.733 139.903 220.29C139.275 220.112 138.616 220.203 138.01 220.025C137.301 219.82 136.579 219.693 135.845 219.641C134.244 219.526 132.812 219.063 131.208 219.028C131.008 219.023 130.893 218.922 130.863 218.725L130.845 218.623C130.842 218.602 130.844 218.581 130.85 218.56C130.856 218.54 130.867 218.521 130.881 218.505C130.895 218.489 130.913 218.476 130.933 218.468C130.952 218.459 130.974 218.455 130.995 218.456C132.792 218.547 134.434 218.668 135.921 218.819C137.061 218.937 138.062 218.686 139.202 218.833C140.266 218.97 141.517 218.988 142.953 218.888C143.902 218.821 144.709 218.608 145.376 218.25C147.522 217.105 148.458 215.257 148.186 212.707C148.078 211.693 147.51 210.863 147.228 209.901C147.19 209.773 147.238 209.702 147.37 209.688L164.596 207.805C164.734 207.791 164.862 207.731 164.963 207.636C165.064 207.541 165.131 207.416 165.154 207.279C165.217 206.907 165.172 206.549 165.018 206.205C161.727 198.737 158.501 191.327 155.34 183.973C155.289 183.857 155.325 183.78 155.448 183.743C157.336 183.18 159.286 182.861 161.298 182.784C168.392 182.512 174.567 184.627 179.825 189.129C186.138 194.54 189.6 202.443 189.311 210.793C189.285 211.488 189.194 212.173 189.036 212.847C188.823 213.76 188.799 214.698 188.544 215.611C187.301 220.074 185.173 223.884 182.161 227.043C178.144 231.254 173.116 233.854 167.075 234.842C165.741 235.058 163.527 235.094 160.434 234.95C159.829 234.922 159.266 234.842 158.743 234.709C157.993 234.521 157.268 234.462 156.522 234.249C149.881 232.363 144.47 228.681 140.586 222.838C140.481 222.678 140.523 222.613 140.712 222.643C142.026 222.859 143.462 223.358 144.805 223.292C145.864 223.243 146.719 223.762 147.761 223.741C148.491 223.725 149.171 223.811 149.8 223.999C150.326 224.157 150.871 224.228 151.436 224.212C152.774 224.174 153.984 224.529 155.302 224.693C156.406 224.833 157.469 224.958 158.492 225.07C159.886 225.223 161.257 225.614 162.675 225.683C163.105 225.704 163.351 225.502 163.411 225.077C163.453 224.779 163.46 224.478 163.432 224.174Z" fill="#FCFCFF"/>
<path d="M149.725 206.902C148.794 206.836 147.909 207.16 146.992 207.269C146.924 207.276 146.856 207.259 146.8 207.22C146.744 207.181 146.704 207.122 146.688 207.056C145.869 203.416 145.13 200.348 141.72 198.235C141.518 198.112 141.387 197.937 141.327 197.709C141.18 197.165 141.027 196.608 140.866 196.039C140.737 195.575 140.957 195.052 141.198 194.669C143.396 191.199 146.257 188.356 149.781 186.141C149.803 186.128 149.827 186.119 149.852 186.115C149.878 186.111 149.903 186.112 149.928 186.119C149.953 186.125 149.976 186.137 149.995 186.153C150.015 186.169 150.031 186.189 150.042 186.211C150.296 186.688 150.53 187.156 150.747 187.616C153.401 193.278 156.055 198.814 158.709 204.225C158.971 204.755 159.299 205.191 159.581 205.707C159.602 205.746 159.612 205.79 159.61 205.835C159.607 205.879 159.593 205.922 159.568 205.958C159.543 205.995 159.509 206.024 159.468 206.041C159.428 206.059 159.384 206.065 159.34 206.059C158.518 205.947 157.751 205.986 157.039 206.174C155.397 206.613 153.766 206.251 152.148 206.683C151.372 206.89 150.564 206.963 149.725 206.902Z" fill="#FCFCFF"/>
<path d="M129.316 198.002C132.203 196.654 135.064 195.479 137.9 194.477C137.919 194.471 137.939 194.469 137.959 194.471C137.978 194.473 137.998 194.48 138.015 194.49C138.032 194.5 138.047 194.514 138.058 194.53C138.07 194.547 138.077 194.566 138.081 194.585C138.276 195.743 138.59 196.901 139.022 198.061C139.073 198.198 139.027 198.266 138.883 198.263C135.937 198.229 133.587 199.313 130.847 200.603C130.691 200.677 130.581 200.633 130.515 200.47C130.178 199.615 129.767 198.835 129.281 198.131C129.274 198.121 129.269 198.109 129.267 198.096C129.265 198.084 129.265 198.071 129.269 198.058C129.272 198.046 129.278 198.035 129.286 198.025C129.294 198.015 129.305 198.007 129.316 198.002Z" fill="#F7F9FF"/>
<path d="M128.088 215.552C126.474 215.123 124.661 215.262 122.966 215.256C121.122 215.252 119.372 214.889 117.562 214.799C116.97 214.769 116.363 214.69 115.743 214.562C114.505 214.307 113.285 214.307 112.183 213.596C110.126 212.268 112.413 210.043 113.71 209.531C115.157 208.959 116.733 208.558 118.277 208.182C121.392 207.422 124.539 206.43 127.718 205.208C128.722 204.822 129.618 204.39 130.406 203.911C131.539 203.224 132.63 202.44 133.861 201.91C136.57 200.745 141.102 199.668 142.688 202.935C143.999 205.63 144.086 208.572 145.171 211.274C145.478 212.034 145.609 212.859 145.565 213.749C145.436 216.305 142.772 216.357 140.764 216.347C138.348 216.333 135.956 216.322 133.586 215.918C131.905 215.632 129.831 216.012 128.088 215.552Z" fill="#F7F9FF"/>
</g>
<defs>
<filter id="filter0_di_1022_10570" x="125" y="-70" width="431" height="437" filterUnits="userSpaceOnUse" color-interpolation-filters="sRGB">
<feFlood flood-opacity="0" result="BackgroundImageFix"/>
<feColorMatrix in="SourceAlpha" type="matrix" values="0 0 0 0 0 0 0 0 0 0 0 0 0 0 0 0 0 0 127 0" result="hardAlpha"/>
<feOffset dx="2" dy="4"/>
<feGaussianBlur stdDeviation="1"/>
<feComposite in2="hardAlpha" operator="out"/>
<feColorMatrix type="matrix" values="0 0 0 0 0.176471 0 0 0 0 0.192157 0 0 0 0 0.207843 0 0 0 0.18 0"/>
<feBlend mode="normal" in2="BackgroundImageFix" result="effect1_dropShadow_1022_10570"/>
<feBlend mode="normal" in="SourceGraphic" in2="effect1_dropShadow_1022_10570" result="shape"/>
<feColorMatrix in="SourceAlpha" type="matrix" values="0 0 0 0 0 0 0 0 0 0 0 0 0 0 0 0 0 0 127 0" result="hardAlpha"/>
<feOffset dx="4" dy="-4"/>
<feGaussianBlur stdDeviation="4.6"/>
<feComposite in2="hardAlpha" operator="arithmetic" k2="-1" k3="1"/>
<feColorMatrix type="matrix" values="0 0 0 0 0.133063 0 0 0 0 0.245587 0 0 0 0 0.358111 0 0 0 0.22 0"/>
<feBlend mode="normal" in2="shape" result="effect2_innerShadow_1022_10570"/>
</filter>
<clipPath id="clip0_1022_10570">
<rect width="231" height="296" fill="white"/>
</clipPath>
</defs>
</svg>
