<svg width="231" height="296" viewBox="0 0 231 296" fill="none" xmlns="http://www.w3.org/2000/svg">
<g clip-path="url(#clip0_1022_10657)">
<g opacity="0.3" filter="url(#filter0_di_1022_10657)">
<circle cx="338.5" cy="147.5" r="213.5" fill="#30628C" fill-opacity="0.08" shape-rendering="crispEdges"/>
</g>
<path d="M192.514 213.018C192.417 213.018 192.365 213.066 192.359 213.162L192.353 213.24C192.351 213.26 192.36 213.27 192.38 213.27C193.837 213.31 194.547 214.035 194.511 215.446C194.487 216.404 194.408 217.322 194.274 218.202C194.13 219.137 193.648 219.913 192.616 220.045C189.444 220.447 186.389 220.402 183.251 220.468C182.477 220.483 181.713 220.369 180.945 220.441C180.637 220.471 180.329 220.484 180.022 220.48C168.647 220.336 157.827 220.249 146.096 220.072C143.675 220.036 141.551 219.921 139.722 219.728C139.624 219.718 139.532 219.738 139.446 219.788C138.547 220.331 137.447 220.59 136.148 220.564C129.545 220.436 122.62 220.373 115.375 220.375C107.15 220.375 97.3275 220.126 85.9069 219.629C83.7823 219.535 81.7936 219.409 79.9408 219.251C76.9648 218.995 74.0786 218.834 71.2825 218.768C70.1752 218.742 69.3337 218.123 68.7581 216.909C68.3714 216.091 67.9546 214.79 67.367 214.088C67.3011 214.01 67.2171 213.965 67.1152 213.953C66.7554 213.913 66.3996 213.896 66.0479 213.902C60.3776 213.988 54.7562 214.079 49.1839 214.175C47.3471 214.207 45.3983 214.16 43.3377 214.034C42.825 214.004 41.8716 213.24 42.2644 212.577C42.6101 211.998 42.9499 211.697 43.2837 211.675C50.4071 211.229 57.4715 210.925 64.4769 210.763C65.0225 210.749 65.5332 210.765 66.0089 210.811C66.0337 210.813 66.0586 210.809 66.0812 210.799C66.1038 210.788 66.1234 210.772 66.1378 210.752C66.1524 210.732 66.1614 210.708 66.164 210.683C66.1666 210.658 66.1628 210.633 66.1528 210.611C64.4439 206.677 62.862 202.672 61.4069 198.594C60.4535 195.92 59.4162 193.279 58.5378 190.584C58.184 189.498 57.7403 188.428 57.3535 187.343C54.5534 179.452 51.6423 170.385 48.6202 160.141C48.0706 158.279 47.7288 156.503 47.5949 154.814C47.385 152.173 49.5526 151.381 51.7142 151.33C59.4991 151.15 67.2741 151.15 75.039 151.33C80.5234 151.458 88.3663 151.82 98.5677 152.415C100.908 152.551 105.086 152.681 111.103 152.805C111.848 152.821 112.593 152.862 113.336 152.928C115.03 153.078 117.015 153.168 118.076 154.757C118.806 155.854 119.435 156.963 119.965 158.085C121.226 160.759 122.35 163.42 123.338 166.069C123.346 166.092 123.361 166.113 123.38 166.129C123.4 166.145 123.424 166.154 123.449 166.157C123.474 166.16 123.5 166.156 123.523 166.145C123.546 166.134 123.566 166.117 123.58 166.096C124.604 164.533 125.656 162.947 126.737 161.338C127.227 160.61 127.753 159.914 128.314 159.248C129.064 158.364 129.699 157.422 130.449 156.523C132.134 154.502 133.871 152.602 135.66 150.824C136.117 150.37 136.617 149.951 137.159 149.567C137.191 149.545 137.216 149.513 137.231 149.476C137.246 149.439 137.249 149.399 137.241 149.36C137.232 149.321 137.213 149.286 137.184 149.258C137.156 149.23 137.12 149.212 137.081 149.205C135.442 148.885 133.931 148.492 132.548 148.026C130.869 147.461 128.861 146.416 126.524 144.893C126.417 144.821 126.298 144.787 126.168 144.791C125.355 144.818 124.561 144.881 123.748 144.764C120.283 144.264 117.53 142.054 116.421 138.774C115.654 136.502 115.752 134.514 116.298 132.284C116.334 132.134 116.275 132.059 116.121 132.059C115.821 132.059 115.529 132.058 115.243 132.056C113.09 132.034 111.247 131.309 109.714 129.882C109.391 129.582 109.27 129.648 109.352 130.08C109.562 131.174 108.635 131.888 107.583 131.699C106.561 131.517 105.85 131.333 105.448 131.147C102.302 129.686 100.361 127.314 99.623 124.03C98.5077 119.059 100.142 112.934 102.906 108.752C102.921 108.73 102.929 108.704 102.931 108.678C102.933 108.651 102.928 108.625 102.916 108.601C102.905 108.577 102.887 108.557 102.865 108.542C102.844 108.527 102.818 108.517 102.792 108.515C98.8015 108.149 95.2698 106.078 95.6506 101.506C95.7525 100.267 96.3042 98.8733 97.2815 98.0669C97.9771 97.4912 98.9754 97.6681 99.65 98.1988C101.563 99.7118 103.907 100.283 106.683 99.9137C107.329 99.8277 107.926 99.6249 108.473 99.3051C108.619 99.2207 108.726 99.0828 108.77 98.9213C108.954 98.2657 109.212 97.6611 109.544 97.1075C111.258 94.2354 113.55 91.9908 116.418 90.3739C116.744 90.19 116.72 90.0831 116.346 90.0531C114.164 89.8672 112.196 89.4685 110.443 88.8569C109.062 88.3752 108.443 87.6007 108.587 86.5334C108.803 84.9234 110.65 83.5833 112.176 83.1336C115.869 82.0423 120.295 82.9747 123.52 85.1513C123.536 85.1625 123.555 85.1695 123.574 85.1716C123.593 85.1737 123.613 85.171 123.631 85.1635C123.649 85.1561 123.665 85.1442 123.678 85.129C123.69 85.1138 123.699 85.0957 123.703 85.0763C123.981 83.7372 124.413 82.473 124.998 81.2838C127.505 76.1961 131.678 72.1727 137.087 70.5478C138.486 70.1281 139.991 70.0012 141.602 70.167C143.64 70.3739 145.601 71.5162 146.62 73.294C146.688 73.4119 146.785 73.4459 146.911 73.3959C152.074 71.4322 158.957 71.837 163.874 74.4153C165.268 75.1498 169.253 77.866 167.978 79.9197C167.867 80.0976 167.909 80.1495 168.104 80.0756C168.74 79.8297 169.355 79.6769 170.029 79.6199C173.955 79.2781 177.49 80.3314 180.636 82.7798C183.664 85.1343 185.797 88.0114 187.034 91.4112C187.068 91.5091 187.137 91.5641 187.241 91.5761C189.136 91.78 190.869 91.1594 192.676 90.6887C194.277 90.273 195.366 90.7716 195.941 92.1847C197.308 95.5425 195.285 98.7384 192.239 100.267C191.563 100.605 190.94 100.908 190.368 101.176C190.252 101.23 190.208 101.32 190.236 101.446C191.39 106.443 189.388 110.44 186.12 114.133C186.099 114.156 186.084 114.183 186.075 114.213C186.065 114.242 186.063 114.273 186.067 114.303C186.071 114.334 186.081 114.363 186.098 114.389C186.114 114.415 186.136 114.437 186.162 114.454C187.951 115.644 189.528 117.719 190.284 119.767C192.17 124.89 190.713 130.644 186.383 134.046C186.361 134.063 186.344 134.086 186.333 134.111C186.322 134.137 186.317 134.165 186.32 134.193C186.324 134.221 186.334 134.247 186.35 134.27C186.366 134.292 186.388 134.311 186.413 134.322C187.731 134.966 189.052 135.765 190.377 136.721C194.15 139.443 197.516 142.757 200.474 146.662C201.53 148.055 202.572 149.467 203.601 150.898C203.653 150.97 203.719 151.029 203.795 151.071C203.872 151.114 203.956 151.139 204.042 151.144C205.795 151.266 207.568 151.367 209.361 151.447C216.964 151.78 225.037 152.79 231.936 155.635C233.943 156.463 235.755 157.473 237.374 158.666C241.05 161.371 242.798 165.4 243.286 170.032C243.678 173.758 243.878 177.523 243.886 181.329C243.904 191.942 243.749 202.497 243.421 212.994C243.417 213.064 243.381 213.099 243.313 213.099C232.241 213.181 220.398 213.201 207.787 213.159C204.477 213.149 200.652 213.105 196.313 213.027C195.096 213.005 193.83 213.002 192.514 213.018ZM144.864 76.0492C144.516 75.4106 144.213 74.6251 143.67 74.1395C141.581 72.2627 138.208 72.8923 135.815 74.0075C135.099 74.3403 134.391 74.6671 133.735 75.1168C130.657 77.2155 128.429 79.9387 127.052 83.2865C126.367 84.9554 126.012 86.8492 125.988 88.9678C125.973 90.0981 124.036 90.197 123.658 89.0577C123.392 88.2483 122.843 87.6097 122.105 87.157C119.533 85.577 114.113 83.9521 111.438 86.1496C111.416 86.1681 111.399 86.1921 111.389 86.2193C111.379 86.2465 111.376 86.2758 111.381 86.3044C111.386 86.333 111.398 86.3598 111.416 86.3821C111.435 86.4044 111.459 86.4214 111.486 86.4315C112.03 86.6393 112.564 86.7792 113.087 86.8512C115.178 87.143 117.316 87.4578 119.503 87.7956C120.269 87.9135 121.037 88.1413 121.809 88.4791C122.66 88.8509 122.896 89.4755 122.516 90.3529C122.469 90.4604 122.399 90.556 122.31 90.6323C122.221 90.7086 122.116 90.7638 122.003 90.7936C119.047 91.5851 116.467 93.0651 114.262 95.2337C112.793 96.6808 111.807 98.0349 111.303 99.2961C110.623 100.993 109.621 101.772 107.82 102.27C104.466 103.2 101.425 102.739 98.6966 100.888C98.5147 100.764 98.4098 100.812 98.3818 101.032C97.8841 105.139 101.566 105.922 104.717 105.829C105.098 105.817 105.431 105.89 105.715 106.048C106.802 106.655 107.002 107.472 106.315 108.497C105.595 109.572 104.953 110.636 104.387 111.687C103.032 114.209 102.261 116.957 102.075 119.929C101.857 123.427 102.885 126.467 105.979 128.434C105.994 128.444 106.012 128.449 106.03 128.448C106.048 128.447 106.065 128.44 106.08 128.429C106.094 128.418 106.104 128.402 106.109 128.385C106.114 128.368 106.114 128.349 106.108 128.332C104.965 124.996 104.828 121.447 105.697 117.683C106.173 115.628 106.819 113.68 107.637 111.837C108.822 109.161 110.222 106.617 111.837 104.207C113.208 102.16 114.486 100.395 115.672 98.9123C116.663 97.6751 117.844 96.4259 119.215 95.1648C120.229 94.2324 121.398 93.5458 122.549 92.8383C123.426 92.2986 124.454 91.9918 125.631 91.9179C127.733 91.786 128.38 89.2586 129.502 87.8915C131.878 84.9994 134.608 82.8618 137.692 81.4787C142.933 79.1322 148.832 78.2528 155.39 78.8404C156.523 78.9423 157.844 79.1992 159.353 79.6109C162.203 80.3904 164.547 81.8045 166.384 83.8531C166.656 84.1589 167.07 84.3868 167.454 84.4378C171.522 84.9774 175.995 86.0327 178.861 89.1447C180.103 90.4908 180.948 91.765 181.653 93.4229C181.805 93.7797 182.072 94.1064 182.39 94.3283C184.315 95.6614 186.456 96.327 188.815 96.325C189.85 96.325 190.909 96.2561 191.99 96.1181C192.394 96.0662 192.779 95.9513 193.147 95.7734C193.322 95.6884 193.472 95.5598 193.582 95.4001C193.692 95.2404 193.759 95.055 193.777 94.862C193.825 94.3003 193.804 93.7407 193.714 93.183C193.66 92.8413 193.471 92.7323 193.147 92.8563C190.662 93.8036 188.512 94.3613 185.784 93.8846C185.373 93.8126 185.094 93.5908 184.95 93.201C183.149 88.3262 179.089 83.5233 173.855 82.6269C172.12 82.3291 170.291 82.2562 168.368 82.4081C167.412 82.486 167.343 81.1129 167.607 80.5223C167.618 80.4991 167.622 80.4731 167.619 80.4476C167.615 80.422 167.604 80.398 167.587 80.3786C167.571 80.3591 167.548 80.3451 167.523 80.3381C167.499 80.3311 167.472 80.3316 167.448 80.3394C166.76 80.5513 166.209 80.3214 165.793 79.6499C165.059 78.4566 164.031 77.5293 162.708 76.8677C161.397 76.2141 160.174 75.7514 159.038 75.4796C155.988 74.7501 152.883 74.7021 149.723 75.3357C149.14 75.4516 148.576 75.6295 148.032 75.8693C147.271 76.2051 145.448 77.1285 144.864 76.0492ZM174.759 91.5502C174.826 91.2874 174.786 91.0088 174.647 90.7757C174.509 90.5426 174.284 90.374 174.021 90.307L170.877 89.5057C170.747 89.4726 170.612 89.4654 170.479 89.4845C170.346 89.5037 170.218 89.5488 170.103 89.6173C169.988 89.6859 169.887 89.7765 169.806 89.884C169.726 89.9915 169.667 90.1138 169.634 90.2439L169.611 90.3369C169.544 90.5996 169.584 90.8782 169.722 91.1113C169.861 91.3444 170.086 91.513 170.349 91.58L173.492 92.3813C173.622 92.4144 173.758 92.4217 173.89 92.4025C174.023 92.3834 174.151 92.3382 174.267 92.2697C174.382 92.2011 174.483 92.1105 174.563 92.003C174.644 91.8955 174.702 91.7732 174.735 91.6431L174.759 91.5502ZM165.628 96.1181C164.445 95.3846 163.204 94.808 161.904 94.3883C160.831 94.0435 160.169 95.2187 161.125 95.9982C162.246 96.9116 163.437 97.5682 164.699 97.9679C165.979 98.3727 166.944 96.9366 165.628 96.1181ZM127.094 97.1764C125.718 100.717 125.52 104.809 126.141 108.5C126.487 110.549 127.157 112.351 128.152 113.906C129.631 116.212 131.683 117.981 134.307 119.212C134.481 119.292 134.504 119.262 134.376 119.122C133.639 118.317 132.924 117.496 132.233 116.661C128.932 112.667 127.892 106.95 128.377 101.757C128.524 100.168 128.986 98.6335 129.313 97.0415C129.457 96.33 129.186 95.9423 128.5 95.8783C127.706 95.8033 127.337 96.5499 127.094 97.1764ZM153.408 98.6305C152.655 98.0939 151.51 96.5199 150.485 97.1764C149.708 97.6741 150.23 98.6575 150.713 99.1342C152.592 100.993 154.79 102.481 157.308 103.598C157.794 103.812 158.219 103.727 158.583 103.343C158.657 103.263 158.71 103.172 158.741 103.068C158.943 102.366 158.721 101.847 158.073 101.512C156.568 100.734 155.013 99.7738 153.408 98.6305ZM173.045 117.17C172.773 118.3 172.349 119.331 171.771 120.264C171.575 120.578 171.612 120.609 171.882 120.357C173.419 118.92 174.555 117.177 175.291 115.129C175.884 113.477 175.983 111.705 175.953 109.984C175.935 108.998 175.513 99.6019 172.922 101.485C172.662 101.673 172.551 101.939 172.589 102.285C172.748 103.703 173.204 105.004 173.42 106.398C173.998 110.154 173.873 113.745 173.045 117.17ZM167.922 123.631C167.418 122.54 168.227 121.428 168.824 120.534C169.138 120.067 169.037 119.944 168.521 120.165C168.209 120.299 167.884 120.39 167.544 120.438C164.708 120.832 161.996 120.662 159.41 119.929C159.302 119.899 159.227 119.937 159.185 120.043C158.58 121.581 156.319 122.015 154.841 122.237C148.239 123.22 141.467 120.87 136.811 116.16C136.603 115.948 136.566 115.975 136.7 116.241C137.489 117.79 138.54 119.091 139.851 120.144C140.231 120.45 140.538 120.78 140.774 121.134C141.096 121.62 140.98 122.157 140.426 122.747C139.839 123.376 138.145 123.146 137.368 123.005C134.926 122.565 132.65 121.61 130.542 120.138C126.934 117.62 124.731 114.317 123.931 110.23C123.871 109.926 123.777 109.915 123.649 110.197C121.579 114.77 120.286 119.519 119.77 124.444C119.758 124.566 119.778 124.681 119.83 124.788C120.611 126.413 121.432 128.055 122.291 129.714C122.942 130.97 123.547 132.317 123.844 133.678C124.129 134.979 124.129 136.37 124.609 137.62C126.285 142.003 130.8 144.222 135.054 145.493C136.369 145.887 137.706 146.183 139.065 146.38C144.116 147.12 149.112 147.088 154.053 146.284C159.377 145.421 164.465 143.436 168.818 140.067C170.561 138.719 171.954 137.177 172.997 135.441C173.636 134.376 174.319 134.004 175.555 134.238C177.138 134.541 178.957 134.073 180.453 133.639C182.196 133.131 183.751 132.218 185.118 130.898C189.235 126.923 189.019 119.497 183.772 116.583C183.334 116.339 182.874 116.219 182.39 116.223C181.38 116.235 180.142 115.884 179.305 116.64C178.959 116.954 178.576 117.146 178.154 117.218C178.024 117.242 177.907 117.212 177.803 117.128L177.509 116.889C177.399 116.801 177.316 116.822 177.26 116.952C175.944 119.95 173.942 122.501 171.018 124.03C170.146 124.486 168.434 124.737 167.922 123.631ZM121.302 135.53C121.216 134.077 120.777 132.702 119.986 131.405C119.968 131.376 119.944 131.351 119.915 131.334C119.886 131.316 119.853 131.305 119.818 131.302C119.784 131.3 119.75 131.305 119.718 131.318C119.686 131.332 119.658 131.352 119.635 131.378C119.123 131.988 118.758 132.763 118.538 133.705C118.164 135.3 118.36 136.87 119.125 138.415C119.975 140.135 121.337 141.268 123.212 141.811C123.473 141.887 123.526 141.813 123.371 141.59C122.127 139.823 121.438 137.803 121.302 135.53ZM210.383 206.2C210.379 206.448 210.42 206.692 210.506 206.932C210.527 206.993 210.534 207.057 210.527 207.121C210.519 207.185 210.496 207.247 210.461 207.301C209.995 208.004 209.411 208.463 208.71 208.677C207.992 208.893 207.281 209.137 206.575 209.411C206.533 209.427 206.51 209.456 206.506 209.498C206.502 209.554 206.571 209.588 206.713 209.6C206.757 209.602 206.801 209.602 206.845 209.6C207.579 209.552 208.297 209.554 209.001 209.606C209.519 209.642 209.975 209.474 210.506 209.528C210.89 209.566 211.287 209.581 211.699 209.573C213.704 209.537 215.656 209.541 217.557 209.585C217.573 209.586 217.588 209.583 217.602 209.577C217.617 209.571 217.63 209.562 217.64 209.551C217.651 209.539 217.659 209.526 217.663 209.511C217.668 209.496 217.67 209.481 217.668 209.465C216.935 203.531 216.008 197.845 214.889 192.406C214.741 191.689 214.606 191.002 214.484 190.347C213.135 183.199 211.036 175.081 208.302 167.658C205.962 161.308 202.99 155.503 199.386 150.245C197.767 147.882 195.992 145.713 194.061 143.736C193.116 142.767 191.968 141.728 190.617 140.621C188.27 138.696 185.785 137.192 183.161 136.109C182.966 136.03 182.75 136.03 182.558 136.109C180.301 137.032 177.956 137.437 175.522 137.323C175.461 137.321 175.401 137.335 175.347 137.364C175.294 137.394 175.249 137.438 175.219 137.491L174.553 138.645C174.516 138.709 174.497 138.781 174.496 138.855C174.495 138.929 174.512 139.002 174.547 139.068C174.789 139.53 174.923 140 174.949 140.477C175.061 142.526 174.525 144.572 173.342 146.614C171.755 149.35 169.885 151.53 167.733 153.153C165.412 154.902 162.829 156.29 159.983 157.317C156.604 158.534 151.99 158.801 148.929 156.796C146.842 155.428 145.088 152.811 145.973 150.299C145.982 150.274 145.985 150.248 145.981 150.222C145.978 150.195 145.968 150.17 145.953 150.149C145.938 150.127 145.917 150.109 145.894 150.097C145.87 150.084 145.844 150.077 145.817 150.077C144.582 150.053 143.159 150 141.548 149.918C141.154 149.898 140.817 149.986 140.537 150.182C139.218 151.105 137.808 152.416 136.307 154.115C132.02 158.969 128.194 164.063 125.043 169.744C125.01 169.804 124.99 169.871 124.984 169.939C124.979 170.008 124.989 170.076 125.013 170.14C126.393 173.81 127.841 177.437 129.139 181.122C130.176 184.075 131.375 187.193 132.284 190.014C133.571 194.017 134.925 198.243 136.346 202.69C136.354 202.715 136.369 202.737 136.388 202.755C136.408 202.772 136.431 202.785 136.457 202.791C136.482 202.797 136.508 202.796 136.533 202.789C136.558 202.782 136.58 202.768 136.598 202.75C137.775 201.552 139.048 200.334 140.417 199.095C141.539 198.082 142.699 197.71 144.108 197.233C146.642 196.378 148.989 195.704 151.147 195.213C151.255 195.189 151.295 195.123 151.267 195.015C150.806 193.156 151.453 191.918 152.844 190.841C153.36 190.442 153.83 190.138 154.253 189.93C158.778 187.713 163.139 185.503 167.334 183.298C168.17 182.858 169.208 182.525 169.588 181.541C170.948 178.038 172.225 175.218 173.42 173.081C177.009 166.662 182.207 161.392 188.245 157.041C189.307 156.274 191.339 154.832 192.601 155.03C193.879 155.228 194.094 156.775 192.952 157.419C191.939 157.991 190.916 158.606 189.882 159.266C189.238 159.677 188.71 160.204 188.065 160.612C187.58 160.922 187.118 161.267 186.68 161.646C184.682 163.383 183.101 164.853 181.937 166.057C177.97 170.166 174.854 175.009 172.589 180.585C172.546 180.693 172.575 180.72 172.679 180.666C173.923 180.01 175.193 179.424 176.49 178.906C178.073 178.277 179.782 177.971 181.617 177.989C183.899 178.009 186.11 178.035 188.248 178.067C189.463 178.085 190.839 178.21 192.374 178.442C193.318 178.582 194.469 179.278 194.035 180.384C193.857 180.832 193.603 181.176 193.273 181.416C193.18 181.482 193.067 181.517 192.952 181.515C192.115 181.491 191.239 181.425 190.326 181.317C187.176 180.943 183.346 180.918 178.837 181.242C178.332 181.278 177.863 181.398 177.431 181.601C174.317 183.074 171.688 184.405 169.543 185.592C168.024 186.433 166.539 187.192 165.088 187.867C164.749 188.027 164.416 188.213 164.09 188.425C163.314 188.926 162.393 189.169 161.563 189.588C159.446 190.652 157.295 191.697 155.111 192.724C154.819 192.86 154.563 193.038 154.343 193.258C154.275 193.326 154.229 193.413 154.21 193.507C154.192 193.602 154.202 193.7 154.24 193.789C154.278 193.877 154.341 193.953 154.422 194.005C154.503 194.057 154.598 194.084 154.694 194.082C155.715 194.06 156.651 194.45 157.5 195.252C160.161 197.768 162.207 200.782 163.64 204.294C164.146 205.537 164.451 206.854 164.555 208.245C164.565 208.373 164.634 208.44 164.762 208.446C173.518 208.842 182.279 209.226 191.045 209.6C192.289 209.654 193.649 209.559 195.126 209.315C199.668 208.566 203.82 207.199 208.221 205.346C208.597 205.188 208.939 205.128 209.247 205.166C209.777 205.232 210.392 205.589 210.383 206.2ZM155.875 149.055C153.537 149.516 151.043 149.927 148.62 150.041C148.57 150.044 148.522 150.063 148.483 150.096C148.445 150.129 148.42 150.174 148.41 150.224C147.913 152.748 149.891 154.631 152.206 155.078C154.778 155.575 157.433 155.268 160.172 154.154C161.199 153.735 162.149 153.29 163.023 152.82C164.462 152.043 165.826 151.081 167.115 149.936C169.38 147.921 171.016 145.474 172.026 142.594C172.168 142.186 172.247 141.771 172.263 141.35C172.264 141.325 172.257 141.3 172.245 141.279C172.232 141.258 172.213 141.241 172.191 141.231C172.168 141.22 172.143 141.216 172.119 141.22C172.094 141.223 172.071 141.234 172.053 141.251C170.314 142.866 168.436 144.203 166.419 145.262C162.954 147.085 159.439 148.349 155.875 149.055ZM53.8518 157.872C54.4195 157.734 55.0091 157.653 55.6207 157.629C59.5861 157.477 63.4626 157.438 67.2501 157.512C72.8425 157.62 78.7336 157.774 84.9236 157.974C91.2594 158.18 100.505 158.637 112.662 159.347C113.921 159.421 114.529 160.093 114.487 161.365C114.485 161.465 114.518 161.553 114.586 161.628C114.811 161.871 114.973 162.048 115.117 162.357C116.814 165.977 118.516 170.022 120.223 174.493C123.682 183.559 126.707 192.415 129.298 201.062C130.485 205.029 131.618 208.725 132.697 212.149C133.227 213.833 133.818 215.459 134.469 217.026C134.553 217.224 134.702 217.333 134.916 217.353C135.723 217.427 136.439 217.409 137.063 217.299C137.288 217.259 137.363 217.131 137.287 216.915C134.931 210.202 132.683 203.406 130.545 196.529C130.359 195.933 130.17 195.354 129.978 194.793C129.76 194.153 129.546 193.504 129.334 192.844C129.124 192.189 128.908 191.536 128.686 190.886C125.074 180.297 121.214 170.042 117.105 160.12C116.796 159.377 115.815 156.952 114.901 156.808C113.39 156.572 111.648 156.446 109.675 156.43C106.102 156.4 101.227 156.244 95.051 155.962C88.941 155.683 83.0078 155.282 76.9937 155.096C68.3134 154.83 59.6251 154.716 50.9287 154.754C50.581 154.756 50.436 154.928 50.494 155.27C50.6339 156.093 50.8488 156.986 51.1386 157.95C51.7982 160.146 52.4617 162.25 53.1293 164.261C54.4784 168.326 55.8355 172.392 57.2006 176.46C57.4615 177.23 57.7733 177.899 58.0251 178.636C60.4655 185.754 63.3936 193.819 66.8094 202.834C67.0762 203.538 67.424 204.189 67.6848 204.884C68.934 208.206 70.2671 211.556 71.6842 214.934C71.7881 215.18 71.973 215.309 72.2388 215.323C75.8505 215.527 79.4671 215.745 83.0888 215.977C85.0795 216.105 87.294 216.2 89.7324 216.262C100.274 216.524 110.815 216.669 121.356 216.697C124.555 216.706 127.754 216.631 130.956 216.733C130.984 216.733 131.011 216.727 131.036 216.715C131.062 216.702 131.083 216.684 131.1 216.661C131.116 216.638 131.126 216.612 131.13 216.584C131.134 216.556 131.13 216.528 131.12 216.502C130.673 215.312 130.286 214.184 129.96 213.117C128.643 208.818 127.218 204.137 125.685 199.074C122.411 188.267 118.485 177.016 113.906 165.322C113.53 164.363 113.317 163.393 113.267 162.414C113.259 162.276 113.188 162.221 113.054 162.249C112.676 162.324 112.332 162.33 111.948 162.312C104.037 161.9 96.7049 161.508 89.9513 161.134C88.2964 161.042 86.4006 160.96 84.264 160.888C82.3253 160.824 80.4245 160.748 78.5617 160.66C70.7468 160.292 62.8719 160.079 54.9371 160.022C54.5094 160.018 54.0807 159.929 53.651 159.755C52.7935 159.41 52.9464 158.091 53.8518 157.872ZM227.46 180.684C226.548 181.386 225.691 182.102 225.07 183.056C224.408 184.075 225.418 185.202 226.515 184.399C227.323 183.805 228.133 183.093 228.947 182.264C230.014 181.176 228.506 179.875 227.46 180.684ZM231.311 187.917C231.297 187.77 231.237 187.629 231.133 187.502C231.029 187.374 230.884 187.263 230.705 187.174C230.527 187.086 230.318 187.022 230.092 186.985C229.866 186.949 229.627 186.942 229.388 186.964C229.148 186.985 228.914 187.036 228.698 187.112C228.482 187.189 228.289 187.289 228.13 187.409C227.97 187.528 227.847 187.664 227.768 187.808C227.689 187.952 227.655 188.102 227.668 188.249C227.682 188.396 227.742 188.537 227.846 188.665C227.95 188.792 228.095 188.904 228.274 188.992C228.452 189.081 228.66 189.145 228.887 189.181C229.113 189.217 229.352 189.225 229.591 189.203C229.83 189.181 230.065 189.131 230.281 189.054C230.496 188.978 230.69 188.877 230.849 188.758C231.009 188.638 231.132 188.503 231.211 188.359C231.29 188.214 231.324 188.064 231.311 187.917ZM155.905 206.042C156.541 206.125 156.562 206.791 157.198 206.869C158.611 207.037 159.955 207.143 161.23 207.187C161.267 207.188 161.304 207.181 161.338 207.166C161.372 207.151 161.402 207.129 161.426 207.101C161.45 207.073 161.468 207.04 161.477 207.005C161.487 206.969 161.488 206.932 161.482 206.896C161.39 206.368 161.239 205.855 161.029 205.355C159.64 202.063 157.804 199.318 155.522 197.119C155.445 197.045 155.348 196.995 155.242 196.978C155.136 196.961 155.028 196.977 154.931 197.023C154.322 197.311 153.648 197.272 153.003 197.425C149.889 198.157 146.697 199.131 143.427 200.348C142.914 200.54 142.464 200.817 142.078 201.179C140.641 202.532 139.226 203.881 137.833 205.226C137.315 205.724 137.372 206.144 138.004 206.488C138.186 206.588 138.394 206.63 138.628 206.614C139.345 206.568 139.935 206.271 140.396 205.724C141.208 204.762 142.143 203.904 143.203 203.148C143.754 202.755 144.289 202.819 144.807 203.34C145.19 203.727 145.04 204.264 144.735 204.635C144.095 205.405 143.378 206.145 142.582 206.857C142.278 207.129 142.326 207.309 142.726 207.397L142.993 207.454C143.175 207.493 143.364 207.489 143.544 207.441C143.724 207.393 143.891 207.303 144.03 207.178C144.822 206.468 145.641 205.707 146.488 204.893C147.16 204.252 148.362 203.283 149.211 204.045C150.182 204.914 148.278 206.611 147.718 207.172C147.65 207.238 147.61 207.327 147.605 207.421C147.6 207.516 147.631 207.609 147.691 207.681C148.148 208.243 148.699 208.311 149.343 207.885C150.052 207.416 150.767 206.991 151.486 206.611C152.982 205.826 154.259 205.823 155.905 206.042ZM175.698 214.853C175.8 214.701 175.875 214.538 175.923 214.364C175.966 214.204 176.061 214.062 176.195 213.963C176.328 213.863 176.491 213.811 176.658 213.815L181.533 213.932C181.589 213.934 181.623 213.907 181.635 213.851C181.647 213.795 181.629 213.762 181.581 213.753C180.479 213.501 179.477 213.317 178.574 213.201C176.841 212.977 175.965 212.864 175.947 212.862C172.939 212.39 169.812 211.865 166.566 211.285C164.176 210.859 159.925 210.363 153.813 209.795C153.451 209.761 153.121 209.663 152.823 209.501C152.738 209.456 152.644 209.43 152.547 209.427C152.451 209.424 152.354 209.443 152.266 209.483C151.3 209.931 150.397 210.312 149.555 210.626C148.728 210.937 146.47 210.587 145.952 209.639C145.929 209.597 145.898 209.56 145.861 209.531C145.823 209.501 145.78 209.48 145.734 209.468C145.688 209.455 145.64 209.452 145.593 209.459C145.546 209.466 145.501 209.482 145.46 209.507C144.795 209.912 144.135 210.266 143.323 210.215C142.521 210.161 141.727 210.001 140.939 209.735C140.821 209.695 140.722 209.626 140.642 209.528L140.399 209.228C140.313 209.125 140.205 209.081 140.073 209.097L138.798 209.252C138.771 209.256 138.744 209.265 138.721 209.281C138.698 209.296 138.678 209.317 138.665 209.341C138.651 209.365 138.643 209.392 138.642 209.42C138.641 209.448 138.646 209.476 138.658 209.501L139.038 210.338C139.09 210.456 139.181 210.516 139.311 210.518C141.188 210.548 142.947 210.647 144.588 210.814C148.101 211.174 151.45 211.456 154.865 211.591C158.292 211.726 161.548 211.951 164.998 212.385C167.559 212.706 170.137 212.763 172.805 213.249C173.612 213.396 175.447 213.887 174.979 215.039C174.52 216.175 171.756 215.776 170.923 215.524C170.481 215.39 169.985 215.333 169.436 215.353C167.911 215.409 166.336 215.339 164.711 215.144C163.659 215.018 162.629 214.911 161.62 214.823C156.557 214.371 151.371 213.884 146.063 213.363C144.087 213.171 142.075 213.198 140.154 212.793C140.123 212.786 140.092 212.788 140.063 212.798C140.033 212.807 140.007 212.825 139.987 212.849C139.966 212.872 139.952 212.901 139.946 212.932C139.94 212.962 139.943 212.994 139.953 213.024L141.128 216.415C141.145 216.463 141.176 216.505 141.217 216.534C141.259 216.564 141.308 216.58 141.359 216.58C142.699 216.574 144.039 216.673 145.382 216.691C159.651 216.9 174.027 217.008 188.509 217.014C189.075 217.014 189.672 216.996 190.302 216.96C191.245 216.906 191.273 216.717 190.386 216.391C189.825 216.187 189.16 216.019 188.551 215.998C186.186 215.911 184.072 215.743 181.569 215.956C179.941 216.094 177.47 216.148 175.866 215.44C175.577 215.311 175.521 215.115 175.698 214.853Z" fill="#181C20"/>
<path d="M144.863 76.0492C145.448 77.1285 147.271 76.2051 148.032 75.8693C148.576 75.6295 149.139 75.4516 149.723 75.3357C152.883 74.7021 155.988 74.75 159.038 75.4796C160.173 75.7514 161.396 76.2141 162.708 76.8677C164.031 77.5292 165.059 78.4566 165.793 79.6499C166.208 80.3214 166.76 80.5513 167.447 80.3394C167.472 80.3316 167.498 80.3311 167.523 80.3381C167.548 80.3451 167.57 80.3591 167.587 80.3786C167.604 80.398 167.615 80.422 167.618 80.4475C167.622 80.4731 167.618 80.4991 167.606 80.5223C167.343 81.1129 167.411 82.486 168.368 82.4081C170.291 82.2562 172.119 82.3291 173.854 82.6269C179.089 83.5233 183.148 88.3262 184.95 93.201C185.094 93.5908 185.373 93.8126 185.784 93.8846C188.512 94.3613 190.661 93.8036 193.147 92.8563C193.47 92.7323 193.659 92.8413 193.713 93.183C193.803 93.7407 193.824 94.3003 193.776 94.8619C193.759 95.055 193.692 95.2404 193.582 95.4001C193.471 95.5598 193.321 95.6884 193.147 95.7734C192.779 95.9512 192.393 96.0662 191.989 96.1181C190.908 96.256 189.85 96.325 188.815 96.325C186.456 96.327 184.314 95.6614 182.39 94.3283C182.072 94.1064 181.805 93.7797 181.652 93.4229C180.948 91.765 180.102 90.4908 178.861 89.1447C175.995 86.0327 171.522 84.9774 167.453 84.4377C167.07 84.3868 166.656 84.1589 166.383 83.8531C164.546 81.8045 162.203 80.3904 159.353 79.6109C157.844 79.1991 156.523 78.9423 155.389 78.8404C148.832 78.2528 142.932 79.1322 137.692 81.4787C134.608 82.8618 131.878 84.9994 129.501 87.8915C128.38 89.2586 127.732 91.7859 125.631 91.9179C124.453 91.9918 123.426 92.2986 122.549 92.8383C121.397 93.5458 120.228 94.2324 119.215 95.1647C117.844 96.4259 116.663 97.6751 115.671 98.9123C114.486 100.395 113.208 102.16 111.837 104.207C110.222 106.617 108.822 109.161 107.636 111.837C106.819 113.68 106.172 115.628 105.697 117.683C104.827 121.447 104.964 124.996 106.107 128.332C106.113 128.349 106.114 128.368 106.109 128.385C106.104 128.402 106.093 128.418 106.079 128.429C106.065 128.44 106.048 128.447 106.03 128.448C106.012 128.449 105.994 128.444 105.978 128.434C102.884 126.467 101.856 123.427 102.075 119.929C102.261 116.957 103.031 114.209 104.387 111.687C104.952 110.636 105.595 109.572 106.314 108.497C107.002 107.472 106.802 106.655 105.715 106.048C105.431 105.89 105.098 105.817 104.716 105.829C101.565 105.922 97.8838 105.139 98.3814 101.032C98.4094 100.812 98.5143 100.764 98.6962 100.888C101.424 102.739 104.465 103.2 107.819 102.27C109.621 101.772 110.622 100.993 111.303 99.2961C111.807 98.0349 112.793 96.6808 114.262 95.2337C116.467 93.0651 119.047 91.5851 122.003 90.7936C122.116 90.7638 122.221 90.7086 122.31 90.6323C122.399 90.556 122.469 90.4604 122.516 90.3529C122.895 89.4755 122.66 88.8509 121.808 88.4791C121.037 88.1413 120.268 87.9135 119.503 87.7955C117.316 87.4578 115.177 87.143 113.087 86.8512C112.563 86.7792 112.03 86.6393 111.486 86.4314C111.459 86.4214 111.435 86.4044 111.416 86.3821C111.398 86.3598 111.385 86.333 111.38 86.3044C111.376 86.2758 111.378 86.2465 111.388 86.2193C111.398 86.1921 111.416 86.1681 111.438 86.1496C114.112 83.9521 119.533 85.577 122.105 87.157C122.842 87.6097 123.391 88.2483 123.658 89.0577C124.036 90.197 125.972 90.098 125.987 88.9678C126.011 86.8492 126.366 84.9554 127.052 83.2865C128.429 79.9387 130.656 77.2154 133.734 75.1168C134.391 74.6671 135.099 74.3403 135.815 74.0075C138.207 72.8923 141.58 72.2627 143.67 74.1394C144.213 74.6251 144.515 75.4106 144.863 76.0492Z" fill="#FEFFFF"/>
<path d="M174.025 90.3069L170.881 89.5057C170.334 89.3662 169.778 89.6967 169.638 90.2438L169.614 90.3368C169.475 90.8839 169.805 91.4405 170.353 91.58L173.496 92.3812C174.043 92.5207 174.6 92.1902 174.739 91.6431L174.763 91.5501C174.902 91.003 174.572 90.4464 174.025 90.3069Z" fill="#FEFFFF"/>
<path d="M165.629 96.1181C166.945 96.9366 165.979 98.3726 164.699 97.9679C163.438 97.5681 162.247 96.9116 161.126 95.9982C160.169 95.2187 160.832 94.0434 161.905 94.3882C163.204 94.8079 164.445 95.3846 165.629 96.1181Z" fill="#FEFFFF"/>
<path d="M126.14 108.5C125.52 104.809 125.717 100.717 127.093 97.1764C127.336 96.5498 127.705 95.8033 128.5 95.8783C129.185 95.9422 129.456 96.33 129.312 97.0415C128.985 98.6335 128.524 100.168 128.377 101.757C127.891 106.95 128.931 112.667 132.232 116.661C132.924 117.496 133.638 118.317 134.376 119.122C134.504 119.262 134.481 119.292 134.307 119.212C131.682 117.981 129.631 116.212 128.152 113.906C127.156 112.351 126.486 110.549 126.14 108.5Z" fill="#FEFFFF"/>
<path d="M153.406 98.6305C155.01 99.7738 156.565 100.734 158.07 101.512C158.718 101.847 158.941 102.366 158.739 103.068C158.707 103.172 158.654 103.264 158.58 103.343C158.216 103.727 157.792 103.812 157.306 103.598C154.788 102.481 152.589 100.993 150.71 99.1342C150.228 98.6575 149.706 97.6741 150.482 97.1765C151.508 96.5199 152.653 98.0939 153.406 98.6305Z" fill="#FEFFFF"/>
<path d="M173.046 117.17C173.874 113.745 173.999 110.154 173.421 106.398C173.205 105.004 172.749 103.703 172.59 102.285C172.552 101.939 172.663 101.672 172.923 101.485C175.514 99.6018 175.936 108.998 175.954 109.984C175.984 111.705 175.885 113.477 175.292 115.129C174.556 117.177 173.42 118.92 171.883 120.357C171.613 120.609 171.576 120.578 171.772 120.264C172.35 119.331 172.774 118.3 173.046 117.17Z" fill="#FEFFFF"/>
<path d="M83.0528 110.935C83.0168 111.309 83.1278 111.627 82.8909 111.969C82.3453 112.752 81.5768 113.158 80.5854 113.186C78.137 113.256 75.7686 112.521 73.48 110.982C71.8521 109.888 70.428 107.93 71.0726 105.919C71.3984 104.899 72.1069 104.291 73.1982 104.093C76.4331 103.505 79.71 105.766 81.7397 108.14C82.3753 108.884 83.1428 110.002 83.0528 110.935ZM73.7109 107.43C74.9311 109.322 77.8722 110.377 79.9408 110.476C79.9581 110.476 79.9751 110.472 79.9901 110.463C80.005 110.454 80.0171 110.442 80.0252 110.426C80.0333 110.411 80.037 110.394 80.0359 110.377C80.0347 110.36 80.0288 110.343 80.0188 110.329C78.7236 108.587 76.691 107.103 74.5114 106.761C74.2815 106.725 74.0737 106.749 73.8878 106.833C73.8337 106.858 73.7854 106.893 73.7463 106.938C73.7073 106.983 73.6784 107.035 73.6615 107.092C73.6447 107.148 73.6404 107.208 73.649 107.266C73.6575 107.325 73.6786 107.38 73.7109 107.43Z" fill="#E8B400"/>
<path d="M79.9368 110.476C77.8681 110.377 74.927 109.322 73.7068 107.43C73.6745 107.38 73.6534 107.325 73.6449 107.266C73.6364 107.208 73.6407 107.148 73.6575 107.092C73.6743 107.035 73.7032 106.983 73.7423 106.938C73.7813 106.893 73.8296 106.858 73.8837 106.833C74.0696 106.749 74.2775 106.725 74.5073 106.761C76.6869 107.103 78.7196 108.587 80.0147 110.329C80.0248 110.343 80.0307 110.359 80.0318 110.377C80.0329 110.394 80.0293 110.411 80.0212 110.426C80.0131 110.442 80.0009 110.454 79.986 110.463C79.9711 110.472 79.954 110.476 79.9368 110.476Z" fill="#FEFFFF"/>
<path d="M167.921 123.631C168.433 124.737 170.145 124.486 171.018 124.03C173.941 122.501 175.943 119.95 177.26 116.952C177.316 116.822 177.398 116.801 177.508 116.889L177.802 117.128C177.906 117.212 178.023 117.242 178.153 117.218C178.575 117.146 178.958 116.954 179.304 116.64C180.141 115.884 181.379 116.235 182.389 116.223C182.873 116.219 183.334 116.339 183.771 116.583C189.018 119.497 189.234 126.923 185.117 130.898C183.75 132.218 182.195 133.131 180.452 133.639C178.956 134.073 177.137 134.541 175.554 134.238C174.318 134.004 173.635 134.376 172.996 135.441C171.953 137.177 170.56 138.719 168.817 140.066C164.464 143.436 159.376 145.421 154.052 146.284C149.111 147.088 144.115 147.12 139.064 146.38C137.705 146.183 136.368 145.887 135.053 145.493C130.799 144.222 126.284 142.003 124.608 137.62C124.128 136.37 124.128 134.979 123.843 133.678C123.547 132.317 122.941 130.97 122.29 129.714C121.431 128.055 120.61 126.413 119.829 124.788C119.777 124.681 119.757 124.566 119.769 124.444C120.285 119.519 121.578 114.77 123.648 110.197C123.776 109.915 123.87 109.926 123.93 110.23C124.73 114.317 126.933 117.62 130.541 120.138C132.65 121.61 134.925 122.565 137.368 123.005C138.144 123.146 139.838 123.376 140.426 122.747C140.979 122.157 141.095 121.62 140.773 121.134C140.537 120.78 140.23 120.45 139.85 120.144C138.539 119.091 137.488 117.79 136.699 116.241C136.565 115.975 136.602 115.948 136.81 116.16C141.466 120.87 148.238 123.22 154.84 122.237C156.318 122.015 158.579 121.581 159.184 120.043C159.226 119.937 159.301 119.899 159.409 119.929C161.995 120.662 164.707 120.832 167.543 120.438C167.883 120.39 168.208 120.299 168.52 120.165C169.036 119.944 169.137 120.067 168.823 120.534C168.226 121.428 167.417 122.54 167.921 123.631ZM150.548 132.033C150.845 131.967 151.119 131.815 151.355 131.585C151.592 131.356 151.786 131.054 151.926 130.697C152.067 130.339 152.151 129.933 152.173 129.502C152.196 129.071 152.157 128.623 152.059 128.184C151.961 127.745 151.805 127.323 151.601 126.943C151.397 126.562 151.148 126.231 150.869 125.967C150.59 125.704 150.286 125.513 149.974 125.406C149.663 125.299 149.35 125.278 149.053 125.345C148.756 125.411 148.482 125.563 148.245 125.792C148.009 126.022 147.815 126.324 147.675 126.681C147.534 127.039 147.45 127.444 147.428 127.876C147.405 128.307 147.444 128.755 147.542 129.194C147.64 129.633 147.795 130.055 148 130.435C148.204 130.816 148.453 131.147 148.732 131.411C149.011 131.674 149.315 131.865 149.627 131.972C149.938 132.079 150.251 132.099 150.548 132.033ZM129.746 132.598C129.932 133.094 130.281 133.459 130.793 133.693C131.774 134.138 132.625 133.96 133.344 133.159C134.208 132.194 133.818 130.758 133.497 129.624C133.305 128.947 132.953 128.355 132.442 127.849C131.425 126.842 129.956 127.181 129.432 128.509C128.916 129.816 129.261 131.315 129.746 132.598ZM143.206 136.964C143.187 136.704 143.065 136.463 142.867 136.293C142.669 136.122 142.412 136.038 142.152 136.057L139.426 136.262C139.166 136.282 138.924 136.404 138.754 136.602C138.584 136.8 138.499 137.057 138.519 137.317L138.526 137.412C138.546 137.673 138.668 137.914 138.865 138.084C139.063 138.254 139.32 138.339 139.58 138.319L142.307 138.114C142.567 138.095 142.809 137.973 142.979 137.775C143.149 137.577 143.233 137.32 143.214 137.06L143.206 136.964Z" fill="#FEFFFF"/>
<path d="M74.0399 120.705C75.7548 120.498 78.0573 120.441 79.4034 121.518C80.7436 122.594 80.4618 124.177 79.3945 125.328C78.2892 126.515 76.8571 127.488 75.0983 128.245C73.2844 129.028 70.2054 129.48 68.5115 128.14C66.8656 126.842 67.2584 124.845 68.3856 123.385C69.6568 121.733 72.0373 120.945 74.0399 120.705ZM70.2894 125.976C72.0972 127.058 75.7069 125.145 77.1369 123.826C77.1744 123.792 77.1982 123.746 77.2037 123.695C77.2092 123.645 77.1961 123.595 77.1669 123.553C77.1109 123.473 77.035 123.428 76.9391 123.418C74.8884 123.205 71.3567 123.568 70.1665 125.469C70.1406 125.51 70.1233 125.556 70.1155 125.603C70.1076 125.651 70.1095 125.7 70.121 125.747C70.1324 125.795 70.1532 125.839 70.1821 125.878C70.2111 125.917 70.2475 125.951 70.2894 125.976Z" fill="#E8B400"/>
<path d="M77.1356 123.826C75.7055 125.145 72.0959 127.058 70.288 125.976C70.2462 125.951 70.2097 125.917 70.1808 125.878C70.1519 125.839 70.1311 125.795 70.1196 125.747C70.1082 125.7 70.1063 125.651 70.1141 125.603C70.1219 125.556 70.1393 125.51 70.1651 125.469C71.3553 123.568 74.887 123.205 76.9377 123.418C77.0336 123.428 77.1096 123.473 77.1656 123.553C77.1948 123.594 77.2079 123.645 77.2023 123.695C77.1968 123.746 77.1731 123.792 77.1356 123.826Z" fill="#FEFFFF"/>
<path d="M147.543 129.194C147.955 131.041 149.301 132.312 150.549 132.033C151.796 131.754 152.473 130.031 152.06 128.184C151.647 126.337 150.301 125.066 149.054 125.345C147.806 125.624 147.13 127.347 147.543 129.194Z" fill="#181C20"/>
<path d="M129.751 132.598C129.265 131.315 128.92 129.816 129.436 128.509C129.96 127.181 131.429 126.842 132.446 127.849C132.957 128.355 133.309 128.947 133.501 129.624C133.822 130.758 134.212 132.194 133.348 133.159C132.629 133.96 131.778 134.138 130.797 133.693C130.285 133.459 129.936 133.094 129.751 132.598Z" fill="#181C20"/>
<path d="M121.3 135.53C121.436 137.803 122.125 139.823 123.368 141.589C123.524 141.813 123.471 141.887 123.209 141.811C121.335 141.268 119.973 140.135 119.123 138.415C118.358 136.87 118.162 135.3 118.535 133.705C118.755 132.763 119.121 131.988 119.633 131.378C119.655 131.352 119.684 131.332 119.716 131.318C119.748 131.305 119.782 131.3 119.816 131.302C119.85 131.305 119.883 131.316 119.913 131.333C119.942 131.351 119.966 131.376 119.984 131.405C120.775 132.702 121.214 134.077 121.3 135.53Z" fill="#FEFFFF"/>
<path d="M80.0513 135.515C81.3014 134.43 83.442 133.351 84.9321 134.454C85.6416 134.98 85.9824 135.791 85.9544 136.889C85.8945 139.092 84.6413 141.356 82.8364 142.738C81.4274 143.82 79.1758 143.955 78.0486 142.396C76.3817 140.094 78.2854 137.047 80.0513 135.515ZM82.9084 136.895C81.8531 137.368 80.0273 139.002 80.1022 140.285C80.1067 140.364 80.1288 140.44 80.167 140.509C80.2052 140.578 80.2584 140.637 80.3227 140.682C80.387 140.728 80.4607 140.758 80.5383 140.771C80.6159 140.783 80.6954 140.778 80.7708 140.756C82.0719 140.369 83.0283 138.208 83.1812 137.101C83.1856 137.067 83.1808 137.031 83.1672 136.999C83.1537 136.966 83.1319 136.938 83.1041 136.917C83.0763 136.896 83.0436 136.883 83.0092 136.879C82.9748 136.875 82.94 136.88 82.9084 136.895Z" fill="#E8B400"/>
<path d="M142.152 136.057L139.426 136.262C138.884 136.303 138.478 136.775 138.519 137.317L138.526 137.412C138.567 137.954 139.039 138.36 139.581 138.319L142.307 138.114C142.849 138.074 143.255 137.602 143.214 137.06L143.207 136.964C143.166 136.423 142.694 136.017 142.152 136.057Z" fill="#181C20"/>
<path d="M210.384 206.2C210.393 205.589 209.779 205.232 209.248 205.166C208.94 205.128 208.598 205.188 208.223 205.346C203.821 207.199 199.669 208.566 195.127 209.315C193.65 209.559 192.29 209.654 191.047 209.6C182.281 209.226 173.519 208.842 164.763 208.446C164.635 208.44 164.566 208.373 164.556 208.245C164.452 206.854 164.147 205.537 163.642 204.294C162.209 200.782 160.162 197.768 157.502 195.252C156.652 194.45 155.717 194.06 154.695 194.082C154.599 194.084 154.504 194.057 154.423 194.005C154.342 193.953 154.279 193.877 154.241 193.789C154.204 193.7 154.193 193.602 154.212 193.507C154.23 193.413 154.276 193.326 154.345 193.258C154.565 193.038 154.82 192.86 155.112 192.724C157.297 191.697 159.447 190.651 161.564 189.588C162.394 189.168 163.315 188.926 164.091 188.425C164.417 188.213 164.75 188.027 165.09 187.867C166.541 187.192 168.026 186.433 169.545 185.592C171.689 184.405 174.319 183.074 177.433 181.601C177.864 181.398 178.333 181.278 178.839 181.242C183.348 180.918 187.177 180.943 190.327 181.317C191.241 181.425 192.116 181.49 192.954 181.514C193.068 181.516 193.181 181.482 193.274 181.416C193.604 181.176 193.858 180.832 194.036 180.384C194.471 179.278 193.319 178.582 192.375 178.441C190.84 178.21 189.465 178.085 188.25 178.067C186.111 178.035 183.9 178.009 181.618 177.989C179.783 177.971 178.074 178.277 176.491 178.906C175.194 179.424 173.924 180.01 172.681 180.666C172.577 180.72 172.547 180.693 172.591 180.585C174.855 175.009 177.971 170.166 181.939 166.057C183.102 164.853 184.683 163.383 186.682 161.646C187.119 161.267 187.581 160.922 188.067 160.612C188.711 160.204 189.239 159.677 189.884 159.266C190.917 158.606 191.94 157.991 192.954 157.419C194.096 156.775 193.88 155.228 192.603 155.03C191.341 154.832 189.308 156.274 188.247 157.041C182.209 161.392 177.01 166.662 173.421 173.081C172.226 175.218 170.949 178.038 169.59 181.541C169.209 182.525 168.172 182.858 167.335 183.298C163.14 185.503 158.78 187.713 154.255 189.93C153.831 190.138 153.361 190.442 152.846 190.841C151.455 191.918 150.807 193.156 151.269 195.015C151.297 195.123 151.257 195.189 151.149 195.213C148.99 195.704 146.644 196.378 144.109 197.233C142.7 197.71 141.54 198.082 140.419 199.095C139.05 200.334 137.777 201.552 136.599 202.75C136.581 202.768 136.559 202.782 136.534 202.789C136.509 202.796 136.483 202.797 136.458 202.791C136.433 202.785 136.409 202.772 136.39 202.755C136.37 202.737 136.356 202.715 136.347 202.69C134.926 198.243 133.572 194.017 132.285 190.014C131.377 187.193 130.177 184.075 129.14 181.122C127.842 177.437 126.394 173.809 125.015 170.14C124.99 170.076 124.981 170.008 124.986 169.939C124.991 169.871 125.011 169.804 125.045 169.744C128.196 164.063 132.021 158.969 136.308 154.115C137.809 152.416 139.22 151.105 140.539 150.182C140.819 149.986 141.155 149.898 141.549 149.918C143.16 150 144.583 150.053 145.818 150.077C145.845 150.077 145.871 150.084 145.895 150.097C145.919 150.109 145.939 150.127 145.954 150.149C145.969 150.17 145.979 150.195 145.983 150.221C145.986 150.248 145.983 150.274 145.974 150.299C145.09 152.811 146.844 155.428 148.93 156.796C151.991 158.801 156.605 158.534 159.984 157.317C162.83 156.29 165.413 154.902 167.734 153.153C169.887 151.53 171.756 149.35 173.343 146.614C174.527 144.572 175.062 142.526 174.95 140.477C174.924 139.999 174.79 139.53 174.549 139.068C174.514 139.002 174.496 138.929 174.497 138.855C174.498 138.781 174.518 138.709 174.555 138.645L175.22 137.491C175.251 137.438 175.295 137.394 175.349 137.364C175.402 137.335 175.462 137.32 175.523 137.323C177.957 137.437 180.303 137.032 182.559 136.109C182.751 136.03 182.968 136.03 183.162 136.109C185.786 137.192 188.272 138.696 190.618 140.621C191.969 141.728 193.117 142.767 194.063 143.736C195.994 145.713 197.768 147.882 199.387 150.245C202.991 155.503 205.963 161.308 208.304 167.657C211.038 175.081 213.136 183.199 214.486 190.347C214.607 191.002 214.742 191.689 214.89 192.406C216.01 197.845 216.936 203.531 217.669 209.465C217.671 209.481 217.67 209.496 217.665 209.511C217.66 209.526 217.652 209.539 217.641 209.551C217.631 209.562 217.618 209.571 217.604 209.577C217.589 209.583 217.574 209.586 217.559 209.585C215.658 209.541 213.705 209.537 211.7 209.573C211.289 209.581 210.891 209.566 210.507 209.528C209.976 209.474 209.521 209.642 209.002 209.606C208.299 209.554 207.58 209.552 206.847 209.6C206.803 209.602 206.759 209.602 206.715 209.6C206.573 209.588 206.504 209.554 206.508 209.498C206.512 209.456 206.535 209.427 206.577 209.411C207.282 209.137 207.994 208.893 208.711 208.677C209.413 208.463 209.996 208.004 210.462 207.301C210.498 207.247 210.52 207.185 210.528 207.121C210.536 207.057 210.529 206.992 210.507 206.932C210.421 206.692 210.38 206.448 210.384 206.2ZM161.69 192.712C161.582 193.136 161.663 193.531 161.933 193.896C162.792 195.064 163.582 196.214 164.301 197.347C165.91 199.885 167.139 202.689 167.989 205.757C168.237 206.656 168.829 207.04 169.767 206.908C169.789 206.906 169.809 206.9 169.827 206.89C170.652 206.48 170.945 205.835 170.705 204.953C169.77 201.541 168.26 198.331 166.175 195.323C165.607 194.508 164.9 193.663 164.052 192.787C163.541 192.257 162.984 192.026 162.382 192.092C162.211 192.11 162.06 192.181 161.93 192.307C161.81 192.421 161.73 192.556 161.69 192.712ZM176.12 196.84C176.494 197.746 176.77 198.648 177.352 199.449C178.536 201.089 180.497 199.701 179.708 197.908C179.396 197.2 177.403 192.868 176.027 194.673C175.568 195.275 175.856 196.205 176.12 196.84ZM174.51 199.719C173.775 198.07 173.166 196.403 172.105 194.973C171.344 193.95 169.893 194.385 170.333 195.803C170.861 197.503 171.275 199.374 172.075 200.93C172.483 201.721 173.685 202.099 174.318 201.281C174.693 200.795 174.757 200.274 174.51 199.719Z" fill="#FEFFFF"/>
<path d="M80.1038 140.285C80.0288 139.002 81.8547 137.368 82.91 136.895C82.9416 136.88 82.9764 136.875 83.0107 136.879C83.0451 136.883 83.0779 136.896 83.1057 136.917C83.1335 136.938 83.1552 136.966 83.1688 136.999C83.1823 137.031 83.1872 137.067 83.1828 137.101C83.0299 138.208 82.0735 140.369 80.7724 140.756C80.6969 140.778 80.6175 140.783 80.5399 140.77C80.4623 140.758 80.3886 140.728 80.3243 140.682C80.26 140.637 80.2068 140.578 80.1686 140.509C80.1304 140.44 80.1083 140.364 80.1038 140.285Z" fill="#FEFFFF"/>
<path d="M148.623 150.041C151.046 149.927 153.54 149.516 155.878 149.055C159.442 148.349 162.957 147.085 166.423 145.262C168.439 144.203 170.317 142.866 172.056 141.251C172.074 141.234 172.097 141.223 172.122 141.22C172.146 141.216 172.171 141.22 172.194 141.231C172.216 141.241 172.235 141.258 172.248 141.279C172.26 141.3 172.267 141.325 172.266 141.35C172.25 141.771 172.171 142.186 172.029 142.594C171.02 145.474 169.383 147.921 167.118 149.936C165.829 151.081 164.465 152.043 163.026 152.82C162.152 153.29 161.202 153.735 160.175 154.154C157.436 155.268 154.781 155.575 152.209 155.078C149.894 154.631 147.916 152.748 148.413 150.224C148.423 150.174 148.448 150.129 148.487 150.096C148.525 150.063 148.573 150.043 148.623 150.041Z" fill="#FEFFFF"/>
<path d="M53.8546 157.872C52.9492 158.091 52.7963 159.41 53.6537 159.755C54.0835 159.929 54.5122 160.018 54.9399 160.022C62.8747 160.079 70.7496 160.292 78.5645 160.66C80.4273 160.748 82.3281 160.824 84.2668 160.888C86.4034 160.96 88.2992 161.042 89.9541 161.134C96.7077 161.508 104.04 161.9 111.951 162.312C112.335 162.33 112.679 162.324 113.057 162.249C113.191 162.221 113.262 162.276 113.27 162.414C113.32 163.393 113.533 164.363 113.908 165.322C118.488 177.016 122.414 188.267 125.688 199.074C127.221 204.137 128.646 208.818 129.963 213.117C130.289 214.184 130.676 215.312 131.123 216.502C131.133 216.528 131.136 216.556 131.133 216.584C131.129 216.612 131.119 216.638 131.102 216.661C131.086 216.684 131.064 216.702 131.039 216.715C131.014 216.727 130.986 216.733 130.958 216.733C127.756 216.631 124.558 216.706 121.359 216.697C110.818 216.669 100.276 216.524 89.7352 216.262C87.2968 216.2 85.0823 216.105 83.0916 215.977C79.4699 215.745 75.8533 215.527 72.2416 215.323C71.9758 215.31 71.7909 215.18 71.687 214.934C70.2699 211.556 68.9368 208.206 67.6876 204.884C67.4268 204.189 67.079 203.538 66.8122 202.834C63.3964 193.819 60.4683 185.754 58.0279 178.636C57.7761 177.899 57.4643 177.23 57.2034 176.46C55.8383 172.392 54.4812 168.326 53.1321 164.261C52.4645 162.25 51.8009 160.146 51.1414 157.95C50.8516 156.987 50.6367 156.093 50.4968 155.27C50.4388 154.928 50.5837 154.756 50.9315 154.754C59.6279 154.716 68.3162 154.83 76.9965 155.096C83.0106 155.282 88.9437 155.683 95.0538 155.962C101.23 156.244 106.105 156.4 109.678 156.43C111.651 156.446 113.393 156.572 114.904 156.808C115.818 156.952 116.799 159.377 117.107 160.12C121.217 170.042 125.077 180.297 128.689 190.886C128.911 191.536 129.127 192.189 129.336 192.844C129.548 193.504 129.763 194.153 129.981 194.793C130.173 195.354 130.362 195.933 130.548 196.529C132.686 203.406 134.934 210.202 137.29 216.915C137.366 217.131 137.291 217.259 137.065 217.299C136.442 217.409 135.726 217.427 134.919 217.353C134.705 217.333 134.556 217.224 134.472 217.026C133.821 215.459 133.23 213.833 132.7 212.149C131.621 208.725 130.488 205.029 129.3 201.062C126.71 192.415 123.685 183.559 120.225 174.493C118.518 170.022 116.817 165.977 115.12 162.357C114.976 162.048 114.814 161.871 114.589 161.628C114.521 161.553 114.488 161.465 114.49 161.365C114.532 160.093 113.923 159.421 112.664 159.347C100.508 158.637 91.2622 158.18 84.9264 157.974C78.7364 157.774 72.8452 157.62 67.2529 157.512C63.4654 157.438 59.5889 157.477 55.6235 157.629C55.0119 157.653 54.4222 157.734 53.8546 157.872Z" fill="#FEFFFF"/>
<path d="M225.071 183.055C225.691 182.102 226.549 181.385 227.46 180.684C228.506 179.874 230.014 181.176 228.947 182.264C228.134 183.093 227.323 183.805 226.516 184.399C225.418 185.202 224.408 184.075 225.071 183.055Z" fill="#FEFFFF"/>
<path d="M229.588 189.203C230.593 189.111 231.363 188.536 231.307 187.917C231.251 187.299 230.39 186.872 229.384 186.964C228.378 187.055 227.608 187.631 227.664 188.249C227.721 188.867 228.582 189.294 229.588 189.203Z" fill="#FEFFFF"/>
<path d="M161.687 192.712C161.727 192.556 161.807 192.421 161.927 192.307C162.057 192.182 162.208 192.11 162.379 192.092C162.981 192.026 163.538 192.258 164.049 192.787C164.897 193.663 165.604 194.508 166.172 195.324C168.257 198.332 169.767 201.541 170.702 204.953C170.942 205.835 170.649 206.48 169.824 206.89C169.806 206.9 169.786 206.906 169.764 206.908C168.826 207.04 168.234 206.656 167.986 205.757C167.136 202.689 165.907 199.886 164.298 197.347C163.579 196.214 162.789 195.064 161.93 193.896C161.66 193.531 161.579 193.136 161.687 192.712Z" fill="#181C20"/>
<path d="M176.116 196.84C175.852 196.205 175.564 195.276 176.023 194.673C177.399 192.868 179.393 197.2 179.705 197.908C180.493 199.701 178.532 201.089 177.348 199.449C176.767 198.648 176.491 197.746 176.116 196.84Z" fill="#181C20"/>
<path d="M172.104 194.973C173.165 196.403 173.773 198.07 174.508 199.719C174.756 200.274 174.692 200.795 174.316 201.281C173.683 202.099 172.481 201.721 172.074 200.93C171.273 199.374 170.859 197.503 170.332 195.803C169.891 194.385 171.342 193.95 172.104 194.973Z" fill="#181C20"/>
<path d="M157.199 206.869C156.563 206.791 156.542 206.125 155.906 206.042C154.26 205.823 152.983 205.826 151.487 206.611C150.768 206.991 150.053 207.416 149.344 207.885C148.7 208.311 148.149 208.243 147.692 207.681C147.632 207.609 147.601 207.516 147.606 207.421C147.611 207.327 147.651 207.238 147.719 207.172C148.279 206.611 150.183 204.914 149.212 204.045C148.363 203.283 147.161 204.252 146.489 204.893C145.642 205.707 144.823 206.468 144.031 207.178C143.892 207.303 143.726 207.393 143.545 207.441C143.365 207.489 143.176 207.493 142.994 207.454L142.727 207.397C142.327 207.309 142.279 207.129 142.583 206.857C143.379 206.145 144.096 205.405 144.736 204.635C145.041 204.264 145.191 203.727 144.808 203.34C144.29 202.819 143.755 202.755 143.204 203.148C142.144 203.904 141.209 204.762 140.397 205.724C139.936 206.271 139.346 206.568 138.629 206.614C138.395 206.63 138.187 206.588 138.005 206.488C137.373 206.144 137.316 205.724 137.834 205.226C139.227 203.881 140.642 202.532 142.079 201.179C142.465 200.817 142.915 200.54 143.428 200.348C146.698 199.131 149.89 198.157 153.004 197.425C153.649 197.272 154.323 197.311 154.932 197.023C155.029 196.977 155.137 196.961 155.243 196.978C155.349 196.995 155.446 197.045 155.523 197.119C157.805 199.318 159.641 202.063 161.03 205.355C161.24 205.855 161.391 206.368 161.483 206.896C161.489 206.932 161.488 206.969 161.478 207.005C161.469 207.04 161.451 207.073 161.427 207.101C161.403 207.129 161.373 207.151 161.339 207.166C161.305 207.181 161.268 207.188 161.231 207.187C159.956 207.143 158.612 207.037 157.199 206.869Z" fill="#FEFFFF"/>
<path d="M175.697 214.853C175.519 215.115 175.575 215.31 175.865 215.44C177.469 216.148 179.94 216.094 181.567 215.956C184.071 215.743 186.184 215.911 188.55 215.998C189.159 216.019 189.824 216.187 190.385 216.391C191.272 216.717 191.244 216.906 190.301 216.96C189.671 216.996 189.074 217.014 188.508 217.014C174.025 217.008 159.65 216.9 145.381 216.691C144.038 216.673 142.698 216.574 141.358 216.58C141.307 216.58 141.258 216.564 141.216 216.534C141.175 216.505 141.144 216.463 141.127 216.415L139.952 213.024C139.941 212.994 139.939 212.962 139.945 212.931C139.951 212.901 139.965 212.872 139.985 212.848C140.006 212.825 140.032 212.807 140.061 212.798C140.091 212.788 140.122 212.786 140.152 212.793C142.074 213.198 144.086 213.171 146.062 213.363C151.37 213.884 156.556 214.371 161.618 214.823C162.628 214.911 163.658 215.018 164.709 215.144C166.334 215.339 167.909 215.409 169.434 215.353C169.984 215.333 170.48 215.39 170.921 215.524C171.755 215.776 174.519 216.175 174.978 215.039C175.445 213.887 173.611 213.396 172.804 213.249C170.136 212.763 167.558 212.706 164.997 212.385C161.547 211.951 158.291 211.726 154.864 211.591C151.449 211.456 148.1 211.174 144.587 210.814C142.946 210.646 141.187 210.548 139.31 210.518C139.18 210.516 139.089 210.456 139.037 210.338L138.656 209.501C138.645 209.476 138.64 209.448 138.641 209.42C138.642 209.392 138.65 209.365 138.664 209.341C138.677 209.317 138.697 209.296 138.72 209.281C138.743 209.265 138.77 209.256 138.797 209.252L140.072 209.096C140.203 209.08 140.312 209.124 140.398 209.228L140.641 209.528C140.721 209.626 140.82 209.695 140.938 209.735C141.725 210.001 142.52 210.161 143.321 210.215C144.134 210.266 144.793 209.912 145.459 209.507C145.5 209.482 145.545 209.466 145.592 209.459C145.639 209.452 145.687 209.455 145.733 209.467C145.779 209.48 145.822 209.501 145.86 209.531C145.897 209.56 145.928 209.597 145.951 209.639C146.469 210.586 148.727 210.937 149.554 210.625C150.396 210.312 151.299 209.931 152.265 209.483C152.353 209.443 152.449 209.424 152.546 209.427C152.643 209.43 152.737 209.456 152.822 209.501C153.12 209.663 153.45 209.761 153.812 209.795C159.924 210.363 164.175 210.859 166.565 211.285C169.811 211.865 172.938 212.39 175.946 212.862C175.964 212.864 176.84 212.977 178.572 213.201C179.476 213.317 180.478 213.501 181.579 213.752C181.627 213.762 181.645 213.795 181.633 213.851C181.621 213.907 181.587 213.934 181.532 213.932L176.657 213.815C176.49 213.811 176.327 213.863 176.194 213.962C176.06 214.062 175.965 214.203 175.922 214.364C175.874 214.538 175.799 214.701 175.697 214.853Z" fill="#FEFFFF"/>
</g>
<defs>
<filter id="filter0_di_1022_10657" x="125" y="-70" width="431" height="437" filterUnits="userSpaceOnUse" color-interpolation-filters="sRGB">
<feFlood flood-opacity="0" result="BackgroundImageFix"/>
<feColorMatrix in="SourceAlpha" type="matrix" values="0 0 0 0 0 0 0 0 0 0 0 0 0 0 0 0 0 0 127 0" result="hardAlpha"/>
<feOffset dx="2" dy="4"/>
<feGaussianBlur stdDeviation="1"/>
<feComposite in2="hardAlpha" operator="out"/>
<feColorMatrix type="matrix" values="0 0 0 0 0.176471 0 0 0 0 0.192157 0 0 0 0 0.207843 0 0 0 0.18 0"/>
<feBlend mode="normal" in2="BackgroundImageFix" result="effect1_dropShadow_1022_10657"/>
<feBlend mode="normal" in="SourceGraphic" in2="effect1_dropShadow_1022_10657" result="shape"/>
<feColorMatrix in="SourceAlpha" type="matrix" values="0 0 0 0 0 0 0 0 0 0 0 0 0 0 0 0 0 0 127 0" result="hardAlpha"/>
<feOffset dx="4" dy="-4"/>
<feGaussianBlur stdDeviation="4.6"/>
<feComposite in2="hardAlpha" operator="arithmetic" k2="-1" k3="1"/>
<feColorMatrix type="matrix" values="0 0 0 0 0.133063 0 0 0 0 0.245587 0 0 0 0 0.358111 0 0 0 0.22 0"/>
<feBlend mode="normal" in2="shape" result="effect2_innerShadow_1022_10657"/>
</filter>
<clipPath id="clip0_1022_10657">
<rect width="231" height="296" fill="white"/>
</clipPath>
</defs>
</svg>
