<svg width="28" height="32" viewBox="0 0 28 32" fill="none" xmlns="http://www.w3.org/2000/svg">
<g id="harvard_business_school__boston_ma_logo.svg">
<g id="layer1">
<path id="path8130" d="M26.4559 8.72559C26.4559 18.6853 21.091 26.4248 13.5585 31.2132C6.02663 26.4248 0.662109 18.6853 0.662109 8.72559H26.4559Z" fill="#E4E8EB"/>
<path id="path8142" d="M18.6518 8.72559H26.4559C26.4559 18.842 21.0906 26.4813 13.5585 31.2698C6.02663 26.4813 0.662109 18.842 0.662109 8.72559H8.26594" stroke="#6D7173" stroke-width="0.823024" stroke-linecap="square"/>
<path id="path8154" d="M26.4559 8.55371C26.4559 8.82492 26.4394 8.61096 26.438 8.7251C26.2503 8.63029 26.0235 8.7251 25.7992 8.7251C24.9578 8.7251 24.4136 9.45895 24.4136 10.2228C24.4136 10.3806 24.4419 10.6425 24.4885 10.7803C24.3137 10.6991 24.1202 10.6486 23.9164 10.6486C23.1505 10.6486 22.5304 11.2687 22.5304 12.0329C22.5304 12.2913 22.6031 12.5303 22.726 12.7364C22.5153 12.6076 22.2696 12.5303 22.0049 12.5303C21.125 12.5303 20.6185 13.2302 20.6185 14.071C20.6185 14.3204 20.6382 14.364 20.7543 14.5669C20.5418 14.4359 20.3319 14.3823 20.0647 14.3823C19.2988 14.3823 18.6794 15.1583 18.6794 15.9226C18.6794 16.1501 18.7052 16.2292 18.8023 16.4178C18.6156 16.323 18.434 16.3205 18.2097 16.3205C17.4438 16.3205 16.8241 17.0117 16.8241 17.7756C16.8241 18.5402 17.4438 19.1596 18.2097 19.1596C18.4243 19.1596 18.6253 19.1091 18.8076 19.0222C18.7084 19.2125 18.6926 19.3564 18.6926 19.5854C18.6926 20.3489 19.3135 20.969 20.0783 20.969C20.3197 20.969 20.4978 20.98 20.6952 20.872C20.535 21.0946 20.5902 21.2999 20.5902 21.5515C20.5902 22.3161 21.3246 22.822 22.0898 22.822C22.1922 22.822 22.2882 22.7462 22.3842 22.7254C21.2773 24.392 19.8673 26.0912 18.4211 27.4763C18.703 27.2172 19.0638 26.8304 19.0638 26.4172C19.0638 25.6358 18.4293 25.0021 17.647 25.0021C17.2701 25.0021 17.0244 25.0178 16.7704 25.2572C16.9678 25.0185 17.0842 24.7069 17.0842 24.3724C17.0842 23.6081 16.4637 22.9898 15.6985 22.9898C15.3636 22.9898 15.0569 23.1036 14.8176 23.3022C14.9688 23.0811 15.058 22.8091 15.058 22.52C15.058 21.8048 14.7718 21.1296 13.5585 21.1296C12.857 21.1296 12.3161 21.7898 12.3161 22.5064C12.3161 22.7948 12.405 23.0664 12.5565 23.2879C12.3165 23.0904 12.0105 22.9752 11.6756 22.9752C10.9101 22.9752 10.29 23.5938 10.29 24.3581C10.29 24.6933 10.4057 25.0035 10.6041 25.2447C10.3501 25.0035 10.0044 24.8604 9.62651 24.8604C8.84484 24.8604 8.21077 25.4934 8.21077 26.2744C8.21077 26.6873 8.41461 27.2172 8.69654 27.4763C7.25035 26.0912 5.95427 24.5631 4.84769 22.8964C4.9437 22.9179 5.12532 22.9498 5.22706 22.9498C5.9926 22.9498 6.6127 22.3311 6.6127 21.5658C6.6127 21.3135 6.53998 21.076 6.4214 20.872C6.61951 20.9801 6.84125 21.0409 7.08234 21.0409C7.84717 21.0409 8.46763 20.4205 8.46763 19.6566C8.46763 19.4272 8.40888 19.2125 8.31036 19.0222C8.49163 19.1091 8.69331 19.1596 8.90753 19.1596C9.67343 19.1596 10.2939 18.5402 10.2939 17.7756C10.2939 17.0117 9.67343 16.3913 8.90753 16.3913C8.684 16.3913 8.473 16.4518 8.28636 16.5455C8.38344 16.358 8.43861 16.1501 8.43861 15.9226C8.43861 15.1583 7.81851 14.539 7.05297 14.539C6.78537 14.539 6.53246 14.6206 6.32074 14.7515C6.43645 14.5486 6.49878 14.3204 6.49878 14.071C6.49878 13.3067 5.87832 12.6859 5.11314 12.6859C4.84805 12.6859 4.60194 12.7636 4.39166 12.8938C4.51454 12.6859 4.5869 12.448 4.5869 12.1897C4.5869 11.4258 3.9668 10.8053 3.20126 10.8053C2.96482 10.8053 2.73985 10.8737 2.54426 10.9782C2.64779 10.7846 2.70403 10.5721 2.70403 10.337C2.70403 9.57308 2.08357 8.7251 1.31803 8.7251C1.09485 8.7251 0.867376 8.63029 0.679663 8.7251C0.675006 8.3648 0.662109 8.98951 0.662109 8.55371H8.60339C8.40887 8.94872 8.26415 9.12261 8.26415 9.45429C8.26415 10.2186 8.88461 10.8379 9.64979 10.8379C9.93673 10.8379 10.1982 10.7517 10.4189 10.6025C10.2867 10.8143 10.2043 11.0665 10.2043 11.3349C10.2043 12.0999 10.8248 12.7189 11.59 12.7189C11.8923 12.7189 12.1721 12.6219 12.3999 12.4573C12.2574 12.6748 12.1732 12.936 12.1732 13.2151C12.1732 13.9805 12.7933 14.6005 13.5585 14.6005C14.324 14.6005 14.9441 13.9805 14.9441 13.2151C14.9441 12.936 14.8678 12.6877 14.7241 12.4702C14.9262 12.5836 15.1658 12.6623 15.4137 12.6623C16.1793 12.6623 16.7994 12.0426 16.7994 11.2773C16.7994 11.069 16.7596 10.8687 16.6776 10.6912C16.8979 10.8404 17.0523 10.8379 17.3389 10.8379C18.1044 10.8379 18.6532 10.2186 18.6532 9.45429C18.6532 9.12261 18.4798 8.94872 18.286 8.55371H26.4559Z" fill="#6D7173"/>
<path id="path8158" d="M18.8358 10.5498C18.6778 10.5498 18.5352 10.6368 18.4753 10.9534C18.3564 11.5814 18.1316 11.8833 17.8747 12.1202C17.6877 12.2916 17.4259 12.2963 17.3335 12.2913C17.2407 12.2859 17.1479 12.2811 17.1096 12.5115C17.0705 12.743 17.2067 12.9683 17.2848 13.0706C17.3607 13.1722 17.4089 13.1435 17.4963 13.0762C17.6722 12.9413 17.8628 12.7265 18.0158 12.5065C18.1716 12.2822 18.2616 12.3891 18.1524 12.6088C18.0435 12.8285 17.819 13.1401 17.6503 13.3065C17.527 13.4278 17.5516 13.506 17.601 13.5972C17.6501 13.6881 17.8027 13.8336 17.8529 13.8712C17.9016 13.908 18.1032 14.027 18.2358 13.7683C18.3665 13.511 18.4704 13.0275 18.4865 12.8285C18.503 12.636 18.6337 12.667 18.6505 12.8341C18.6584 12.9153 18.655 12.9467 18.655 13.1617C18.655 13.3764 18.5897 13.6501 18.4865 13.9142C18.3826 14.1772 18.4755 14.1929 18.5464 14.2312C18.6177 14.2688 18.6939 14.2899 18.8358 14.2899C18.978 14.2899 19.0541 14.2688 19.1257 14.2312C19.197 14.1929 19.2901 14.1772 19.1862 13.9142C19.0819 13.6501 19.016 13.3764 19.016 13.1617C19.016 12.9467 19.0137 12.9153 19.0216 12.8341C19.0377 12.667 19.169 12.636 19.1862 12.8285C19.2016 13.0275 19.3062 13.511 19.4369 13.7683C19.5684 14.027 19.7702 13.908 19.8192 13.8712C19.8687 13.8336 20.0217 13.6881 20.0711 13.5972C20.1202 13.506 20.1455 13.4278 20.0219 13.3065C19.8531 13.1401 19.6288 12.8285 19.5192 12.6088C19.4096 12.3891 19.4996 12.2822 19.6558 12.5065C19.808 12.7265 19.9999 12.9413 20.1747 13.0762C20.2639 13.1435 20.3111 13.1722 20.3874 13.0706C20.464 12.9683 20.6011 12.743 20.5631 12.5115C20.5244 12.2811 20.4096 12.2331 20.3168 12.227C20.1646 12.2166 19.8984 12.2259 19.7118 12.0554C19.4549 11.8188 19.3161 11.5814 19.1968 10.9534C19.1373 10.6368 18.9941 10.5498 18.8358 10.5498ZM8.22206 10.6353C8.063 10.6353 7.92085 10.7216 7.86103 11.039C7.74209 11.6669 7.51672 11.9692 7.25987 12.2046C7.07395 12.3756 6.81138 12.3818 6.71861 12.3768C6.62546 12.3714 6.5334 12.3663 6.49471 12.5971C6.4571 12.8282 6.5936 13.0538 6.66991 13.1561C6.74657 13.2581 6.79448 13.229 6.88261 13.1617C7.05742 13.0275 7.24908 12.8117 7.40204 12.592C7.55787 12.3673 7.64788 12.4734 7.53862 12.6938C7.42936 12.9145 7.20506 13.2262 7.03598 13.3926C6.91274 13.5132 6.93764 13.5915 6.98672 13.6828C7.03615 13.7744 7.1886 13.9184 7.23804 13.9567C7.28712 13.9932 7.48959 14.1127 7.62034 13.8544C7.75145 13.5971 7.85575 13.1136 7.87222 12.9146C7.88764 12.7214 8.0199 12.7533 8.03567 12.9197C8.04355 13.0009 8.04126 13.0321 8.04126 13.2478C8.04126 13.4621 7.9761 13.7369 7.87222 13.9992C7.76797 14.2629 7.86118 14.2795 7.93211 14.3156C8.00339 14.3546 8.07947 14.376 8.22205 14.376C8.36391 14.376 8.4403 14.3546 8.51087 14.3156C8.58252 14.2795 8.67557 14.2629 8.57133 13.9992C8.46708 13.7369 8.40228 13.4621 8.40229 13.2478C8.40229 13.0321 8.39971 13.0009 8.40788 12.9197C8.42398 12.7533 8.5552 12.7214 8.57132 12.9146C8.58745 13.1136 8.69188 13.5971 8.82264 13.8544C8.95411 14.1127 9.15606 13.9932 9.2055 13.9567C9.25458 13.9184 9.40774 13.7744 9.45682 13.6828C9.50626 13.5915 9.53044 13.5132 9.40757 13.3926C9.23848 13.2262 9.0149 12.9145 8.90492 12.6938C8.79602 12.4734 8.88532 12.3673 9.0415 12.592C9.19446 12.8117 9.38556 13.0275 9.56037 13.1617C9.64886 13.229 9.69697 13.2581 9.77363 13.1561C9.85029 13.0538 9.98716 12.8282 9.94883 12.5971C9.9105 12.3663 9.79625 12.319 9.70311 12.3125C9.5505 12.3021 9.28395 12.312 9.09803 12.1409C8.84082 11.9037 8.70144 11.6669 8.58251 11.039C8.52233 10.7216 8.3804 10.6353 8.22206 10.6353ZM17.7924 11.0446C17.6839 11.0446 17.6741 11.1515 17.7174 11.276C17.7601 11.3995 17.825 11.517 17.8462 11.6193C17.8677 11.722 17.8949 11.7703 17.9805 11.6679L17.9928 11.6661C18.0627 11.5531 18.1329 11.4227 18.1809 11.2602C18.2278 11.0992 18.2119 11.0444 18.0561 11.0444L17.7924 11.0446ZM19.5551 11.0446C19.4082 11.0446 19.3931 11.0994 19.4375 11.2604C19.4816 11.4228 19.5477 11.5532 19.6133 11.6662L19.6256 11.6681C19.7069 11.7704 19.7324 11.7221 19.7521 11.6194C19.7729 11.5171 19.8336 11.3996 19.8741 11.2762C19.9143 11.1516 19.9046 11.0447 19.8036 11.0447L19.5551 11.0446ZM7.17759 11.1295C7.07012 11.1295 7.05995 11.2378 7.10258 11.3616C7.14593 11.4857 7.21023 11.6023 7.23244 11.7054C7.25359 11.8073 7.2806 11.8556 7.36622 11.7529L7.37909 11.7518C7.4493 11.6391 7.51967 11.5085 7.5666 11.3454C7.61424 11.1844 7.59761 11.1296 7.44178 11.1296L7.17759 11.1295ZM8.94076 11.1295C8.79317 11.1295 8.77915 11.1843 8.82322 11.3453C8.868 11.5085 8.93362 11.6391 8.99953 11.7518L9.01186 11.7529C9.09318 11.8556 9.11792 11.8073 9.13836 11.7053C9.15842 11.6023 9.21898 11.4857 9.25982 11.3615C9.30066 11.2377 9.28996 11.1295 9.18929 11.1295L8.94076 11.1295ZM13.5575 15.7083C13.3991 15.7083 13.2566 15.7938 13.1964 16.1119C13.0772 16.7398 12.8527 17.0402 12.5958 17.2781C12.4096 17.4491 12.1476 17.4547 12.0551 17.4497C11.9616 17.444 11.8694 17.4394 11.8307 17.6706C11.792 17.9021 11.9292 18.1265 12.0059 18.2285C12.0818 18.3315 12.1301 18.3019 12.2186 18.2347C12.3934 18.0991 12.5849 17.8843 12.7375 17.6639C12.8936 17.4399 12.9833 17.5458 12.874 17.7673C12.7644 17.987 12.541 18.2992 12.372 18.4656C12.2487 18.5854 12.2736 18.6636 12.3227 18.7551C12.3721 18.8464 12.5251 18.9924 12.5746 19.0296C12.6229 19.0665 12.8248 19.1847 12.9563 18.9268C13.0871 18.6695 13.1914 18.1859 13.2082 17.987C13.2236 17.7945 13.3555 17.8255 13.3716 17.9926C13.3795 18.0724 13.3772 18.1055 13.3772 18.3202C13.3772 18.5345 13.3114 18.809 13.2082 19.0727C13.1039 19.3349 13.1968 19.3517 13.2681 19.3897C13.3394 19.4269 13.4153 19.4484 13.5575 19.4484C13.7 19.4484 13.7764 19.4269 13.8463 19.3897C13.9176 19.3517 14.0114 19.3349 13.9079 19.0727C13.804 18.809 13.7377 18.5345 13.7377 18.3202C13.7377 18.1055 13.7348 18.0724 13.7427 17.9926C13.7596 17.8255 13.891 17.7945 13.9079 17.987C13.924 18.1859 14.0279 18.6695 14.1598 18.9268C14.2905 19.1847 14.4929 19.0665 14.5409 19.0296C14.5904 18.9924 14.7435 18.8464 14.7923 18.7551C14.842 18.6636 14.8664 18.5854 14.7436 18.4656C14.5741 18.2992 14.3498 17.987 14.2409 17.7673C14.1302 17.5458 14.2217 17.4399 14.3775 17.6639C14.5305 17.8843 14.7213 18.0991 14.8958 18.2347C14.9846 18.3019 15.0331 18.3316 15.1091 18.2285C15.1864 18.1265 15.3226 17.9021 15.2843 17.6706C15.2466 17.4394 15.1315 17.3913 15.0391 17.3849C14.8865 17.3752 14.6199 17.3843 14.4329 17.2132C14.176 16.9775 14.0383 16.7398 13.9179 16.1119C13.8585 15.7938 13.7158 15.7083 13.5575 15.7083ZM12.5136 16.2025C12.4065 16.2025 12.3956 16.3105 12.4386 16.4339C12.4815 16.5581 12.5458 16.6753 12.5673 16.7783C12.5892 16.8792 12.616 16.9289 12.7016 16.8258L12.7151 16.824C12.7853 16.7109 12.8547 16.5811 12.902 16.4176C12.9497 16.2562 12.9332 16.2023 12.7778 16.2023L12.5136 16.2025ZM14.2762 16.2025C14.1293 16.2025 14.1137 16.2563 14.1592 16.4177C14.2033 16.5812 14.2696 16.7111 14.3355 16.8241L14.3473 16.8259C14.4279 16.929 14.4537 16.8793 14.4738 16.7784C14.4945 16.6754 14.5549 16.5582 14.5958 16.434C14.637 16.3106 14.6263 16.2026 14.5253 16.2026L14.2762 16.2025ZM18.7507 20.9808C18.5917 20.9808 18.4499 21.0668 18.3897 21.3838C18.2704 22.0121 18.0458 22.3139 17.7896 22.5489C17.6027 22.7207 17.3402 22.7272 17.2478 22.7222C17.1547 22.7165 17.0615 22.7105 17.0239 22.9419C16.9856 23.1731 17.1219 23.3985 17.1986 23.5016C17.2756 23.6032 17.3233 23.5733 17.4118 23.5061C17.5863 23.3712 17.7777 23.1574 17.9307 22.9369C18.0865 22.7123 18.1769 22.8192 18.0673 23.0393C17.9577 23.259 17.7341 23.5712 17.5646 23.7375C17.4414 23.8585 17.4663 23.9355 17.5154 24.0271C17.5648 24.1184 17.7178 24.2644 17.7673 24.3016C17.8156 24.3388 18.0172 24.4573 18.149 24.1993C18.2801 23.9417 18.384 23.4586 18.4009 23.259C18.417 23.0665 18.548 23.0982 18.5649 23.2646C18.5728 23.3465 18.5705 23.3779 18.5705 23.5922C18.5705 23.8079 18.504 24.082 18.4009 24.3447C18.2963 24.6084 18.3898 24.6244 18.4608 24.6617C18.5321 24.6996 18.6085 24.7204 18.7507 24.7204C18.8929 24.7204 18.969 24.6996 19.0395 24.6617C19.1112 24.6244 19.2046 24.6084 19.1 24.3447C18.9968 24.082 18.9309 23.8079 18.9309 23.5922C18.9309 23.3779 18.928 23.3465 18.936 23.2646C18.9521 23.0982 19.0839 23.0665 19.1 23.259C19.1161 23.4586 19.2204 23.9417 19.3519 24.1993C19.483 24.4573 19.6853 24.3388 19.7336 24.3016C19.7831 24.2644 19.9364 24.1184 19.9855 24.0271C20.0349 23.9355 20.0595 23.8585 19.9362 23.7375C19.7668 23.5712 19.5431 23.259 19.4342 23.0393C19.3242 22.8192 19.4142 22.7123 19.5707 22.9369C19.7237 23.1574 19.9142 23.3712 20.089 23.5061C20.1775 23.5733 20.2251 23.6032 20.3017 23.5016C20.3784 23.3985 20.516 23.1731 20.4769 22.9419C20.439 22.7104 20.3242 22.6638 20.2318 22.6574C20.0788 22.646 19.8121 22.6573 19.6261 22.4857C19.3689 22.2496 19.2305 22.0121 19.1112 21.3838C19.0514 21.0668 18.9091 20.9808 18.7507 20.9808ZM8.39334 21.0663C8.23464 21.0663 8.09213 21.1526 8.03231 21.4699C7.91338 22.0979 7.688 22.3991 7.43115 22.6356C7.24487 22.8066 6.98302 22.8131 6.88988 22.8078C6.7971 22.8013 6.70432 22.7964 6.66599 23.0275C6.62766 23.259 6.76452 23.4851 6.84119 23.586C6.91785 23.689 6.96576 23.6594 7.05389 23.5921C7.22906 23.4576 7.42 23.2425 7.57332 23.0224C7.72951 22.7981 7.8188 22.9032 7.7099 23.1236C7.60064 23.3444 7.3767 23.6561 7.20725 23.8224C7.08474 23.9437 7.10892 24.0219 7.158 24.1132C7.20708 24.204 7.35988 24.349 7.40932 24.3865C7.45876 24.4241 7.66071 24.5426 7.79218 24.2854C7.92329 24.0259 8.02682 23.5434 8.04294 23.3444C8.05942 23.1512 8.19082 23.1835 8.20694 23.3495C8.21483 23.4311 8.21253 23.4624 8.21253 23.6771C8.21253 23.8925 8.14718 24.1665 8.04293 24.4302C7.93904 24.6931 8.0319 24.709 8.10282 24.7466C8.17411 24.7842 8.25147 24.8053 8.39333 24.8053C8.53555 24.8053 8.61142 24.7842 8.68271 24.7466C8.754 24.709 8.84649 24.6931 8.7426 24.4302C8.63872 24.1665 8.57356 23.8925 8.57356 23.6771C8.57356 23.4624 8.57038 23.4311 8.57861 23.3495C8.59471 23.1835 8.72685 23.1513 8.74261 23.3444C8.75874 23.5434 8.86338 24.0259 8.99449 24.2854C9.1256 24.5426 9.32751 24.4241 9.37623 24.3865C9.42531 24.349 9.57868 24.204 9.62811 24.1132C9.67719 24.0219 9.70209 23.9437 9.57886 23.8224C9.40977 23.6561 9.18583 23.3444 9.07621 23.1236C8.96731 22.9032 9.05718 22.7981 9.21335 23.0224C9.36524 23.2425 9.55705 23.4576 9.73222 23.5921C9.81999 23.6594 9.86862 23.689 9.94493 23.586C10.0216 23.4851 10.1579 23.259 10.1196 23.0275C10.0812 22.7963 9.96718 22.749 9.8744 22.7429C9.72215 22.7315 9.45468 22.7428 9.26876 22.5707C9.01191 22.3342 8.87238 22.0979 8.7538 21.4699C8.69362 21.1526 8.55203 21.0663 8.39334 21.0663ZM17.7068 21.475C17.5986 21.475 17.5881 21.5819 17.6307 21.7064C17.6751 21.8299 17.739 21.9472 17.7605 22.0502C17.7824 22.1519 17.8087 22.2005 17.8954 22.0989L17.9078 22.096C17.9769 21.984 18.0476 21.8536 18.0953 21.6901C18.1422 21.5295 18.1264 21.4749 17.9699 21.4749L17.7068 21.475ZM19.4694 21.475C19.3225 21.475 19.3071 21.5295 19.3519 21.6902C19.3963 21.8537 19.463 21.9841 19.5282 22.0961L19.5394 22.099C19.6207 22.2006 19.6468 22.1519 19.6665 22.0503C19.6872 21.9473 19.7484 21.8299 19.7885 21.7065C19.829 21.582 19.8186 21.475 19.7168 21.475L19.4694 21.475ZM7.34943 21.5605C7.2416 21.5605 7.23072 21.6682 7.27442 21.792C7.3167 21.9165 7.38167 22.0336 7.40316 22.1352C7.42466 22.2379 7.45152 22.2865 7.5375 22.1839L7.55037 22.1828C7.62058 22.0694 7.69003 21.938 7.73732 21.7752C7.78461 21.6142 7.76889 21.5605 7.61306 21.5605L7.34943 21.5605ZM9.11204 21.5605C8.96517 21.5605 8.95008 21.6142 8.9945 21.7752C9.03927 21.938 9.1049 22.0693 9.17082 22.1827L9.18314 22.1838C9.2641 22.2865 9.28923 22.2379 9.30964 22.1352C9.33042 22.0336 9.39062 21.9164 9.4311 21.7919C9.47122 21.6681 9.4616 21.5605 9.36057 21.5605L9.11204 21.5605Z" fill="#E4E8EB"/>
<path id="path8216" d="M0.662109 0.662109H26.4559V8.69863H0.662109V0.662109Z" fill="#84888A"/>
<path id="path8226" d="M0.662109 0.662109H26.4559V8.69863H0.662109V0.662109Z" stroke="#6D7173" stroke-width="0.852508"/>
<g id="g8784">
<path id="path8238" d="M5.54848 3.02119C5.54848 2.54674 5.93322 2.16211 6.40824 2.16211H8.53578V2.99113H8.88111C9.03443 2.99113 9.15946 3.11564 9.15946 3.26878C9.15946 3.42228 9.03443 3.54679 8.88111 3.54679H8.53578V5.46495H8.88111C9.03443 5.46495 9.15946 5.58982 9.15946 5.74296C9.15946 5.89645 9.03443 6.02061 8.88111 6.02061H8.53578V6.91761H5.95507C5.88271 7.0686 5.72759 7.17344 5.54848 7.17344C5.36865 7.17344 5.21461 7.0686 5.14117 6.91761H2.56118V6.02061H2.21584C2.06145 6.02061 1.9375 5.89645 1.9375 5.74296C1.9375 5.58982 2.06145 5.46495 2.21584 5.46495H2.56118V3.54679H2.21584C2.06145 3.54679 1.9375 3.42228 1.9375 3.26878C1.9375 3.11564 2.06145 2.99113 2.21584 2.99113H2.56118V2.16211H4.68836C5.16338 2.16211 5.54848 2.54674 5.54848 3.02119Z" fill="#E4E8EB"/>
<path id="path8242" d="M5.54848 3.02119C5.54848 2.54674 5.93322 2.16211 6.40824 2.16211H8.53578V2.99113H8.88111C9.03443 2.99113 9.15946 3.11564 9.15946 3.26878C9.15946 3.42228 9.03443 3.54679 8.88111 3.54679H8.53578V5.46495H8.88111C9.03443 5.46495 9.15946 5.58982 9.15946 5.74296C9.15946 5.89645 9.03443 6.02061 8.88111 6.02061H8.53578V6.91761H5.95507C5.88271 7.0686 5.72759 7.17344 5.54848 7.17344C5.36865 7.17344 5.21461 7.0686 5.14117 6.91761H2.56118V6.02061H2.21584C2.06145 6.02061 1.9375 5.89645 1.9375 5.74296C1.9375 5.58982 2.06145 5.46495 2.21584 5.46495H2.56118V3.54679H2.21584C2.06145 3.54679 1.9375 3.42228 1.9375 3.26878C1.9375 3.11564 2.06145 2.99113 2.21584 2.99113H2.56118V2.16211H4.68836C5.16338 2.16211 5.54848 2.54674 5.54848 3.02119ZM5.54848 3.02119V6.27107" stroke="#84888A" stroke-width="0.113499"/>
<path id="path8246" d="M6.47242 3.99264C6.47744 4.07672 6.50431 4.09282 6.58885 4.09282C6.67375 4.09282 6.69453 4.09282 6.73107 4.02949C6.76832 3.96616 6.90553 3.80802 6.90553 4.02949V4.32468C6.90553 4.5458 6.74934 4.40375 6.72068 4.32468C6.69526 4.25562 6.67375 4.24774 6.58885 4.24774C6.50431 4.24774 6.46705 4.25599 6.46203 4.34042C6.44593 4.6331 6.44593 4.8993 6.46203 5.04671C6.46777 5.10468 6.49356 5.13116 6.56234 5.13116H6.73107C6.98971 5.13116 7.04273 4.97838 7.085 4.80985C7.14841 4.55582 7.25373 4.59339 7.25373 4.80447V5.19447C7.25373 5.32077 7.13265 5.26317 7.06888 5.25959L6.26357 5.26074C6.18584 5.26074 6.15575 5.26131 6.07801 5.26717C6.00063 5.27181 5.98809 5.20885 6.0361 5.16663C6.08446 5.12441 6.10058 5.11976 6.10237 4.95589V3.49071C6.10065 3.32648 6.08446 3.32146 6.0361 3.27924C5.98809 3.23738 6.00063 3.17369 6.07801 3.17941C6.15575 3.18442 6.18584 3.18443 6.26357 3.18443H7.01658C7.07998 3.18048 7.20107 3.12289 7.20107 3.24955V3.63883C7.20107 3.76048 7.07425 3.8027 7.03162 3.63417C6.98971 3.46529 6.98971 3.29139 6.73107 3.29139H6.56234C6.49356 3.29139 6.47636 3.31753 6.47242 3.37548C6.45666 3.63417 6.46454 3.85524 6.47242 3.99264Z" fill="#84888A"/>
<path id="path8250" d="M3.02539 6.54814L3.50614 6.12128M3.02539 6.54814V2.56261L3.38398 2.19336H3.50614V6.12128M3.02539 6.54814H5.12642M3.50614 6.12128H5.07376C5.29515 6.12128 5.43808 6.18962 5.48 6.2737M5.95537 6.91774C5.98403 6.85834 6.00015 6.79251 6.00015 6.72238C6.00015 6.473 5.79811 6.27084 5.54878 6.27084C5.29909 6.27084 5.09669 6.473 5.09669 6.72238C5.09669 6.79251 5.11282 6.85834 5.14147 6.91774M5.6172 6.2737C5.65983 6.18962 5.80205 6.12128 6.02379 6.12128H7.59141M7.59141 6.12128V2.19336H7.71286L8.07145 2.56261V6.54814M7.59141 6.12128L8.07145 6.54814M8.07145 6.54814H5.97077" stroke="#84888A" stroke-width="0.113499"/>
<path id="path8254" d="M4.61536 5.09892C4.58061 5.23202 4.53118 5.31933 4.44413 5.31933C4.35708 5.31933 4.33308 5.22702 4.29833 5.0932L3.92827 3.49133C3.89317 3.3271 3.87418 3.3221 3.8165 3.27988C3.75919 3.23801 3.75775 3.17432 3.838 3.18005C3.91824 3.18506 3.94869 3.18505 4.0275 3.18505C4.10632 3.18505 4.13712 3.18506 4.21558 3.18005C4.29367 3.17432 4.31875 3.23801 4.27934 3.27988C4.23958 3.3221 4.22346 3.3271 4.25713 3.49133L4.47171 4.50426C4.50574 4.67601 4.58599 4.63379 4.62324 4.5057L4.93491 3.49133C4.9607 3.3271 4.90625 3.3221 4.87544 3.27988C4.84463 3.23801 4.86469 3.17432 4.92452 3.18005C4.9847 3.18506 5.00799 3.18505 5.06924 3.18505C5.1305 3.18505 5.15378 3.18506 5.21576 3.18005C5.27773 3.17432 5.27917 3.25089 5.23476 3.29311C5.18998 3.33533 5.17493 3.33104 5.10902 3.49133L4.61536 5.09892Z" fill="#84888A"/>
</g>
<g id="g8791">
<path id="path8258" d="M13.359 7.17344C13.5381 7.17344 13.6925 7.06861 13.7649 6.91762H16.0719V6.02098H16.4169C16.5709 6.02098 16.6952 5.89646 16.6952 5.74296C16.6952 5.58983 16.5709 5.46495 16.4169 5.46495H16.0719V3.5468H16.4169C16.5709 3.5468 16.6952 3.42228 16.6952 3.26915C16.6952 3.11565 16.5709 2.99114 16.4169 2.99114H16.0719V2.16211H14.2184C13.743 2.16211 13.359 2.54674 13.359 3.02119C13.359 2.54674 12.9736 2.16211 12.4989 2.16211H10.3714V2.99114H10.0264C9.87199 2.99114 9.74805 3.11565 9.74805 3.26915C9.74805 3.42228 9.87199 3.5468 10.0264 3.5468H10.3714V5.46495H10.0264C9.87199 5.46495 9.74805 5.58983 9.74805 5.74296C9.74805 5.89646 9.87199 6.02098 10.0264 6.02098H10.3714V6.91762H12.9521C13.0248 7.06861 13.1792 7.17344 13.359 7.17344Z" fill="#E4E8EB"/>
<path id="path8262" d="M13.359 3.02119C13.359 2.54674 13.743 2.16211 14.2184 2.16211H16.0719V2.99114H16.4169C16.5709 2.99114 16.6952 3.11565 16.6952 3.26915C16.6952 3.42228 16.5709 3.5468 16.4169 3.5468H16.0719V5.46495H16.4169C16.5709 5.46495 16.6952 5.58983 16.6952 5.74296C16.6952 5.89646 16.5709 6.02098 16.4169 6.02098H16.0719V6.91762H13.7649C13.6925 7.06861 13.5381 7.17344 13.359 7.17344C13.1792 7.17344 13.0248 7.06861 12.9521 6.91762H10.3714V6.02098H10.0264C9.87199 6.02098 9.74805 5.89646 9.74805 5.74296C9.74805 5.58983 9.87199 5.46495 10.0264 5.46495H10.3714V3.5468H10.0264C9.87199 3.5468 9.74805 3.42228 9.74805 3.26915C9.74805 3.11565 9.87199 2.99114 10.0264 2.99114H10.3714V2.16211H12.4989C12.9736 2.16211 13.359 2.54674 13.359 3.02119ZM13.359 3.02119V6.27108M13.7656 6.91798C13.7943 6.85859 13.8104 6.79239 13.8104 6.72262C13.8104 6.47324 13.608 6.27108 13.359 6.27108M13.359 6.27108C13.1097 6.27108 12.9069 6.47324 12.9069 6.72262C12.9069 6.79239 12.9234 6.85859 12.9521 6.91798M13.2902 6.27394C13.2473 6.1895 13.1058 6.12152 12.884 6.12152H11.316M11.316 6.12152V2.1936H11.1946L10.8356 2.56285V6.54837M11.316 6.12152L10.8356 6.54837M10.8356 6.54837H12.9367M13.4278 6.27394C13.4694 6.1895 13.6119 6.12152 13.8337 6.12152H15.1273M15.1273 6.12152V2.1936H15.248L15.6073 2.56285V6.54837M15.1273 6.12152L15.6073 6.54837M15.6073 6.54837H13.7807" stroke="#84888A" stroke-width="0.113499"/>
<path id="path8266" d="M12.1098 3.71209L12.1127 4.02302C12.1127 4.07598 12.1496 4.1232 12.2603 4.1232C12.371 4.1232 12.6142 4.05987 12.6142 3.7171C12.6142 3.37469 12.4398 3.32173 12.3337 3.30563C12.2288 3.28989 12.1098 3.29527 12.1098 3.4695V3.71209ZM11.9171 5.27782C11.8487 5.27782 11.7695 5.27782 11.7007 5.28283C11.6323 5.28821 11.6212 5.22522 11.6638 5.18265C11.7061 5.14114 11.7537 5.13505 11.7537 4.9719V3.43766C11.7537 3.36932 11.7484 3.33247 11.6903 3.28488C11.6323 3.23765 11.7061 3.17969 11.7903 3.17969C11.8745 3.17969 12.1181 3.18469 12.2549 3.18469C12.8041 3.18469 12.9832 3.36932 12.9832 3.69063C12.9832 3.93321 12.8331 4.08563 12.6561 4.16005C12.606 4.18115 12.5902 4.21516 12.5902 4.24163C12.5902 4.26811 12.5948 4.28135 12.6189 4.32106C12.6429 4.36006 12.9753 5.01627 13.0201 5.07745C13.0652 5.13828 13.0917 5.16439 13.1229 5.18801C13.143 5.20269 13.1419 5.28032 13.0308 5.28032H12.741C12.741 5.28032 12.7221 5.28533 12.688 5.22773C12.6536 5.16977 12.2578 4.32858 12.2209 4.26811L12.1073 4.25486L12.1041 4.97189C12.1041 5.13504 12.1503 5.13039 12.1983 5.17189C12.2463 5.21411 12.2323 5.28818 12.1535 5.28281C12.0754 5.2778 11.9955 5.27782 11.9171 5.27782Z" fill="#84888A"/>
<path id="path8270" d="M14.5249 4.98707C14.5263 5.15058 14.5428 5.1556 14.5901 5.19818C14.6385 5.24004 14.627 5.30336 14.5482 5.29799C14.4704 5.29333 14.4403 5.29333 14.3626 5.29333C14.2856 5.29333 14.2555 5.29333 14.177 5.29799C14.1 5.30338 14.0878 5.24004 14.1358 5.19818C14.1839 5.1556 14.2007 5.15058 14.2018 4.98707V3.52153C14.2006 3.35765 14.1839 3.35301 14.1358 3.31079C14.0878 3.26821 14.1 3.20523 14.177 3.21024C14.2555 3.21597 14.2856 3.21596 14.3626 3.21596C14.4403 3.21596 14.4704 3.21597 14.5482 3.21024C14.627 3.20523 14.6385 3.26821 14.5901 3.31079C14.5428 3.35301 14.5263 3.35765 14.5249 3.52153V4.98707Z" fill="#84888A"/>
</g>
<g id="g8797">
<path id="path8274" d="M21.1953 2.79148C21.2927 2.42617 21.628 2.16211 22.0271 2.16211H24.534V2.99114H24.8793C25.0334 2.99114 25.158 3.11565 25.158 3.26915C25.158 3.42228 25.0334 3.5468 24.8793 3.5468H24.534V5.46495H24.8793C25.0334 5.46495 25.158 5.58983 25.158 5.74296C25.158 5.89646 25.0334 6.02098 24.8793 6.02098H24.534V6.91762H21.5743C21.5016 7.06861 21.3472 7.17344 21.1673 7.17344C20.9879 7.17344 20.8335 7.06861 20.76 6.91762H17.9268V6.02098H17.5804C17.4274 6.02098 17.3027 5.89646 17.3027 5.74296C17.3027 5.58983 17.4274 5.46495 17.5804 5.46495H17.9268V3.5468H17.5804C17.4274 3.5468 17.3027 3.42228 17.3027 3.26915C17.3027 3.11565 17.4274 2.99114 17.5804 2.99114H17.9268V2.16211H20.3072C20.7056 2.16211 21.0416 2.42617 21.139 2.79148H21.1953Z" fill="#E4E8EB"/>
<path id="path8278" d="M18.3914 6.54837L18.8711 6.12152M18.3914 6.54837V2.56285L18.75 2.1936H18.8711V6.12152M18.3914 6.54837H20.7443M18.8711 6.12152H20.6927C20.9137 6.12152 21.0563 6.1895 21.0986 6.27394M21.5747 6.91798C21.6033 6.85859 21.6187 6.79239 21.6187 6.72262C21.6187 6.47324 21.4167 6.27108 21.1673 6.27108C20.9177 6.27108 20.716 6.47324 20.716 6.72262C20.716 6.79239 20.7314 6.85859 20.76 6.91798M21.2365 6.27394C21.2777 6.1895 21.4203 6.12152 21.6424 6.12152H23.5893M23.5893 6.12152V2.1936H23.7115L24.0708 2.56285V6.54837M23.5893 6.12152L24.0708 6.54837M24.0708 6.54837H21.5897M21.1953 2.79148C21.2927 2.42617 21.628 2.16211 22.0271 2.16211H24.534V2.99114H24.8793C25.0334 2.99114 25.158 3.11565 25.158 3.26915C25.158 3.42228 25.0334 3.5468 24.8793 3.5468H24.534V5.46495H24.8793C25.0334 5.46495 25.158 5.58983 25.158 5.74296C25.158 5.89646 25.0334 6.02098 24.8793 6.02098H24.534V6.91762H21.5743C21.5016 7.06861 21.3472 7.17344 21.1673 7.17344C20.9879 7.17344 20.8335 7.06861 20.76 6.91762H17.9268V6.02098H17.5804C17.4274 6.02098 17.3027 5.89646 17.3027 5.74296C17.3027 5.58983 17.4274 5.46495 17.5804 5.46495H17.9268V3.5468H17.5804C17.4274 3.5468 17.3027 3.42228 17.3027 3.26915C17.3027 3.11565 17.4274 2.99114 17.5804 2.99114H17.9268V2.16211H20.3072C20.7056 2.16211 21.0416 2.42617 21.139 2.79148H21.1953Z" stroke="#84888A" stroke-width="0.113499"/>
<path id="path8282" d="M21.0149 3.92847C21.0869 3.67944 21.1334 3.6705 21.1879 3.94564L21.2903 4.36677C21.3269 4.47233 21.3165 4.49344 21.1177 4.49344C20.863 4.49344 20.8468 4.47589 20.8931 4.37L21.0149 3.92847ZM21.367 4.68343L21.4343 4.95929C21.4677 5.12245 21.4512 5.12745 21.4118 5.17003C21.3724 5.21225 21.3974 5.27558 21.4762 5.27022C21.5536 5.26484 21.6056 5.26484 21.6847 5.26484C21.7639 5.26484 21.7729 5.26484 21.8535 5.27022C21.9341 5.27557 21.9197 5.17397 21.8821 5.14642C21.8244 5.1042 21.823 5.06806 21.7836 4.95929L21.3301 3.35635C21.2943 3.22289 21.2438 3.13451 21.2126 3.14096C21.1141 3.16385 20.9959 3.18997 21.0023 3.25617L21.0102 3.42863L20.5509 4.95929C20.4847 5.11851 20.4693 5.11458 20.4252 5.15644C20.3811 5.19902 20.3822 5.27558 20.4438 5.27022C20.5054 5.26484 20.5291 5.26484 20.5907 5.26484C20.6509 5.26484 20.6742 5.26484 20.7354 5.27022C20.7949 5.27557 20.8149 5.21225 20.7841 5.17003C20.7533 5.12745 20.6985 5.12245 20.7247 4.95929L20.8196 4.66232C20.8429 4.59684 20.9973 4.61974 21.0757 4.61974C21.1549 4.61974 21.3344 4.58933 21.367 4.68343Z" fill="#84888A"/>
<path id="path8286" d="M19.8271 3.19756C19.9332 3.19756 20.0607 3.19256 20.243 3.18148C20.4977 3.16536 20.5031 3.18147 20.5031 3.25518C20.5031 3.30384 20.5088 3.51888 20.5088 3.57685C20.5088 3.63481 20.5031 3.72998 20.4472 3.72998C20.3928 3.72998 20.3698 3.6663 20.3369 3.57685C20.2434 3.32353 20.1488 3.28667 20.0822 3.28667C20.0152 3.28667 19.9969 3.33963 19.9969 3.47702V4.94221C19.9984 5.10572 20.0152 5.11073 20.0657 5.15366C20.1162 5.19517 20.1033 5.26923 20.0216 5.26387C19.9396 5.25849 19.9088 5.25849 19.8271 5.25849C19.7454 5.25849 19.7139 5.25849 19.6322 5.26387C19.5513 5.26925 19.5384 5.19517 19.5885 5.15366C19.6398 5.11073 19.657 5.10572 19.6584 4.94221V3.47702C19.6584 3.33963 19.6398 3.28667 19.5728 3.28667C19.5065 3.28667 19.4116 3.32353 19.3177 3.57685C19.2848 3.6663 19.2633 3.72998 19.2074 3.72998C19.1522 3.72998 19.1465 3.63481 19.1465 3.57685C19.1465 3.51888 19.1522 3.30384 19.1522 3.25518C19.1522 3.18147 19.1576 3.16538 19.4126 3.18148C19.595 3.19256 19.7218 3.19756 19.8271 3.19756Z" fill="#84888A"/>
<path id="path8290" d="M22.1118 4.76271C22.1118 4.57021 22.235 4.59669 22.302 4.78885C22.3647 4.96846 22.4553 5.19494 22.6978 5.19494C22.9407 5.19494 22.993 4.9155 22.993 4.77847C22.993 4.56236 22.9042 4.48865 22.5707 4.24105C22.2389 3.9931 22.1648 3.83459 22.1648 3.63923C22.1648 3.44459 22.3543 3.13867 22.6606 3.13867C22.8107 3.13867 22.8863 3.15155 22.964 3.21023C22.9751 3.2181 23.0779 3.2256 23.0987 3.19701C23.1299 3.15479 23.1936 3.20737 23.1936 3.26535C23.1936 3.32332 23.1936 3.57663 23.199 3.66573C23.204 3.75553 23.0951 3.82029 23.0414 3.66071C22.9776 3.4768 22.9346 3.22814 22.7032 3.22814C22.5048 3.22814 22.4553 3.46357 22.4553 3.55552C22.4553 3.80849 22.7082 3.89257 22.9823 4.0983C23.2574 4.30403 23.3287 4.39349 23.3287 4.6783C23.3287 4.98958 23.0335 5.31089 22.7032 5.31089C22.5606 5.31089 22.4439 5.22931 22.3282 5.22931C22.2128 5.22931 22.2196 5.27152 22.1777 5.27152C22.1358 5.27152 22.091 5.23717 22.101 5.16347C22.1118 5.08976 22.1118 4.87577 22.1118 4.76271Z" fill="#84888A"/>
</g>
</g>
</g>
</svg>
