<svg width="32" height="30" viewBox="0 0 32 30" fill="none" xmlns="http://www.w3.org/2000/svg">
<path d="M0 0.665039L1.91867 4.90504L0 8.23437L1.91867 11.5677L0 14.897L1.91867 18.129L0 21.4597L1.91867 24.793L0 29.333L3.73333 28.1197C12.1333 28.133 20.6613 28.1277 27.8613 28.1197L32 29.333L29.2747 24.4864L30.7893 21.9637L27.8613 18.9344L27.856 18.9117V1.67304C19.1213 1.67171 11.532 1.67304 3.73467 1.67304L0 0.665039ZM26.2507 3.28904V12.6624L25.944 11.465L24.0267 5.6117L19.28 6.41837L16.76 3.29437L26.2507 3.28904ZM10.6573 3.29437H16.7413L12.7187 4.9037L10.6573 3.29437ZM14.4707 8.20104C15.2154 8.15587 15.9612 8.27137 16.6573 8.5397C19.2813 9.54904 18.372 12.273 16.8573 13.889C16.3533 14.393 15.244 14.1917 16.0507 12.6784C16.3547 12.073 16.656 10.861 15.748 10.5584C13.728 9.8517 11.408 11.4677 10.9027 13.5864C10.3987 15.4037 11.7107 17.321 14.032 16.817C15.9507 16.413 17.768 15.0997 18.4747 14.4944C19.1813 13.8877 19.684 15.001 18.876 16.2117C17.9693 17.4224 16.556 18.8357 15.3427 19.6437C10.5987 22.8744 6.46 18.633 8.176 13.7877C9.07867 11.3277 11.4493 8.3997 14.4707 8.20104ZM23.1733 10.909C23.3987 10.9094 23.6154 10.9963 23.7787 11.1517C24.2107 11.5864 24.0507 12.4477 23.4213 13.0784C22.7907 13.7104 21.9267 13.869 21.4933 13.4357C21.06 13.001 21.22 12.1397 21.8493 11.509C22.2387 11.1197 22.7373 10.8944 23.1733 10.909ZM22.6133 15.2197C22.8387 15.2201 23.0554 15.3069 23.2187 15.4624C23.652 15.8957 23.4933 16.7597 22.8613 17.3904C22.2307 18.021 21.368 18.1797 20.9347 17.7477C20.5027 17.313 20.6613 16.4517 21.292 15.821C21.68 15.4317 22.1787 15.205 22.6133 15.2197Z" fill="#84888A"/>
</svg>
