<svg width="32" height="26" viewBox="0 0 32 26" fill="none" xmlns="http://www.w3.org/2000/svg">
<path d="M2.28534 0.809937C1.98503 0.809234 1.68754 0.867865 1.40995 0.982465C1.13237 1.09706 0.880153 1.26537 0.6678 1.47773C0.455447 1.69008 0.287138 1.94229 0.172538 2.21988C0.0579383 2.49747 -0.000693543 2.79496 9.7658e-06 3.09527V12.2393C9.7658e-06 13.5059 1.02001 14.5246 2.28534 14.5246C2.58577 14.5255 2.8834 14.467 3.16114 14.3525C3.43889 14.2379 3.69126 14.0697 3.90375 13.8573C4.11624 13.6449 4.28467 13.3926 4.39936 13.115C4.51404 12.8373 4.57271 12.5397 4.57201 12.2393V3.09394C4.57271 2.79351 4.51404 2.49591 4.39936 2.21824C4.28467 1.94056 4.11624 1.68829 3.90375 1.47592C3.69126 1.26355 3.43889 1.09527 3.16114 0.980747C2.8834 0.866226 2.58577 0.807724 2.28534 0.808604V0.809937ZM11.428 0.809937C11.1277 0.809234 10.8302 0.867865 10.5526 0.982465C10.275 1.09706 10.0228 1.26537 9.81047 1.47773C9.59811 1.69008 9.42981 1.94229 9.31521 2.21988C9.20061 2.49747 9.14197 2.79496 9.14268 3.09527V4.61927C9.14268 5.88594 10.1627 6.90594 11.428 6.90594C11.7285 6.90682 12.0263 6.84827 12.3041 6.73367C12.582 6.61906 12.8344 6.45066 13.0469 6.23815C13.2594 6.02564 13.4278 5.77321 13.5424 5.49538C13.657 5.21755 13.7156 4.91981 13.7147 4.61927V3.09527C13.7154 2.79473 13.6567 2.49702 13.5419 2.21926C13.4271 1.9415 13.2586 1.68917 13.0459 1.47678C12.8333 1.26439 12.5808 1.09614 12.3029 0.981696C12.025 0.867254 11.7272 0.808882 11.4267 0.809937H11.428ZM20.572 0.809937C20.2716 0.809058 19.974 0.86756 19.6962 0.98208C19.4185 1.0966 19.1661 1.26488 18.9536 1.47725C18.7411 1.68962 18.5727 1.9419 18.458 2.21957C18.3433 2.49724 18.2846 2.79485 18.2853 3.09527V22.9073C18.2853 24.1739 19.3053 25.1926 20.572 25.1926C20.8723 25.1933 21.1698 25.1347 21.4474 25.0201C21.725 24.9055 21.9772 24.7372 22.1896 24.5248C22.4019 24.3125 22.5702 24.0602 22.6848 23.7827C22.7994 23.5051 22.858 23.2076 22.8573 22.9073V3.09394C22.858 2.79363 22.7994 2.49613 22.6848 2.21855C22.5702 1.94096 22.4019 1.68875 22.1896 1.47639C21.9772 1.26404 21.725 1.09573 21.4474 0.981132C21.1698 0.866532 20.8723 0.8079 20.572 0.808604V0.809937ZM29.7147 0.809937C29.4143 0.809058 29.1166 0.86756 28.8389 0.98208C28.5611 1.0966 28.3088 1.26488 28.0963 1.47725C27.8838 1.68962 27.7154 1.9419 27.6007 2.21957C27.486 2.49724 27.4273 2.79485 27.428 3.09527V12.2393C27.428 13.5059 28.448 14.5246 29.7147 14.5246C30.015 14.5253 30.3125 14.4667 30.5901 14.3521C30.8677 14.2375 31.1199 14.0692 31.3322 13.8568C31.5446 13.6445 31.7129 13.3922 31.8275 13.1147C31.9421 12.8371 32.0007 12.5396 32 12.2393V3.09394C32.0007 2.79363 31.9421 2.49613 31.8275 2.21855C31.7129 1.94096 31.5446 1.68875 31.3322 1.47639C31.1199 1.26404 30.8677 1.09573 30.5901 0.981132C30.3125 0.866532 30.015 0.8079 29.7147 0.808604V0.809937ZM11.428 11.4766C11.1277 11.4759 10.8302 11.5345 10.5526 11.6491C10.275 11.7637 10.0228 11.932 9.81047 12.1444C9.59811 12.3567 9.42981 12.609 9.31521 12.8865C9.20061 13.1641 9.14197 13.4616 9.14268 13.7619V22.9059C9.14268 24.1726 10.1627 25.1913 11.428 25.1913C11.7284 25.1921 12.0261 25.1336 12.3038 25.0191C12.5816 24.9046 12.8339 24.7363 13.0464 24.524C13.2589 24.3116 13.4273 24.0593 13.542 23.7816C13.6567 23.504 13.7154 23.2064 13.7147 22.9059V13.7606C13.7154 13.4602 13.6567 13.1626 13.542 12.8849C13.4273 12.6072 13.2589 12.355 13.0464 12.1426C12.8339 11.9302 12.5816 11.7619 12.3038 11.6474C12.0261 11.5329 11.7284 11.4744 11.428 11.4753V11.4766ZM2.28534 19.0953C1.98492 19.0946 1.68732 19.1532 1.40964 19.2679C1.13197 19.3826 0.879697 19.551 0.667327 19.7635C0.454956 19.976 0.286674 20.2284 0.172153 20.5061C0.0576325 20.7839 -0.000869495 21.0815 9.7658e-06 21.3819V22.9059C9.7658e-06 24.1726 1.02001 25.1913 2.28534 25.1913C2.58577 25.1921 2.8834 25.1336 3.16114 25.0191C3.43889 24.9046 3.69126 24.7363 3.90375 24.524C4.11624 24.3116 4.28467 24.0593 4.39936 23.7816C4.51404 23.504 4.57271 23.2064 4.57201 22.9059V21.3819C4.57289 21.0814 4.51434 20.7837 4.39974 20.5058C4.28514 20.228 4.11674 19.9756 3.90422 19.7631C3.69171 19.5505 3.43928 19.3821 3.16145 19.2675C2.88362 19.1529 2.58588 19.0944 2.28534 19.0953ZM29.7147 19.0953C29.4141 19.0944 29.1164 19.1529 28.8386 19.2675C28.5607 19.3821 28.3083 19.5505 28.0958 19.7631C27.8833 19.9756 27.7149 20.228 27.6003 20.5058C27.4857 20.7837 27.4271 21.0814 27.428 21.3819V22.9059C27.428 24.1726 28.448 25.1913 29.7147 25.1913C30.015 25.192 30.3125 25.1333 30.5901 25.0187C30.8677 24.9041 31.1199 24.7358 31.3322 24.5235C31.5446 24.3111 31.7129 24.0589 31.8275 23.7813C31.9421 23.5037 32.0007 23.2062 32 22.9059V21.3819C32.0009 21.0815 31.9424 20.7839 31.8279 20.5061C31.7133 20.2284 31.5451 19.976 31.3327 19.7635C31.1203 19.551 30.8681 19.3826 30.5904 19.2679C30.3127 19.1532 30.0151 19.0946 29.7147 19.0953Z" fill="#84888A"/>
</svg>
