<svg width="32" height="32" viewBox="0 0 32 32" fill="none" xmlns="http://www.w3.org/2000/svg">
<path d="M26.9707 7.28486C26.9707 7.28486 27.7773 8.14886 28.904 8.14886C29.792 8.14886 30.4387 7.61153 30.4387 6.87553C30.4387 5.97286 29.6133 5.55686 28.6147 5.55686H28.0267L27.6747 4.76353L29.2347 2.9142C29.568 2.51686 29.8507 2.26753 29.8507 2.26753C29.8507 2.26753 29.6 2.28086 29.0947 2.28086H26.5547V0.950195H31.7573V1.92353L29.6707 4.33286C30.848 4.49953 32 5.3382 32 6.81553C32 8.26886 30.9 9.61286 29 9.61286C27.188 9.61286 26.184 8.47286 26.184 8.47286L26.9707 7.28353V7.28486ZM16.8227 9.08219L23.6947 21.3169L27.0853 15.2702L20.5973 3.72086H13.0467L9.91733 9.29286L6.78933 3.71953H0L9.88 21.3155L9.91733 21.2515L9.95733 21.3155L16.8227 9.08219ZM0.0706667 29.6102H1.07467C1.07467 29.9035 1.33067 30.1849 1.78533 30.1849C2.208 30.1849 2.48933 29.9742 2.48933 29.6915C2.48933 29.4502 2.30267 29.3409 1.98267 29.2702L1.408 29.1235C0.434667 28.8675 0.185333 28.3502 0.185333 27.7982C0.185333 27.1262 0.852 26.5129 1.792 26.5129C2.56 26.5129 3.42933 26.9035 3.41733 27.8622H2.4C2.4 27.5689 2.13067 27.3822 1.824 27.3822C1.49067 27.3822 1.26 27.5742 1.26 27.8435C1.26 28.0675 1.472 28.1955 1.72133 28.2529L2.412 28.4395C3.38533 28.6875 3.55867 29.2955 3.55867 29.6929C3.55867 30.5689 2.68133 31.0489 1.804 31.0489C0.953333 31.0489 0.0893333 30.5329 0.0706667 29.6102ZM4.44667 28.7782C4.44667 27.4089 5.548 26.5115 6.796 26.5115C7.544 26.5115 8.152 26.8449 8.54933 27.3449L7.79333 27.9449C7.67127 27.806 7.52058 27.6953 7.35164 27.6203C7.1827 27.5452 6.99951 27.5077 6.81467 27.5102C6.06667 27.5102 5.528 28.0489 5.528 28.7769C5.528 29.5009 6.06667 30.0515 6.81467 30.0515C6.99961 30.0539 7.18286 30.0161 7.35181 29.9408C7.52076 29.8656 7.67139 29.7546 7.79333 29.6155L8.54933 30.2169C8.34036 30.4806 8.07357 30.6928 7.76956 30.8371C7.46556 30.9813 7.13246 31.0538 6.796 31.0489C5.548 31.0489 4.44667 30.1475 4.44667 28.7782ZM13.7187 28.5155V30.9329H12.644V28.5915C12.644 27.8995 12.228 27.5289 11.748 27.5289C11.2547 27.5289 10.648 27.8169 10.648 28.6555V30.9395H9.572V24.2729H10.6533V27.2729C10.8653 26.7475 11.5627 26.5049 11.9907 26.5049C13.104 26.5115 13.7187 27.2609 13.7187 28.5155ZM14.8453 28.7782C14.8453 27.4089 15.9067 26.5115 17.136 26.5115C18.364 26.5115 19.4387 27.4089 19.4387 28.7782C19.4387 30.1475 18.364 31.0489 17.136 31.0489C15.9067 31.0489 14.8453 30.1475 14.8453 28.7782ZM18.3573 28.7782C18.3573 28.0355 17.8013 27.5115 17.136 27.5115C16.4693 27.5115 15.9267 28.0355 15.9267 28.7782C15.9267 29.5329 16.4707 30.0515 17.136 30.0515C17.8013 30.0515 18.3573 29.5315 18.3573 28.7782ZM20.3547 28.7782C20.3547 27.4089 21.416 26.5115 22.6453 26.5115C23.8733 26.5115 24.948 27.4089 24.948 28.7782C24.948 30.1475 23.8733 31.0489 22.6453 31.0489C21.4227 31.0489 20.3547 30.1475 20.3547 28.7782ZM23.8667 28.7782C23.8667 28.0355 23.3107 27.5115 22.6453 27.5115C21.9787 27.5115 21.436 28.0355 21.436 28.7782C21.436 29.5329 21.98 30.0515 22.6453 30.0515C23.3173 30.0515 23.8667 29.5315 23.8667 28.7782ZM26.1387 30.9409V24.2742H27.2133V30.9409H26.1387ZM28.3853 29.6102H29.3893C29.3893 29.9035 29.6453 30.1849 30.1 30.1849C30.5213 30.1849 30.804 29.9742 30.804 29.6915C30.804 29.4502 30.6173 29.3409 30.2973 29.2702L29.7227 29.1235C28.7493 28.8675 28.5 28.3502 28.5 27.7982C28.5 27.1262 29.1653 26.5129 30.1067 26.5129C30.8733 26.5129 31.744 26.9035 31.732 27.8622H30.708C30.708 27.5689 30.4387 27.3822 30.132 27.3822C29.7987 27.3822 29.568 27.5742 29.568 27.8435C29.568 28.0675 29.78 28.1955 30.0293 28.2529L30.72 28.4395C31.6933 28.6875 31.8667 29.2955 31.8667 29.6929C31.8667 30.5689 30.9893 31.0489 30.112 31.0489C29.2613 31.0489 28.404 30.5329 28.3853 29.6102Z" fill="#84888A"/>
</svg>
