<svg width="67" height="20" viewBox="0 0 67 20" fill="none" xmlns="http://www.w3.org/2000/svg">
<g id="los_angeles_unified_school_district_logo.svg" clip-path="url(#clip0_1605_2366)">
<g id="Group">
<path id="Vector" d="M20.3496 8.34468L19.321 5.36907L18.2433 8.34468H20.3496ZM21.5252 11.8081H17.0677L16.5289 13.3203H11.7285L17.0677 0.295898H21.5252L26.8155 13.3203H22.0151L21.5252 11.8081Z" fill="#84888A"/>
<path id="Vector_2" d="M39.305 6.7837C39.305 11.2715 36.9538 13.5642 32.7902 13.5642C28.5776 13.5642 26.2754 11.2715 26.2754 6.7837V0.295898H30.8309V6.97883C30.8309 8.5398 31.5656 9.36907 32.7902 9.36907C34.0148 9.36907 34.7495 8.49102 34.7495 6.97883V0.295898H39.305V6.7837Z" fill="#84888A"/>
<path id="Vector_3" d="M52.437 4.49036H47.8815C47.6856 3.95378 47.4407 3.41719 46.559 3.41719C46.0201 3.41719 45.6283 3.66109 45.6283 4.05134C45.6283 4.44158 45.8732 4.58792 46.461 4.73426L48.9102 5.27085C50.9675 5.70987 52.6329 6.68548 52.6329 9.12451C52.6329 11.9538 50.2817 13.5635 46.6079 13.5635C44.2567 13.6123 40.7789 12.8318 40.2891 8.78304H44.9425C45.1384 9.51475 45.6773 10.0026 46.6569 10.0026C47.2447 10.0026 47.6366 9.75866 47.6366 9.36841C47.6366 9.12451 47.5386 8.88061 46.9508 8.73426L44.6976 8.19768C42.1504 7.56353 40.8279 6.6367 40.8279 4.49036C40.8279 1.61231 43.1791 0.051336 46.461 0.051336C48.3714 0.00255549 52.0941 0.636702 52.437 4.49036Z" fill="#84888A"/>
<path id="Vector_4" d="M62.1786 6.7837C62.1786 5.22273 61.15 4.19834 59.5825 4.19834H58.3579V9.41785H59.5825C61.15 9.41785 62.1786 8.34468 62.1786 6.7837ZM66.7831 6.7837C66.7831 10.8813 63.942 13.2715 59.6315 13.2715H53.9004V0.295898H59.6315C63.893 0.295898 66.7831 2.73492 66.7831 6.7837Z" fill="#84888A"/>
<path id="Vector_5" d="M10.5526 9.46565V13.3193H0.119141V0.294922H4.62563V9.46565H10.5526Z" fill="#84888A"/>
<path id="Vector_6" d="M3.25409 17.7596C3.25409 18.4914 2.96019 18.8816 2.27442 18.8816C1.63763 18.8816 1.29475 18.5401 1.29475 17.7596V14.6377H0.119141V17.7596C0.119141 19.1743 0.902878 20.0035 2.3234 20.0035C3.69494 20.0035 4.47868 19.1743 4.47868 17.7596V14.6377H3.25409V17.7596Z" fill="#84888A"/>
<path id="Vector_7" d="M8.44596 17.8084L6.29069 14.6377H5.16406V19.906H6.33967V16.784L8.49495 19.906H9.62157V14.6377H8.44596V17.8084Z" fill="#84888A"/>
<path id="Vector_8" d="M11.5819 14.6377H10.4062V19.906H11.5819V14.6377Z" fill="#84888A"/>
<path id="Vector_9" d="M12.4609 19.906H13.6365V17.8084H15.253V16.6865H13.6365V15.7596H15.4979V14.6377H12.4609V19.906Z" fill="#84888A"/>
<path id="Vector_10" d="M17.4627 14.6377H16.2871V19.906H17.4627V14.6377Z" fill="#84888A"/>
<path id="Vector_11" d="M18.2949 19.906H21.4299V18.784H19.5195V17.7596H21.185V16.6377H19.5195V15.7596H21.4299V14.6377H18.2949V19.906Z" fill="#84888A"/>
<path id="Vector_12" d="M24.0726 18.784H23.2399V15.7596H24.0726C25.0523 15.7596 25.5421 16.2962 25.5421 17.2718C25.5911 18.2475 25.0523 18.784 24.0726 18.784ZM26.081 15.3694C25.5911 14.8816 24.9053 14.6377 24.1216 14.6377H22.1133V19.906H24.1216C24.9543 19.906 25.6401 19.6621 26.081 19.1743C26.5708 18.6865 26.8157 18.0523 26.8157 17.2718C26.8157 16.4914 26.5708 15.8572 26.081 15.3694Z" fill="#84888A"/>
</g>
</g>
<defs>
<clipPath id="clip0_1605_2366">
<rect width="66.6667" height="20" fill="white" transform="translate(0.119141)"/>
</clipPath>
</defs>
</svg>
