<svg width="32" height="32" viewBox="0 0 32 32" fill="none" xmlns="http://www.w3.org/2000/svg">
<path d="M6.98933 18.3587L0 12.6667L16 0L32 12.6667L25.0107 18.3587C23.3973 14.9987 19.9707 12.6667 16 12.6667C12.0307 12.6667 8.60267 14.9973 6.98933 18.3587ZM16 13.3333C13.5246 13.3333 11.1507 14.3167 9.40034 16.067C7.65 17.8173 6.66667 20.1913 6.66667 22.6667C6.66667 25.142 7.65 27.516 9.40034 29.2663C11.1507 31.0167 13.5246 32 16 32C18.4754 32 20.8493 31.0167 22.5997 29.2663C24.35 27.516 25.3333 25.142 25.3333 22.6667C25.3333 20.1913 24.35 17.8173 22.5997 16.067C20.8493 14.3167 18.4754 13.3333 16 13.3333Z" fill="#84888A"/>
</svg>
