<svg width="33" height="32" viewBox="0 0 33 32" fill="none" xmlns="http://www.w3.org/2000/svg">
<path d="M22.9885 1.536C20.0871 2.13333 17.7831 4.864 17.7831 7.936C17.7831 8.02133 17.7831 8.14933 17.7831 8.192C22.6471 9.38667 24.8658 12.3307 24.8658 16.384C24.8658 20.4373 21.6658 24.9173 16.2471 24.9173C11.8525 24.9173 7.28714 21.1627 7.24447 15.1467C7.24447 11.1787 9.37781 7.33867 12.1085 5.03467C14.7965 2.816 18.4658 1.408 21.7938 1.36533C22.2631 1.408 22.6898 1.45067 22.9885 1.536C20.8978 0.554667 18.5511 0 16.1191 0C7.28714 0 0.119141 7.168 0.119141 16C0.119141 24.832 7.28714 32 16.1191 32C24.9511 32 32.1191 24.832 32.1191 16C32.1191 9.6 28.3645 4.096 22.9885 1.536Z" fill="#84888A"/>
</svg>
