<svg width="112" height="20" viewBox="0 0 112 20" fill="none" xmlns="http://www.w3.org/2000/svg">
<path d="M62.8063 15.7406H60.0786L55.35 5.56118L50.7318 15.7406H48.3675L55.465 0L62.8063 15.7406ZM13.6987 6.27415C13.6987 6.27415 12.8707 5.80037 12.3969 5.56118C11.4494 5.20699 10.1476 4.73321 8.72626 4.73321C5.88818 4.73321 3.28468 6.03496 3.28468 9.35143C3.28468 12.6633 5.76858 13.965 8.85046 13.965C10.3868 13.965 11.9231 13.4913 12.7511 12.7829C13.2249 12.4241 13.9333 11.7157 13.9333 11.7157L15.235 13.7259L14.1724 14.4388C13.1053 15.1472 11.6885 16.0948 8.60667 16.0948C4.71063 16.0948 0.800781 14.08 0.800781 9.35143C0.800781 5.0874 4.46683 2.6035 8.96546 2.6035C10.9756 2.6035 12.5165 3.07727 13.5791 3.67065C14.1724 3.67065 15.0004 4.25943 15.0004 4.25943L13.6987 6.27415ZM48.3675 17.9853H62.8017V20H48.3675V17.9853ZM104.099 8.16467H107.53V10.6486H104.099V8.16467ZM99.0069 7.93008V2.84269H111.196V4.8528H101.491V7.93008H99.0069ZM101.491 10.5336V13.7259H111.196V15.7406H99.0069V10.5336H101.491ZM22.8155 8.16008H25.8882C27.1899 8.16008 28.2571 7.68629 28.2571 6.50414C28.2571 5.32199 27.1899 4.72861 25.8882 4.72861H20.442V15.6164H17.9581V2.83808H26.1228C29.2 2.83808 30.856 4.49402 30.856 6.50414C30.856 8.51426 29.5542 10.0552 27.3049 10.1748L30.7364 14.908C30.856 15.2622 31.2102 15.736 31.2102 15.736H28.0133L22.8155 8.16008ZM69.6646 15.736H67.1807V4.84821H62.0933V2.83808H74.9912V4.84821H69.9038L69.6646 15.736ZM79.959 15.736H77.4751V2.83808H79.959V15.736ZM94.3932 2.83808L90.0142 12.5437L85.6398 2.83808H82.7971L88.8321 15.736H91.316L97.2359 2.71849H94.3932M39.3748 7.93008H42.8063V10.414H39.3748V7.93008ZM34.2874 7.93008V2.84269H46.477V4.8528H36.7713V7.93008H34.2874ZM36.8909 10.5336V13.7259H46.592V15.7406H34.2874V10.5336H36.8909Z" fill="#84888A"/>
</svg>
