<svg width="25" height="25" viewBox="0 0 25 25" fill="none" xmlns="http://www.w3.org/2000/svg">
<g id="Icon">
<path id="icon" fill-rule="evenodd" clip-rule="evenodd" d="M14.9631 13.4675L20.6931 19.1975L19.2031 20.6875L13.4731 14.9574C12.4031 15.7275 11.1131 16.1975 9.70313 16.1975C6.11313 16.1975 3.20312 13.2874 3.20312 9.69745C3.20312 6.10745 6.11313 3.19745 9.70313 3.19745C13.2931 3.19745 16.2031 6.10745 16.2031 9.69745C16.2031 11.1074 15.7331 12.3975 14.9631 13.4675ZM9.70313 5.19745C7.21313 5.19745 5.20313 7.20745 5.20313 9.69745C5.20313 12.1874 7.21313 14.1974 9.70313 14.1974C12.1931 14.1974 14.2031 12.1874 14.2031 9.69745C14.2031 7.20745 12.1931 5.19745 9.70313 5.19745Z" fill="#42474E"/>
</g>
</svg>
